Punzon.ufo
<glyph name="brace" format="2">
  <advance width="88"/>
  <unicode hex="E000"/>
  <outline>
    <contour>
      <point x="13" y="499" type="curve"/>
      <point x="48" y="464"/>
      <point x="69" y="437"/>
      <point x="69" y="400" type="curve" smooth="yes"/>
      <point x="69" y="334"/>
      <point x="1" y="235"/>
      <point x="1" y="161" type="curve" smooth="yes"/>
      <point x="1" y="107"/>
      <point x="24" y="49"/>
      <point x="72" y="8" type="curve"/>
      <point x="78" y="11" type="line"/>
      <point x="39" y="55"/>
      <point x="25" y="87"/>
      <point x="25" y="127" type="curve" smooth="yes"/>
      <point x="25" y="206"/>
      <point x="86" y="297"/>
      <point x="86" y="365" type="curve" smooth="yes"/>
      <point x="86" y="414"/>
      <point x="76" y="462"/>
      <point x="21" y="498" type="curve"/>
      <point x="76" y="534"/>
      <point x="87" y="583"/>
      <point x="87" y="632" type="curve" smooth="yes"/>
      <point x="87" y="700"/>
      <point x="26" y="791"/>
      <point x="26" y="870" type="curve" smooth="yes"/>
      <point x="26" y="910"/>
      <point x="40" y="942"/>
      <point x="79" y="986" type="curve"/>
      <point x="73" y="989" type="line"/>
      <point x="25" y="948"/>
      <point x="2" y="890"/>
      <point x="2" y="836" type="curve" smooth="yes"/>
      <point x="2" y="762"/>
      <point x="69" y="663"/>
      <point x="69" y="597" type="curve" smooth="yes"/>
      <point x="69" y="560"/>
      <point x="48" y="534"/>
    </contour>
  </outline>
</glyph>
<glyph name="reversedBrace" format="2">
  <advance width="88"/>
  <unicode hex="E001"/>
  <outline>
    <contour>
      <point x="76" y="489" type="curve"/>
      <point x="40" y="525"/>
      <point x="18" y="551"/>
      <point x="18" y="589" type="curve" smooth="yes"/>
      <point x="18" y="656"/>
      <point x="87" y="757"/>
      <point x="87" y="833" type="curve" smooth="yes"/>
      <point x="87" y="888"/>
      <point x="63" y="947"/>
      <point x="14" y="989" type="curve"/>
      <point x="8" y="986" type="line"/>
      <point x="48" y="941"/>
      <point x="62" y="908"/>
      <point x="62" y="867" type="curve" smooth="yes"/>
      <point x="62" y="787"/>
      <point x="0" y="694"/>
      <point x="0" y="625" type="curve" smooth="yes"/>
      <point x="0" y="575"/>
      <point x="11" y="525"/>
      <point x="67" y="488" type="curve"/>
      <point x="11" y="451"/>
      <point x="1" y="402"/>
      <point x="1" y="352" type="curve" smooth="yes"/>
      <point x="1" y="283"/>
      <point x="63" y="190"/>
      <point x="63" y="110" type="curve" smooth="yes"/>
      <point x="63" y="69"/>
      <point x="49" y="36"/>
      <point x="9" y="-9" type="curve"/>
      <point x="15" y="-12" type="line"/>
      <point x="64" y="30"/>
      <point x="88" y="89"/>
      <point x="88" y="144" type="curve" smooth="yes"/>
      <point x="88" y="220"/>
      <point x="19" y="321"/>
      <point x="19" y="388" type="curve" smooth="yes"/>
      <point x="19" y="426"/>
      <point x="40" y="453"/>
    </contour>
  </outline>
</glyph>
<glyph name="bracketTop" format="2">
  <advance width="469"/>
  <unicode hex="E003"/>
  <note>
uniE003
</note>
  <outline>
    <contour>
      <point x="0" y="77" type="curve" smooth="yes"/>
      <point x="0" y="0" type="line"/>
      <point x="125" y="0" type="line" smooth="yes"/>
      <point x="212" y="0"/>
      <point x="421" y="100"/>
      <point x="459" y="197" type="curve" smooth="yes"/>
      <point x="461" y="201"/>
      <point x="462" y="205"/>
      <point x="463" y="209" type="curve" smooth="yes"/>
      <point x="466" y="220"/>
      <point x="459" y="225"/>
      <point x="449" y="225" type="curve" smooth="yes"/>
      <point x="443" y="225"/>
      <point x="439" y="222"/>
      <point x="430" y="210" type="curve" smooth="yes"/>
      <point x="408" y="182"/>
      <point x="300" y="105"/>
      <point x="129" y="104" type="curve"/>
      <point x="28" y="104" type="line" smooth="yes"/>
      <point x="12" y="104"/>
      <point x="0" y="93"/>
    </contour>
  </outline>
</glyph>
<glyph name="bracketBottom" format="2">
  <advance width="469"/>
  <unicode hex="E004"/>
  <note>
uniE004
</note>
  <outline>
    <contour>
      <point x="0" y="-77" type="line" smooth="yes"/>
      <point x="0" y="-93"/>
      <point x="12" y="-104"/>
      <point x="28" y="-104" type="curve" smooth="yes"/>
      <point x="129" y="-104" type="line"/>
      <point x="300" y="-105"/>
      <point x="408" y="-182"/>
      <point x="430" y="-210" type="curve" smooth="yes"/>
      <point x="439" y="-222"/>
      <point x="443" y="-225"/>
      <point x="449" y="-225" type="curve" smooth="yes"/>
      <point x="459" y="-225"/>
      <point x="466" y="-220"/>
      <point x="463" y="-209" type="curve" smooth="yes"/>
      <point x="462" y="-205"/>
      <point x="461" y="-201"/>
      <point x="459" y="-197" type="curve" smooth="yes"/>
      <point x="421" y="-100"/>
      <point x="212" y="0"/>
      <point x="125" y="0" type="curve" smooth="yes"/>
      <point x="0" y="0" type="line"/>
    </contour>
  </outline>
</glyph>
<glyph name="systemDivider" format="2">
  <advance width="1058"/>
  <unicode hex="E007"/>
  <note>
uniE007
</note>
  <outline>
    <contour>
      <point x="1058" y="795" type="curve" smooth="yes"/>
      <point x="1058" y="995" type="line" smooth="yes"/>
      <point x="1058" y="1002"/>
      <point x="1054" y="1010"/>
      <point x="1047" y="1010" type="curve" smooth="yes"/>
      <point x="1046" y="1010"/>
      <point x="1044" y="1010"/>
      <point x="1043" y="1009" type="curve"/>
      <point x="15" y="553" type="line" smooth="yes"/>
      <point x="4" y="548"/>
      <point x="0" y="540"/>
      <point x="0" y="532" type="curve" smooth="yes"/>
      <point x="0" y="339" type="line" smooth="yes"/>
      <point x="0" y="332"/>
      <point x="5" y="325"/>
      <point x="11" y="325" type="curve" smooth="yes"/>
      <point x="12" y="325"/>
      <point x="14" y="325"/>
      <point x="15" y="326" type="curve"/>
      <point x="1043" y="781" type="line"/>
      <point x="1051" y="784"/>
      <point x="1058" y="788"/>
    </contour>
    <contour>
      <point x="1058" y="452" type="curve" smooth="yes"/>
      <point x="1058" y="653" type="line" smooth="yes"/>
      <point x="1058" y="659"/>
      <point x="1054" y="667"/>
      <point x="1047" y="667" type="curve" smooth="yes"/>
      <point x="1046" y="667"/>
      <point x="1044" y="667"/>
      <point x="1043" y="666" type="curve"/>
      <point x="15" y="211" type="line" smooth="yes"/>
      <point x="4" y="205"/>
      <point x="0" y="197"/>
      <point x="0" y="190" type="curve" smooth="yes"/>
      <point x="0" y="-3" type="line" smooth="yes"/>
      <point x="0" y="-10"/>
      <point x="5" y="-18"/>
      <point x="12" y="-18" type="curve" smooth="yes"/>
      <point x="13" y="-18"/>
      <point x="14" y="-17"/>
      <point x="15" y="-17" type="curve"/>
      <point x="1043" y="439" type="line" smooth="yes"/>
      <point x="1050" y="442"/>
      <point x="1058" y="447"/>
    </contour>
  </outline>
</glyph>
<glyph name="systemDividerLong" format="2">
  <advance width="1564"/>
  <unicode hex="E008"/>
  <note>
uniE008
</note>
  <outline>
    <contour>
      <point x="1563" y="458" type="curve" smooth="yes"/>
      <point x="1563" y="624" type="line" smooth="yes"/>
      <point x="1563" y="638"/>
      <point x="1551" y="647"/>
      <point x="1538" y="647" type="curve" smooth="yes"/>
      <point x="1535" y="647"/>
      <point x="1533" y="647"/>
      <point x="1530" y="646" type="curve" smooth="yes"/>
      <point x="20" y="178" type="line" smooth="yes"/>
      <point x="10" y="175"/>
      <point x="1" y="166"/>
      <point x="1" y="154" type="curve" smooth="yes"/>
      <point x="1" y="-12" type="line" smooth="yes"/>
      <point x="1" y="-26"/>
      <point x="13" y="-35"/>
      <point x="26" y="-35" type="curve" smooth="yes"/>
      <point x="29" y="-35"/>
      <point x="31" y="-35"/>
      <point x="34" y="-34" type="curve" smooth="yes"/>
      <point x="1544" y="434" type="line" smooth="yes"/>
      <point x="1554" y="438"/>
      <point x="1563" y="445"/>
    </contour>
    <contour>
      <point x="1564" y="804" type="curve" smooth="yes"/>
      <point x="1563" y="972" type="line" smooth="yes"/>
      <point x="1563" y="986"/>
      <point x="1551" y="995"/>
      <point x="1538" y="995" type="curve" smooth="yes"/>
      <point x="1535" y="995"/>
      <point x="1533" y="995"/>
      <point x="1530" y="994" type="curve" smooth="yes"/>
      <point x="20" y="526" type="line" smooth="yes"/>
      <point x="12" y="523"/>
      <point x="0" y="515"/>
      <point x="1" y="501" type="curve" smooth="yes"/>
      <point x="0" y="335" type="line" smooth="yes"/>
      <point x="0" y="321"/>
      <point x="12" y="312"/>
      <point x="25" y="312" type="curve" smooth="yes"/>
      <point x="28" y="312"/>
      <point x="30" y="312"/>
      <point x="33" y="314" type="curve" smooth="yes"/>
      <point x="1544" y="781" type="line" smooth="yes"/>
      <point x="1555" y="784"/>
      <point x="1563" y="793"/>
    </contour>
  </outline>
</glyph>
<glyph name="systemDividerExtraLong" format="2">
  <advance width="2321"/>
  <unicode hex="E009"/>
  <note>
uniE009
</note>
  <outline>
    <contour>
      <point x="11" y="159" type="curve" smooth="yes"/>
      <point x="17" y="3" type="line" smooth="yes"/>
      <point x="17" y="-9"/>
      <point x="27" y="-19"/>
      <point x="41" y="-18" type="curve" smooth="yes"/>
      <point x="43" y="-18"/>
      <point x="45" y="-18"/>
      <point x="47" y="-17" type="curve"/>
      <point x="2298" y="462" type="line" smooth="yes"/>
      <point x="2310" y="465"/>
      <point x="2321" y="473"/>
      <point x="2321" y="485" type="curve" smooth="yes"/>
      <point x="2316" y="642" type="line" smooth="yes"/>
      <point x="2316" y="662"/>
      <point x="2306" y="672"/>
      <point x="2291" y="672" type="curve" smooth="yes"/>
      <point x="2289" y="672"/>
      <point x="2287" y="672"/>
      <point x="2284" y="671" type="curve" smooth="yes"/>
      <point x="33" y="192" type="line" smooth="yes"/>
      <point x="16" y="188"/>
      <point x="11" y="167"/>
    </contour>
    <contour>
      <point x="2310" y="830" type="curve" smooth="yes"/>
      <point x="2306" y="993" type="line"/>
      <point x="2301" y="1001"/>
      <point x="2293" y="1010"/>
      <point x="2280" y="1009" type="curve" smooth="yes"/>
      <point x="2275" y="1009" type="line"/>
      <point x="23" y="529" type="line"/>
      <point x="13" y="526"/>
      <point x="0" y="518"/>
      <point x="0" y="505" type="curve" smooth="yes"/>
      <point x="5" y="348" type="line" smooth="yes"/>
      <point x="5" y="333"/>
      <point x="20" y="319"/>
      <point x="33" y="319" type="curve"/>
      <point x="2289" y="799" type="line" smooth="yes"/>
      <point x="2307" y="803"/>
      <point x="2310" y="815"/>
    </contour>
  </outline>
</glyph>
<glyph name="repeatDots" format="2">
  <advance width="78"/>
  <unicode hex="E043"/>
  <note>
uniE043
</note>
  <outline>
    <contour>
      <point x="39" y="633" type="curve" smooth="yes"/>
      <point x="17" y="633"/>
      <point x="0" y="615"/>
      <point x="0" y="593" type="curve" smooth="yes"/>
      <point x="0" y="572"/>
      <point x="17" y="554"/>
      <point x="39" y="554" type="curve" smooth="yes"/>
      <point x="60" y="554"/>
      <point x="78" y="572"/>
      <point x="78" y="593" type="curve" smooth="yes"/>
      <point x="78" y="615"/>
      <point x="60" y="633"/>
    </contour>
    <contour>
      <point x="39" y="434" type="curve" smooth="yes"/>
      <point x="17" y="434"/>
      <point x="0" y="417"/>
      <point x="0" y="395" type="curve" smooth="yes"/>
      <point x="0" y="373"/>
      <point x="17" y="355"/>
      <point x="39" y="355" type="curve" smooth="yes"/>
      <point x="60" y="355"/>
      <point x="78" y="373"/>
      <point x="78" y="395" type="curve" smooth="yes"/>
      <point x="78" y="417"/>
      <point x="60" y="434"/>
    </contour>
  </outline>
</glyph>
<glyph name="repeatDot" format="2">
  <advance width="78"/>
  <unicode hex="E044"/>
  <note>
uniE044
</note>
  <outline>
    <contour>
      <point x="39" y="39" type="curve" smooth="yes"/>
      <point x="17" y="39"/>
      <point x="0" y="22"/>
      <point x="0" y="0" type="curve" smooth="yes"/>
      <point x="0" y="-22"/>
      <point x="17" y="-40"/>
      <point x="39" y="-40" type="curve" smooth="yes"/>
      <point x="60" y="-40"/>
      <point x="78" y="-22"/>
      <point x="78" y="0" type="curve" smooth="yes"/>
      <point x="78" y="22"/>
      <point x="60" y="39"/>
    </contour>
  </outline>
</glyph>
<glyph name="segno" format="2">
  <advance width="557"/>
  <unicode hex="E047"/>
  <note>
uniE047
</note>
  <outline>
    <contour>
      <point x="449" y="448" type="curve" smooth="yes"/>
      <point x="449" y="424"/>
      <point x="469" y="404"/>
      <point x="493" y="404" type="curve" smooth="yes"/>
      <point x="518" y="404"/>
      <point x="537" y="424"/>
      <point x="537" y="448" type="curve" smooth="yes"/>
      <point x="537" y="473"/>
      <point x="518" y="492"/>
      <point x="493" y="492" type="curve" smooth="yes"/>
      <point x="469" y="492"/>
      <point x="449" y="473"/>
    </contour>
    <contour>
      <point x="195" y="686" type="curve" smooth="yes"/>
      <point x="225" y="683"/>
      <point x="238" y="681"/>
      <point x="245" y="657" type="curve" smooth="yes"/>
      <point x="247" y="650" type="line" smooth="yes"/>
      <point x="255" y="621"/>
      <point x="228" y="589"/>
      <point x="253" y="571" type="curve" smooth="yes"/>
      <point x="262" y="565"/>
      <point x="284" y="560"/>
      <point x="295" y="564" type="curve" smooth="yes"/>
      <point x="324" y="574"/>
      <point x="325" y="598"/>
      <point x="325" y="626" type="curve" smooth="yes"/>
      <point x="325" y="641"/>
      <point x="324" y="657"/>
      <point x="317" y="673" type="curve" smooth="yes"/>
      <point x="302" y="706"/>
      <point x="234" y="747"/>
      <point x="153" y="726" type="curve" smooth="yes"/>
      <point x="103" y="713"/>
      <point x="41" y="664"/>
      <point x="41" y="565" type="curve" smooth="yes"/>
      <point x="41" y="521"/>
      <point x="49" y="497"/>
      <point x="71" y="472" type="curve" smooth="yes"/>
      <point x="124" y="411"/>
      <point x="207" y="337"/>
      <point x="215" y="334" type="curve" smooth="yes"/>
      <point x="219" y="332"/>
      <point x="221" y="330"/>
      <point x="221" y="326" type="curve" smooth="yes"/>
      <point x="221" y="322"/>
      <point x="219" y="317"/>
      <point x="215" y="310" type="curve" smooth="yes"/>
      <point x="208" y="296"/>
      <point x="56" y="35"/>
      <point x="56" y="35" type="curve"/>
      <point x="54" y="31"/>
      <point x="53" y="26"/>
      <point x="53" y="22" type="curve" smooth="yes"/>
      <point x="53" y="12"/>
      <point x="58" y="2"/>
      <point x="67" y="-3" type="curve" smooth="yes"/>
      <point x="72" y="-6"/>
      <point x="76" y="-7"/>
      <point x="81" y="-7" type="curve" smooth="yes"/>
      <point x="91" y="-7"/>
      <point x="101" y="-1"/>
      <point x="106" y="8" type="curve"/>
      <point x="106" y="8"/>
      <point x="281" y="290"/>
      <point x="284" y="296" type="curve"/>
      <point x="285" y="298"/>
      <point x="288" y="301"/>
      <point x="294" y="299" type="curve"/>
      <point x="309" y="296"/>
      <point x="479" y="237"/>
      <point x="479" y="142" type="curve" smooth="yes"/>
      <point x="479" y="73"/>
      <point x="449" y="53"/>
      <point x="422" y="41" type="curve" smooth="yes"/>
      <point x="411" y="36"/>
      <point x="376" y="36"/>
      <point x="359" y="45" type="curve" smooth="yes"/>
      <point x="343" y="54"/>
      <point x="325" y="64"/>
      <point x="331" y="95" type="curve" smooth="yes"/>
      <point x="333" y="106" type="line" smooth="yes"/>
      <point x="342" y="154"/>
      <point x="321" y="168"/>
      <point x="308" y="168" type="curve" smooth="yes"/>
      <point x="304" y="168"/>
      <point x="281" y="170"/>
      <point x="268" y="165" type="curve" smooth="yes"/>
      <point x="254" y="159"/>
      <point x="247" y="149"/>
      <point x="247" y="106" type="curve" smooth="yes"/>
      <point x="247" y="102"/>
      <point x="247" y="98"/>
      <point x="248" y="93" type="curve" smooth="yes"/>
      <point x="255" y="50"/>
      <point x="298" y="7"/>
      <point x="364" y="-8" type="curve" smooth="yes"/>
      <point x="377" y="-11"/>
      <point x="404" y="-10"/>
      <point x="419" y="-5" type="curve" smooth="yes"/>
      <point x="463" y="10"/>
      <point x="540" y="71"/>
      <point x="540" y="154" type="curve" smooth="yes"/>
      <point x="540" y="163"/>
      <point x="539" y="173"/>
      <point x="538" y="183" type="curve" smooth="yes"/>
      <point x="523" y="293"/>
      <point x="363" y="372"/>
      <point x="351" y="378" type="curve" smooth="yes"/>
      <point x="339" y="385"/>
      <point x="333" y="388"/>
      <point x="333" y="393" type="curve" smooth="yes"/>
      <point x="333" y="395"/>
      <point x="335" y="398"/>
      <point x="336" y="400" type="curve" smooth="yes"/>
      <point x="341" y="408"/>
      <point x="508" y="677"/>
      <point x="508" y="677" type="curve"/>
      <point x="511" y="682"/>
      <point x="512" y="686"/>
      <point x="512" y="691" type="curve" smooth="yes"/>
      <point x="512" y="701"/>
      <point x="506" y="711"/>
      <point x="497" y="716" type="curve" smooth="yes"/>
      <point x="493" y="718"/>
      <point x="488" y="719"/>
      <point x="484" y="719" type="curve" smooth="yes"/>
      <point x="474" y="719"/>
      <point x="464" y="714"/>
      <point x="459" y="705" type="curve"/>
      <point x="459" y="705"/>
      <point x="290" y="438"/>
      <point x="284" y="429" type="curve" smooth="yes"/>
      <point x="281" y="424"/>
      <point x="279" y="421"/>
      <point x="275" y="421" type="curve" smooth="yes"/>
      <point x="272" y="421"/>
      <point x="269" y="422"/>
      <point x="265" y="424" type="curve" smooth="yes"/>
      <point x="256" y="427"/>
      <point x="135" y="505"/>
      <point x="109" y="550" type="curve" smooth="yes"/>
      <point x="103" y="561"/>
      <point x="95" y="582"/>
      <point x="95" y="603" type="curve" smooth="yes"/>
      <point x="95" y="660"/>
      <point x="167" y="689"/>
    </contour>
    <contour>
      <point x="45" y="282" type="curve" smooth="yes"/>
      <point x="45" y="258"/>
      <point x="65" y="238"/>
      <point x="89" y="238" type="curve" smooth="yes"/>
      <point x="114" y="238"/>
      <point x="133" y="258"/>
      <point x="133" y="282" type="curve" smooth="yes"/>
      <point x="133" y="307"/>
      <point x="114" y="326"/>
      <point x="89" y="326" type="curve" smooth="yes"/>
      <point x="65" y="326"/>
      <point x="45" y="307"/>
    </contour>
  </outline>
</glyph>
<glyph name="coda" format="2">
  <advance width="934"/>
  <unicode hex="E048"/>
  <note>
uniE048
</note>
  <outline>
    <contour>
      <point x="471" y="-158" type="curve" smooth="yes"/>
      <point x="484" y="-158"/>
      <point x="495" y="-154"/>
      <point x="495" y="-140" type="curve" smooth="yes"/>
      <point x="495" y="6" type="line"/>
      <point x="637" y="19"/>
      <point x="781" y="165"/>
      <point x="791" y="352" type="curve"/>
      <point x="916" y="352" type="line" smooth="yes"/>
      <point x="930" y="352"/>
      <point x="934" y="363"/>
      <point x="934" y="376" type="curve" smooth="yes"/>
      <point x="934" y="389"/>
      <point x="930" y="400"/>
      <point x="916" y="400" type="curve" smooth="yes"/>
      <point x="791" y="400" type="line"/>
      <point x="781" y="568"/>
      <point x="637" y="722"/>
      <point x="495" y="735" type="curve"/>
      <point x="495" y="881" type="line" smooth="yes"/>
      <point x="495" y="894"/>
      <point x="484" y="898"/>
      <point x="471" y="898" type="curve" smooth="yes"/>
      <point x="458" y="898"/>
      <point x="447" y="894"/>
      <point x="447" y="881" type="curve" smooth="yes"/>
      <point x="447" y="735" type="line"/>
      <point x="305" y="722"/>
      <point x="161" y="569"/>
      <point x="150" y="400" type="curve"/>
      <point x="18" y="400" type="line" smooth="yes"/>
      <point x="4" y="400"/>
      <point x="0" y="389"/>
      <point x="0" y="376" type="curve" smooth="yes"/>
      <point x="0" y="363"/>
      <point x="4" y="352"/>
      <point x="18" y="352" type="curve" smooth="yes"/>
      <point x="150" y="352" type="line"/>
      <point x="161" y="165"/>
      <point x="305" y="19"/>
      <point x="447" y="6" type="curve"/>
      <point x="447" y="-140" type="line" smooth="yes"/>
      <point x="447" y="-154"/>
      <point x="458" y="-158"/>
    </contour>
    <contour>
      <point x="452" y="48" type="line"/>
      <point x="310" y="69"/>
      <point x="296" y="165"/>
      <point x="301" y="352" type="curve"/>
      <point x="452" y="352" type="line"/>
    </contour>
    <contour>
      <point x="490" y="48" type="curve"/>
      <point x="490" y="352" type="line"/>
      <point x="644" y="352" type="line"/>
      <point x="646" y="171"/>
      <point x="615" y="63"/>
    </contour>
    <contour>
      <point x="300" y="400" type="line"/>
      <point x="300" y="562"/>
      <point x="310" y="684"/>
      <point x="452" y="696" type="curve"/>
      <point x="452" y="400" type="line"/>
    </contour>
    <contour>
      <point x="490" y="400" type="line"/>
      <point x="490" y="696" type="line"/>
      <point x="630" y="684"/>
      <point x="644" y="562"/>
      <point x="644" y="400" type="curve"/>
    </contour>
  </outline>
</glyph>
<glyph name="codaSquare" format="2">
  <advance width="802"/>
  <unicode hex="E049"/>
  <note>
uniE049
</note>
  <outline>
    <contour>
      <point x="787" y="400" type="curve" smooth="yes"/>
      <point x="663" y="400" type="line"/>
      <point x="663" y="723" type="line" smooth="yes"/>
      <point x="663" y="731"/>
      <point x="656" y="738"/>
      <point x="649" y="738" type="curve" smooth="yes"/>
      <point x="425" y="738" type="line"/>
      <point x="425" y="882" type="line" smooth="yes"/>
      <point x="425" y="894"/>
      <point x="417" y="903"/>
      <point x="404" y="903" type="curve" smooth="yes"/>
      <point x="398" y="903" type="line" smooth="yes"/>
      <point x="386" y="903"/>
      <point x="377" y="894"/>
      <point x="377" y="882" type="curve" smooth="yes"/>
      <point x="377" y="738" type="line"/>
      <point x="153" y="738" type="line" smooth="yes"/>
      <point x="145" y="738"/>
      <point x="139" y="731"/>
      <point x="139" y="723" type="curve" smooth="yes"/>
      <point x="139" y="400" type="line"/>
      <point x="16" y="400" type="line" smooth="yes"/>
      <point x="7" y="400"/>
      <point x="0" y="391"/>
      <point x="0" y="379" type="curve" smooth="yes"/>
      <point x="0" y="371" type="line" smooth="yes"/>
      <point x="0" y="358"/>
      <point x="7" y="350"/>
      <point x="16" y="350" type="curve" smooth="yes"/>
      <point x="139" y="350" type="line"/>
      <point x="139" y="10" type="line" smooth="yes"/>
      <point x="139" y="0"/>
      <point x="145" y="-7"/>
      <point x="153" y="-7" type="curve" smooth="yes"/>
      <point x="377" y="-7" type="line"/>
      <point x="377" y="-133" type="line" smooth="yes"/>
      <point x="377" y="-144"/>
      <point x="386" y="-154"/>
      <point x="398" y="-154" type="curve" smooth="yes"/>
      <point x="404" y="-154" type="line" smooth="yes"/>
      <point x="417" y="-154"/>
      <point x="425" y="-144"/>
      <point x="425" y="-133" type="curve" smooth="yes"/>
      <point x="425" y="-7" type="line"/>
      <point x="649" y="-7" type="line" smooth="yes"/>
      <point x="656" y="-7"/>
      <point x="663" y="0"/>
      <point x="663" y="10" type="curve" smooth="yes"/>
      <point x="663" y="350" type="line"/>
      <point x="787" y="350" type="line" smooth="yes"/>
      <point x="795" y="350"/>
      <point x="802" y="358"/>
      <point x="802" y="371" type="curve" smooth="yes"/>
      <point x="802" y="379" type="line" smooth="yes"/>
      <point x="802" y="391"/>
      <point x="795" y="400"/>
    </contour>
    <contour>
      <point x="425" y="698" type="line"/>
      <point x="551" y="698" type="line" smooth="yes"/>
      <point x="559" y="698"/>
      <point x="562" y="693"/>
      <point x="562" y="685" type="curve" smooth="yes"/>
      <point x="562" y="400" type="line"/>
      <point x="425" y="400" type="line"/>
    </contour>
    <contour>
      <point x="240" y="400" type="line"/>
      <point x="240" y="689" type="line" smooth="yes"/>
      <point x="240" y="696"/>
      <point x="244" y="698"/>
      <point x="249" y="698" type="curve" smooth="yes"/>
      <point x="377" y="698" type="line"/>
      <point x="377" y="400" type="line"/>
    </contour>
    <contour>
      <point x="377" y="33" type="line"/>
      <point x="252" y="33" type="line" smooth="yes"/>
      <point x="245" y="33"/>
      <point x="240" y="38"/>
      <point x="240" y="48" type="curve" smooth="yes"/>
      <point x="240" y="350" type="line"/>
      <point x="377" y="350" type="line"/>
    </contour>
    <contour>
      <point x="562" y="350" type="line"/>
      <point x="562" y="48" type="line" smooth="yes"/>
      <point x="562" y="38"/>
      <point x="559" y="33"/>
      <point x="552" y="33" type="curve" smooth="yes"/>
      <point x="425" y="33" type="line"/>
      <point x="425" y="350" type="line"/>
    </contour>
  </outline>
</glyph>
<glyph name="gClefLigatedNumberBelow" format="2">
  <advance width="639"/>
  <unicode hex="E058"/>
  <note>
uniE058
</note>
  <outline>
    <contour>
      <point x="95" y="-659" type="line"/>
      <point x="103" y="-659"/>
      <point x="306" y="-659"/>
      <point x="324" y="-657" type="curve" smooth="yes"/>
      <point x="399" y="-649"/>
      <point x="520" y="-585"/>
      <point x="515" y="-455" type="curve" smooth="yes"/>
      <point x="513" y="-398"/>
      <point x="492" y="-299"/>
      <point x="475" y="-232" type="curve" smooth="yes"/>
      <point x="472" y="-220"/>
      <point x="472" y="-220"/>
      <point x="487" y="-213" type="curve" smooth="yes"/>
      <point x="569" y="-179"/>
      <point x="646" y="-53"/>
      <point x="639" y="29" type="curve" smooth="yes"/>
      <point x="629" y="135"/>
      <point x="528" y="265"/>
      <point x="391" y="262" type="curve" smooth="yes"/>
      <point x="369" y="262"/>
      <point x="368" y="270"/>
      <point x="365" y="287" type="curve" smooth="yes"/>
      <point x="335" y="455" type="line" smooth="yes"/>
      <point x="333" y="467"/>
      <point x="333" y="470"/>
      <point x="338" y="476" type="curve" smooth="yes"/>
      <point x="350" y="492"/>
      <point x="364" y="513"/>
      <point x="379" y="534" type="curve" smooth="yes"/>
      <point x="461" y="650"/>
      <point x="501" y="759"/>
      <point x="496" y="871" type="curve" smooth="yes"/>
      <point x="492" y="958"/>
      <point x="465" y="1035"/>
      <point x="434" y="1095" type="curve" smooth="yes"/>
      <point x="423" y="1120"/>
      <point x="396" y="1165"/>
      <point x="375" y="1164" type="curve" smooth="yes"/>
      <point x="354" y="1162"/>
      <point x="331" y="1130"/>
      <point x="311" y="1098" type="curve" smooth="yes"/>
      <point x="253" y="1005"/>
      <point x="226" y="896"/>
      <point x="228" y="793" type="curve" smooth="yes"/>
      <point x="229" y="751"/>
      <point x="254" y="663"/>
      <point x="262" y="614" type="curve" smooth="yes"/>
      <point x="264" y="603"/>
      <point x="265" y="580"/>
      <point x="254" y="569" type="curve" smooth="yes"/>
      <point x="192" y="513"/>
      <point x="127" y="426"/>
      <point x="76" y="357" type="curve" smooth="yes"/>
      <point x="17" y="278"/>
      <point x="-4" y="181"/>
      <point x="0" y="76" type="curve" smooth="yes"/>
      <point x="6" y="-68"/>
      <point x="106" y="-251"/>
      <point x="351" y="-241" type="curve" smooth="yes"/>
      <point x="374" y="-241"/>
      <point x="398" y="-240"/>
      <point x="418" y="-236" type="curve" smooth="yes"/>
      <point x="429" y="-235"/>
      <point x="435" y="-238"/>
      <point x="438" y="-250" type="curve" smooth="yes"/>
      <point x="455" y="-323"/>
      <point x="474" y="-415"/>
      <point x="476" y="-462" type="curve" smooth="yes"/>
      <point x="481" y="-580"/>
      <point x="395" y="-621"/>
      <point x="337" y="-635" type="curve" smooth="yes"/>
      <point x="289" y="-647"/>
      <point x="103" y="-633"/>
      <point x="95" y="-641" type="curve"/>
    </contour>
    <contour>
      <point x="334" y="-217" type="curve" smooth="yes"/>
      <point x="159" y="-219"/>
      <point x="84" y="-98"/>
      <point x="80" y="40" type="curve" smooth="yes"/>
      <point x="78" y="99"/>
      <point x="106" y="156"/>
      <point x="143" y="234" type="curve" smooth="yes"/>
      <point x="195" y="344"/>
      <point x="241" y="381"/>
      <point x="285" y="420" type="curve" smooth="yes"/>
      <point x="295" y="428"/>
      <point x="297" y="430"/>
      <point x="299" y="419" type="curve" smooth="yes"/>
      <point x="325" y="279" type="line" smooth="yes"/>
      <point x="329" y="260"/>
      <point x="329" y="247"/>
      <point x="311" y="239" type="curve" smooth="yes"/>
      <point x="225" y="199"/>
      <point x="181" y="112"/>
      <point x="184" y="27" type="curve" smooth="yes"/>
      <point x="187" y="-39"/>
      <point x="229" y="-91"/>
      <point x="290" y="-131" type="curve" smooth="yes"/>
      <point x="298" y="-138"/>
      <point x="318" y="-145"/>
      <point x="325" y="-145" type="curve" smooth="yes"/>
      <point x="333" y="-145"/>
      <point x="342" y="-137"/>
      <point x="342" y="-126" type="curve" smooth="yes"/>
      <point x="341" y="-119"/>
      <point x="327" y="-112"/>
      <point x="320" y="-108" type="curve" smooth="yes"/>
      <point x="277" y="-83"/>
      <point x="246" y="-46"/>
      <point x="245" y="0" type="curve" smooth="yes"/>
      <point x="243" y="48"/>
      <point x="278" y="103"/>
      <point x="338" y="121" type="curve" smooth="yes"/>
      <point x="355" y="124"/>
      <point x="356" y="119"/>
      <point x="359" y="109" type="curve" smooth="yes"/>
      <point x="421" y="-195" type="line" smooth="yes"/>
      <point x="424" y="-206"/>
      <point x="424" y="-206"/>
      <point x="409" y="-210" type="curve" smooth="yes"/>
      <point x="393" y="-214"/>
      <point x="354" y="-216"/>
    </contour>
    <contour>
      <point x="478" y="-189" type="curve" smooth="yes"/>
      <point x="467" y="-193"/>
      <point x="464" y="-184"/>
      <point x="461" y="-171" type="curve" smooth="yes"/>
      <point x="401" y="113" type="line" smooth="yes"/>
      <point x="399" y="125"/>
      <point x="399" y="136"/>
      <point x="411" y="136" type="curve" smooth="yes"/>
      <point x="500" y="133"/>
      <point x="561" y="84"/>
      <point x="565" y="-14" type="curve" smooth="yes"/>
      <point x="570" y="-122"/>
      <point x="524" y="-169"/>
    </contour>
    <contour>
      <point x="302" y="624" type="curve" smooth="yes"/>
      <point x="301" y="622"/>
      <point x="296" y="644"/>
      <point x="292" y="656" type="curve" smooth="yes"/>
      <point x="288" y="682"/>
      <point x="274" y="735"/>
      <point x="270" y="767" type="curve" smooth="yes"/>
      <point x="258" y="863"/>
      <point x="347" y="1010"/>
      <point x="388" y="1010" type="curve" smooth="yes"/>
      <point x="421" y="1012"/>
      <point x="446" y="987"/>
      <point x="449" y="919" type="curve" smooth="yes"/>
      <point x="451" y="850"/>
      <point x="433" y="784"/>
      <point x="366" y="702" type="curve" smooth="yes"/>
      <point x="350" y="682"/>
      <point x="323" y="645"/>
    </contour>
  </outline>
</glyph>
<glyph name="gClefLigatedNumberAbove" format="2">
  <advance width="671"/>
  <unicode hex="E059"/>
  <note>
uniE059
</note>
  <outline>
    <contour>
      <point x="326" y="-657" type="curve" smooth="yes"/>
      <point x="393" y="-654"/>
      <point x="521" y="-604"/>
      <point x="515" y="-455" type="curve" smooth="yes"/>
      <point x="513" y="-398"/>
      <point x="492" y="-299"/>
      <point x="475" y="-232" type="curve" smooth="yes"/>
      <point x="472" y="-220"/>
      <point x="472" y="-220"/>
      <point x="487" y="-213" type="curve" smooth="yes"/>
      <point x="569" y="-179"/>
      <point x="646" y="-53"/>
      <point x="639" y="29" type="curve" smooth="yes"/>
      <point x="629" y="135"/>
      <point x="528" y="265"/>
      <point x="391" y="262" type="curve" smooth="yes"/>
      <point x="369" y="262"/>
      <point x="368" y="270"/>
      <point x="365" y="287" type="curve" smooth="yes"/>
      <point x="335" y="455" type="line" smooth="yes"/>
      <point x="333" y="467"/>
      <point x="333" y="470"/>
      <point x="338" y="476" type="curve" smooth="yes"/>
      <point x="350" y="492"/>
      <point x="364" y="513"/>
      <point x="379" y="534" type="curve" smooth="yes"/>
      <point x="461" y="650"/>
      <point x="501" y="759"/>
      <point x="496" y="871" type="curve" smooth="yes"/>
      <point x="496" y="873"/>
      <point x="496" y="876"/>
      <point x="496" y="878" type="curve" smooth="yes"/>
      <point x="495" y="882"/>
      <point x="491" y="884"/>
      <point x="485" y="883" type="curve" smooth="yes"/>
      <point x="457" y="878" type="line" smooth="yes"/>
      <point x="452" y="877"/>
      <point x="448" y="874"/>
      <point x="447" y="868" type="curve" smooth="yes"/>
      <point x="439" y="817"/>
      <point x="416" y="764"/>
      <point x="366" y="702" type="curve" smooth="yes"/>
      <point x="350" y="682"/>
      <point x="323" y="645"/>
      <point x="302" y="624" type="curve" smooth="yes"/>
      <point x="301" y="622"/>
      <point x="296" y="644"/>
      <point x="292" y="656" type="curve" smooth="yes"/>
      <point x="288" y="682"/>
      <point x="274" y="735"/>
      <point x="270" y="767" type="curve" smooth="yes"/>
      <point x="261" y="842"/>
      <point x="313" y="949"/>
      <point x="357" y="992" type="curve" smooth="yes"/>
      <point x="364" y="999"/>
      <point x="369" y="1005"/>
      <point x="369" y="1016" type="curve" smooth="yes"/>
      <point x="374" y="1137" type="line" smooth="yes"/>
      <point x="375" y="1152"/>
      <point x="363" y="1162"/>
      <point x="352" y="1152" type="curve" smooth="yes"/>
      <point x="338" y="1139"/>
      <point x="324" y="1118"/>
      <point x="311" y="1098" type="curve" smooth="yes"/>
      <point x="253" y="1005"/>
      <point x="226" y="896"/>
      <point x="228" y="793" type="curve" smooth="yes"/>
      <point x="229" y="751"/>
      <point x="254" y="663"/>
      <point x="262" y="614" type="curve" smooth="yes"/>
      <point x="264" y="603"/>
      <point x="265" y="580"/>
      <point x="254" y="569" type="curve" smooth="yes"/>
      <point x="192" y="513"/>
      <point x="127" y="426"/>
      <point x="76" y="357" type="curve" smooth="yes"/>
      <point x="17" y="278"/>
      <point x="-4" y="181"/>
      <point x="0" y="76" type="curve" smooth="yes"/>
      <point x="6" y="-68"/>
      <point x="106" y="-251"/>
      <point x="351" y="-241" type="curve" smooth="yes"/>
      <point x="374" y="-241"/>
      <point x="398" y="-240"/>
      <point x="418" y="-236" type="curve" smooth="yes"/>
      <point x="429" y="-235"/>
      <point x="435" y="-238"/>
      <point x="438" y="-250" type="curve" smooth="yes"/>
      <point x="455" y="-323"/>
      <point x="474" y="-415"/>
      <point x="476" y="-462" type="curve" smooth="yes"/>
      <point x="481" y="-580"/>
      <point x="395" y="-613"/>
      <point x="336" y="-614" type="curve" smooth="yes"/>
      <point x="282" y="-618"/>
      <point x="256" y="-602"/>
      <point x="256" y="-589" type="curve" smooth="yes"/>
      <point x="256" y="-582"/>
      <point x="265" y="-580"/>
      <point x="287" y="-571" type="curve" smooth="yes"/>
      <point x="312" y="-561"/>
      <point x="349" y="-528"/>
      <point x="346" y="-475" type="curve" smooth="yes"/>
      <point x="345" y="-420"/>
      <point x="313" y="-378"/>
      <point x="252" y="-381" type="curve" smooth="yes"/>
      <point x="186" y="-383"/>
      <point x="150" y="-448"/>
      <point x="151" y="-496" type="curve" smooth="yes"/>
      <point x="153" y="-572"/>
      <point x="225" y="-662"/>
    </contour>
    <contour>
      <point x="334" y="-217" type="curve" smooth="yes"/>
      <point x="159" y="-219"/>
      <point x="84" y="-98"/>
      <point x="80" y="40" type="curve" smooth="yes"/>
      <point x="78" y="99"/>
      <point x="106" y="156"/>
      <point x="143" y="234" type="curve" smooth="yes"/>
      <point x="195" y="344"/>
      <point x="241" y="381"/>
      <point x="285" y="420" type="curve" smooth="yes"/>
      <point x="295" y="428"/>
      <point x="297" y="430"/>
      <point x="299" y="419" type="curve" smooth="yes"/>
      <point x="325" y="279" type="line" smooth="yes"/>
      <point x="329" y="260"/>
      <point x="329" y="247"/>
      <point x="311" y="239" type="curve" smooth="yes"/>
      <point x="225" y="199"/>
      <point x="181" y="112"/>
      <point x="184" y="27" type="curve" smooth="yes"/>
      <point x="187" y="-39"/>
      <point x="229" y="-91"/>
      <point x="290" y="-131" type="curve" smooth="yes"/>
      <point x="298" y="-138"/>
      <point x="318" y="-145"/>
      <point x="325" y="-145" type="curve" smooth="yes"/>
      <point x="333" y="-145"/>
      <point x="342" y="-137"/>
      <point x="342" y="-126" type="curve" smooth="yes"/>
      <point x="341" y="-119"/>
      <point x="327" y="-112"/>
      <point x="320" y="-108" type="curve" smooth="yes"/>
      <point x="277" y="-83"/>
      <point x="246" y="-46"/>
      <point x="245" y="0" type="curve" smooth="yes"/>
      <point x="243" y="48"/>
      <point x="278" y="103"/>
      <point x="338" y="121" type="curve" smooth="yes"/>
      <point x="355" y="124"/>
      <point x="356" y="119"/>
      <point x="359" y="109" type="curve" smooth="yes"/>
      <point x="421" y="-195" type="line" smooth="yes"/>
      <point x="424" y="-206"/>
      <point x="424" y="-206"/>
      <point x="409" y="-210" type="curve" smooth="yes"/>
      <point x="393" y="-214"/>
      <point x="354" y="-216"/>
    </contour>
    <contour>
      <point x="478" y="-189" type="curve" smooth="yes"/>
      <point x="467" y="-193"/>
      <point x="464" y="-184"/>
      <point x="461" y="-171" type="curve" smooth="yes"/>
      <point x="401" y="113" type="line" smooth="yes"/>
      <point x="399" y="125"/>
      <point x="399" y="136"/>
      <point x="411" y="136" type="curve" smooth="yes"/>
      <point x="500" y="133"/>
      <point x="561" y="84"/>
      <point x="565" y="-14" type="curve" smooth="yes"/>
      <point x="570" y="-122"/>
      <point x="524" y="-169"/>
    </contour>
  </outline>
</glyph>
<glyph name="gClefArrowUp" format="2">
  <advance width="639"/>
  <unicode hex="E05A"/>
  <note>
uniE05A
</note>
  <outline>
    <contour>
      <point x="326" y="-657" type="curve" smooth="yes"/>
      <point x="393" y="-654"/>
      <point x="521" y="-604"/>
      <point x="515" y="-455" type="curve" smooth="yes"/>
      <point x="513" y="-398"/>
      <point x="492" y="-299"/>
      <point x="475" y="-232" type="curve" smooth="yes"/>
      <point x="472" y="-220"/>
      <point x="472" y="-220"/>
      <point x="487" y="-213" type="curve" smooth="yes"/>
      <point x="569" y="-179"/>
      <point x="646" y="-53"/>
      <point x="639" y="29" type="curve" smooth="yes"/>
      <point x="629" y="135"/>
      <point x="528" y="265"/>
      <point x="391" y="262" type="curve" smooth="yes"/>
      <point x="369" y="262"/>
      <point x="368" y="270"/>
      <point x="365" y="287" type="curve" smooth="yes"/>
      <point x="335" y="455" type="line" smooth="yes"/>
      <point x="333" y="467"/>
      <point x="333" y="470"/>
      <point x="338" y="476" type="curve" smooth="yes"/>
      <point x="350" y="492"/>
      <point x="364" y="513"/>
      <point x="379" y="534" type="curve" smooth="yes"/>
      <point x="442" y="623"/>
      <point x="514" y="726"/>
      <point x="514" y="811" type="curve" smooth="yes"/>
      <point x="514" y="812"/>
      <point x="514" y="812"/>
      <point x="514" y="813" type="curve" smooth="yes"/>
      <point x="514" y="816"/>
      <point x="514" y="818"/>
      <point x="514" y="820" type="curve"/>
      <point x="511" y="886"/>
      <point x="485" y="934"/>
      <point x="443" y="981" type="curve" smooth="yes"/>
      <point x="436" y="989"/>
      <point x="420" y="1003"/>
      <point x="414" y="1005" type="curve" smooth="yes"/>
      <point x="406" y="1007"/>
      <point x="395" y="1002"/>
      <point x="392" y="992" type="curve" smooth="yes"/>
      <point x="390" y="985"/>
      <point x="401" y="974"/>
      <point x="407" y="968" type="curve" smooth="yes"/>
      <point x="440" y="931"/>
      <point x="457" y="907"/>
      <point x="457" y="847" type="curve" smooth="yes"/>
      <point x="457" y="839"/>
      <point x="453" y="827"/>
      <point x="450" y="818" type="curve" smooth="yes"/>
      <point x="438" y="787"/>
      <point x="414" y="756"/>
      <point x="366" y="702" type="curve" smooth="yes"/>
      <point x="349" y="683"/>
      <point x="323" y="645"/>
      <point x="302" y="624" type="curve"/>
      <point x="301" y="622"/>
      <point x="295" y="641"/>
      <point x="291" y="653" type="curve" smooth="yes"/>
      <point x="287" y="666"/>
      <point x="211" y="983"/>
      <point x="209" y="994" type="curve" smooth="yes"/>
      <point x="207" y="1003"/>
      <point x="212" y="1013"/>
      <point x="217" y="1012" type="curve" smooth="yes"/>
      <point x="291" y="994" type="line" smooth="yes"/>
      <point x="298" y="992"/>
      <point x="300" y="1002"/>
      <point x="295" y="1009" type="curve" smooth="yes"/>
      <point x="145" y="1240" type="line" smooth="yes"/>
      <point x="143" y="1244"/>
      <point x="139" y="1247"/>
      <point x="138" y="1247" type="curve" smooth="yes"/>
      <point x="136" y="1247"/>
      <point x="135" y="1244"/>
      <point x="134" y="1239" type="curve" smooth="yes"/>
      <point x="96" y="972" type="line" smooth="yes"/>
      <point x="95" y="964"/>
      <point x="100" y="956"/>
      <point x="107" y="960" type="curve"/>
      <point x="166" y="1001" type="line" smooth="yes"/>
      <point x="169" y="1003"/>
      <point x="174" y="999"/>
      <point x="176" y="989" type="curve" smooth="yes"/>
      <point x="192" y="902"/>
      <point x="257" y="642"/>
      <point x="262" y="614" type="curve" smooth="yes"/>
      <point x="264" y="603"/>
      <point x="265" y="580"/>
      <point x="254" y="569" type="curve" smooth="yes"/>
      <point x="192" y="513"/>
      <point x="127" y="426"/>
      <point x="76" y="357" type="curve" smooth="yes"/>
      <point x="17" y="278"/>
      <point x="-4" y="181"/>
      <point x="0" y="76" type="curve" smooth="yes"/>
      <point x="6" y="-68"/>
      <point x="106" y="-251"/>
      <point x="351" y="-241" type="curve" smooth="yes"/>
      <point x="374" y="-241"/>
      <point x="398" y="-240"/>
      <point x="418" y="-236" type="curve" smooth="yes"/>
      <point x="429" y="-235"/>
      <point x="435" y="-238"/>
      <point x="438" y="-250" type="curve" smooth="yes"/>
      <point x="455" y="-323"/>
      <point x="474" y="-415"/>
      <point x="476" y="-462" type="curve" smooth="yes"/>
      <point x="481" y="-580"/>
      <point x="395" y="-613"/>
      <point x="336" y="-614" type="curve" smooth="yes"/>
      <point x="282" y="-618"/>
      <point x="256" y="-602"/>
      <point x="256" y="-589" type="curve" smooth="yes"/>
      <point x="256" y="-582"/>
      <point x="265" y="-580"/>
      <point x="287" y="-571" type="curve" smooth="yes"/>
      <point x="312" y="-561"/>
      <point x="349" y="-528"/>
      <point x="346" y="-475" type="curve" smooth="yes"/>
      <point x="345" y="-420"/>
      <point x="313" y="-378"/>
      <point x="252" y="-381" type="curve" smooth="yes"/>
      <point x="186" y="-383"/>
      <point x="150" y="-448"/>
      <point x="151" y="-496" type="curve" smooth="yes"/>
      <point x="153" y="-572"/>
      <point x="225" y="-662"/>
    </contour>
    <contour>
      <point x="334" y="-217" type="curve" smooth="yes"/>
      <point x="159" y="-219"/>
      <point x="84" y="-98"/>
      <point x="80" y="40" type="curve" smooth="yes"/>
      <point x="78" y="99"/>
      <point x="106" y="156"/>
      <point x="143" y="234" type="curve" smooth="yes"/>
      <point x="195" y="344"/>
      <point x="241" y="381"/>
      <point x="285" y="420" type="curve" smooth="yes"/>
      <point x="295" y="428"/>
      <point x="297" y="430"/>
      <point x="299" y="419" type="curve" smooth="yes"/>
      <point x="325" y="279" type="line" smooth="yes"/>
      <point x="329" y="260"/>
      <point x="329" y="247"/>
      <point x="311" y="239" type="curve" smooth="yes"/>
      <point x="225" y="199"/>
      <point x="181" y="112"/>
      <point x="184" y="27" type="curve" smooth="yes"/>
      <point x="187" y="-39"/>
      <point x="229" y="-91"/>
      <point x="290" y="-131" type="curve"/>
      <point x="298" y="-138"/>
      <point x="318" y="-145"/>
      <point x="325" y="-145" type="curve" smooth="yes"/>
      <point x="333" y="-145"/>
      <point x="342" y="-137"/>
      <point x="342" y="-126" type="curve" smooth="yes"/>
      <point x="341" y="-119"/>
      <point x="327" y="-112"/>
      <point x="320" y="-108" type="curve" smooth="yes"/>
      <point x="277" y="-83"/>
      <point x="246" y="-46"/>
      <point x="245" y="0" type="curve" smooth="yes"/>
      <point x="243" y="48"/>
      <point x="278" y="103"/>
      <point x="338" y="121" type="curve"/>
      <point x="355" y="124"/>
      <point x="356" y="119"/>
      <point x="359" y="109" type="curve"/>
      <point x="421" y="-195" type="line" smooth="yes"/>
      <point x="424" y="-206"/>
      <point x="424" y="-206"/>
      <point x="409" y="-210" type="curve" smooth="yes"/>
      <point x="393" y="-214"/>
      <point x="354" y="-216"/>
    </contour>
    <contour>
      <point x="478" y="-189" type="curve" smooth="yes"/>
      <point x="467" y="-193"/>
      <point x="464" y="-184"/>
      <point x="461" y="-171" type="curve" smooth="yes"/>
      <point x="401" y="113" type="line" smooth="yes"/>
      <point x="399" y="125"/>
      <point x="399" y="136"/>
      <point x="411" y="136" type="curve" smooth="yes"/>
      <point x="500" y="133"/>
      <point x="561" y="84"/>
      <point x="565" y="-14" type="curve" smooth="yes"/>
      <point x="570" y="-122"/>
      <point x="524" y="-169"/>
    </contour>
  </outline>
</glyph>
<glyph name="gClefArrowDown" format="2">
  <advance width="639"/>
  <unicode hex="E05B"/>
  <note>
uniE05B
</note>
  <outline>
    <contour>
      <point x="458" y="-342" type="curve"/>
      <point x="458" y="-342" type="line"/>
      <point x="465" y="-370"/>
      <point x="482" y="-441"/>
      <point x="483" y="-447" type="curve" smooth="yes"/>
      <point x="485" y="-456"/>
      <point x="482" y="-466"/>
      <point x="477" y="-465" type="curve" smooth="yes"/>
      <point x="403" y="-445" type="line" smooth="yes"/>
      <point x="396" y="-443"/>
      <point x="394" y="-453"/>
      <point x="399" y="-460" type="curve" smooth="yes"/>
      <point x="548" y="-694" type="line" smooth="yes"/>
      <point x="550" y="-698"/>
      <point x="554" y="-701"/>
      <point x="555" y="-701" type="curve" smooth="yes"/>
      <point x="557" y="-701"/>
      <point x="558" y="-698"/>
      <point x="559" y="-693" type="curve" smooth="yes"/>
      <point x="598" y="-427" type="line" smooth="yes"/>
      <point x="599" y="-419"/>
      <point x="595" y="-411"/>
      <point x="588" y="-415" type="curve" smooth="yes"/>
      <point x="528" y="-455" type="line"/>
      <point x="525" y="-456"/>
      <point x="522" y="-452"/>
      <point x="520" y="-442" type="curve" smooth="yes"/>
      <point x="514" y="-407"/>
      <point x="482" y="-261"/>
      <point x="475" y="-232" type="curve" smooth="yes"/>
      <point x="472" y="-220"/>
      <point x="472" y="-220"/>
      <point x="487" y="-213" type="curve" smooth="yes"/>
      <point x="569" y="-179"/>
      <point x="646" y="-53"/>
      <point x="639" y="29" type="curve" smooth="yes"/>
      <point x="629" y="135"/>
      <point x="528" y="265"/>
      <point x="391" y="262" type="curve" smooth="yes"/>
      <point x="369" y="262"/>
      <point x="368" y="270"/>
      <point x="365" y="287" type="curve" smooth="yes"/>
      <point x="335" y="455" type="line" smooth="yes"/>
      <point x="333" y="467"/>
      <point x="333" y="470"/>
      <point x="338" y="476" type="curve" smooth="yes"/>
      <point x="350" y="492"/>
      <point x="364" y="513"/>
      <point x="379" y="534" type="curve" smooth="yes"/>
      <point x="461" y="650"/>
      <point x="501" y="759"/>
      <point x="496" y="871" type="curve" smooth="yes"/>
      <point x="492" y="958"/>
      <point x="465" y="1035"/>
      <point x="434" y="1095" type="curve" smooth="yes"/>
      <point x="423" y="1120"/>
      <point x="396" y="1165"/>
      <point x="375" y="1164" type="curve" smooth="yes"/>
      <point x="354" y="1162"/>
      <point x="331" y="1130"/>
      <point x="311" y="1098" type="curve" smooth="yes"/>
      <point x="253" y="1005"/>
      <point x="226" y="896"/>
      <point x="228" y="793" type="curve" smooth="yes"/>
      <point x="229" y="751"/>
      <point x="254" y="663"/>
      <point x="262" y="614" type="curve" smooth="yes"/>
      <point x="264" y="603"/>
      <point x="265" y="580"/>
      <point x="254" y="569" type="curve" smooth="yes"/>
      <point x="192" y="513"/>
      <point x="127" y="426"/>
      <point x="76" y="357" type="curve" smooth="yes"/>
      <point x="17" y="278"/>
      <point x="-4" y="181"/>
      <point x="0" y="76" type="curve" smooth="yes"/>
      <point x="6" y="-68"/>
      <point x="106" y="-251"/>
      <point x="351" y="-241" type="curve" smooth="yes"/>
      <point x="374" y="-241"/>
      <point x="398" y="-240"/>
      <point x="418" y="-236" type="curve" smooth="yes"/>
      <point x="429" y="-235"/>
      <point x="435" y="-238"/>
      <point x="438" y="-250" type="curve" smooth="yes"/>
      <point x="439" y="-255"/>
      <point x="441" y="-262"/>
      <point x="442" y="-267" type="curve"/>
      <point x="442" y="-267" type="line"/>
      <point x="446" y="-285"/>
      <point x="451" y="-306"/>
      <point x="455" y="-326" type="curve" smooth="yes"/>
      <point x="456" y="-331"/>
      <point x="457" y="-337"/>
    </contour>
    <contour>
      <point x="334" y="-217" type="curve" smooth="yes"/>
      <point x="159" y="-219"/>
      <point x="84" y="-98"/>
      <point x="80" y="40" type="curve" smooth="yes"/>
      <point x="78" y="99"/>
      <point x="106" y="156"/>
      <point x="143" y="234" type="curve" smooth="yes"/>
      <point x="195" y="344"/>
      <point x="241" y="381"/>
      <point x="285" y="420" type="curve" smooth="yes"/>
      <point x="295" y="428"/>
      <point x="297" y="430"/>
      <point x="299" y="419" type="curve" smooth="yes"/>
      <point x="325" y="279" type="line" smooth="yes"/>
      <point x="329" y="260"/>
      <point x="329" y="247"/>
      <point x="311" y="239" type="curve" smooth="yes"/>
      <point x="225" y="199"/>
      <point x="181" y="112"/>
      <point x="184" y="27" type="curve" smooth="yes"/>
      <point x="187" y="-39"/>
      <point x="229" y="-91"/>
      <point x="290" y="-131" type="curve"/>
      <point x="298" y="-138"/>
      <point x="318" y="-145"/>
      <point x="325" y="-145" type="curve" smooth="yes"/>
      <point x="333" y="-145"/>
      <point x="342" y="-137"/>
      <point x="342" y="-126" type="curve" smooth="yes"/>
      <point x="341" y="-119"/>
      <point x="327" y="-112"/>
      <point x="320" y="-108" type="curve" smooth="yes"/>
      <point x="277" y="-83"/>
      <point x="246" y="-46"/>
      <point x="245" y="0" type="curve" smooth="yes"/>
      <point x="243" y="48"/>
      <point x="278" y="103"/>
      <point x="338" y="121" type="curve"/>
      <point x="355" y="124"/>
      <point x="356" y="119"/>
      <point x="359" y="109" type="curve"/>
      <point x="421" y="-195" type="line" smooth="yes"/>
      <point x="424" y="-206"/>
      <point x="424" y="-206"/>
      <point x="409" y="-210" type="curve" smooth="yes"/>
      <point x="393" y="-214"/>
      <point x="354" y="-216"/>
    </contour>
    <contour>
      <point x="478" y="-189" type="curve" smooth="yes"/>
      <point x="467" y="-193"/>
      <point x="464" y="-184"/>
      <point x="461" y="-171" type="curve" smooth="yes"/>
      <point x="401" y="113" type="line" smooth="yes"/>
      <point x="399" y="125"/>
      <point x="399" y="136"/>
      <point x="411" y="136" type="curve" smooth="yes"/>
      <point x="500" y="133"/>
      <point x="561" y="84"/>
      <point x="565" y="-14" type="curve" smooth="yes"/>
      <point x="570" y="-122"/>
      <point x="524" y="-169"/>
    </contour>
    <contour>
      <point x="302" y="624" type="curve"/>
      <point x="301" y="622"/>
      <point x="296" y="644"/>
      <point x="292" y="656" type="curve"/>
      <point x="288" y="682"/>
      <point x="274" y="735"/>
      <point x="270" y="767" type="curve" smooth="yes"/>
      <point x="258" y="863"/>
      <point x="347" y="1010"/>
      <point x="388" y="1010" type="curve" smooth="yes"/>
      <point x="421" y="1012"/>
      <point x="446" y="987"/>
      <point x="449" y="919" type="curve" smooth="yes"/>
      <point x="451" y="850"/>
      <point x="433" y="784"/>
      <point x="366" y="702" type="curve" smooth="yes"/>
      <point x="350" y="682"/>
      <point x="323" y="645"/>
    </contour>
  </outline>
</glyph>
<glyph name="cClef" format="2">
  <advance width="686"/>
  <unicode hex="E05C"/>
  <note>
uniE05C
</note>
  <outline>
    <contour>
      <point x="92" y="503" type="curve" smooth="yes"/>
      <point x="21" y="503" type="line" smooth="yes"/>
      <point x="7" y="503"/>
      <point x="0" y="496"/>
      <point x="0" y="482" type="curve" smooth="yes"/>
      <point x="0" y="-482" type="line" smooth="yes"/>
      <point x="0" y="-496"/>
      <point x="7" y="-503"/>
      <point x="21" y="-503" type="curve" smooth="yes"/>
      <point x="92" y="-503" type="line" smooth="yes"/>
      <point x="106" y="-503"/>
      <point x="113" y="-496"/>
      <point x="113" y="-482" type="curve" smooth="yes"/>
      <point x="113" y="482" type="line" smooth="yes"/>
      <point x="113" y="496"/>
      <point x="106" y="503"/>
    </contour>
    <contour>
      <point x="201" y="44" type="curve" smooth="yes"/>
      <point x="201" y="482" type="line" smooth="yes"/>
      <point x="201" y="496"/>
      <point x="194" y="503"/>
      <point x="180" y="503" type="curve" smooth="yes"/>
      <point x="179" y="503" type="line" smooth="yes"/>
      <point x="165" y="503"/>
      <point x="158" y="496"/>
      <point x="158" y="482" type="curve" smooth="yes"/>
      <point x="158" y="-482" type="line" smooth="yes"/>
      <point x="158" y="-496"/>
      <point x="165" y="-503"/>
      <point x="179" y="-503" type="curve" smooth="yes"/>
      <point x="180" y="-503" type="line" smooth="yes"/>
      <point x="194" y="-503"/>
      <point x="201" y="-496"/>
      <point x="201" y="-482" type="curve" smooth="yes"/>
      <point x="201" y="-44" type="line" smooth="yes"/>
      <point x="201" y="-36"/>
      <point x="210" y="-37"/>
      <point x="214" y="-38" type="curve" smooth="yes"/>
      <point x="240" y="-45"/>
      <point x="320" y="-91"/>
      <point x="341" y="-184" type="curve" smooth="yes"/>
      <point x="345" y="-200"/>
      <point x="346" y="-209"/>
      <point x="356" y="-209" type="curve" smooth="yes"/>
      <point x="367" y="-209"/>
      <point x="389" y="-201"/>
      <point x="394" y="-184" type="curve" smooth="yes"/>
      <point x="407" y="-140"/>
      <point x="430" y="-91"/>
      <point x="501" y="-91" type="curve" smooth="yes"/>
      <point x="566" y="-91"/>
      <point x="582" y="-153"/>
      <point x="582" y="-284" type="curve" smooth="yes"/>
      <point x="582" y="-387"/>
      <point x="508" y="-474"/>
      <point x="452" y="-474" type="curve" smooth="yes"/>
      <point x="430" y="-474"/>
      <point x="410" y="-471"/>
      <point x="394" y="-466" type="curve" smooth="yes"/>
      <point x="377" y="-461"/>
      <point x="367" y="-448"/>
      <point x="367" y="-441" type="curve" smooth="yes"/>
      <point x="367" y="-436"/>
      <point x="386" y="-428"/>
      <point x="396" y="-420" type="curve" smooth="yes"/>
      <point x="408" y="-410"/>
      <point x="425" y="-390"/>
      <point x="424" y="-347" type="curve" smooth="yes"/>
      <point x="423" y="-294"/>
      <point x="375" y="-288"/>
      <point x="336" y="-288" type="curve" smooth="yes"/>
      <point x="293" y="-288"/>
      <point x="259" y="-327"/>
      <point x="259" y="-380" type="curve" smooth="yes"/>
      <point x="259" y="-443"/>
      <point x="344" y="-506"/>
      <point x="463" y="-506" type="curve" smooth="yes"/>
      <point x="627" y="-506"/>
      <point x="684" y="-337"/>
      <point x="684" y="-264" type="curve" smooth="yes"/>
      <point x="684" y="-126"/>
      <point x="623" y="-39"/>
      <point x="490" y="-39" type="curve" smooth="yes"/>
      <point x="461" y="-39"/>
      <point x="442" y="-44"/>
      <point x="429" y="-48" type="curve" smooth="yes"/>
      <point x="419" y="-51"/>
      <point x="409" y="-53"/>
      <point x="400" y="-47" type="curve" smooth="yes"/>
      <point x="386" y="-38"/>
      <point x="364" y="-20"/>
      <point x="364" y="0" type="curve" smooth="yes"/>
      <point x="364" y="20"/>
      <point x="386" y="40"/>
      <point x="400" y="49" type="curve" smooth="yes"/>
      <point x="409" y="55"/>
      <point x="419" y="53"/>
      <point x="429" y="48" type="curve" smooth="yes"/>
      <point x="441" y="42"/>
      <point x="461" y="39"/>
      <point x="490" y="39" type="curve" smooth="yes"/>
      <point x="623" y="39"/>
      <point x="686" y="116"/>
      <point x="686" y="274" type="curve" smooth="yes"/>
      <point x="686" y="378"/>
      <point x="627" y="506"/>
      <point x="463" y="506" type="curve" smooth="yes"/>
      <point x="344" y="506"/>
      <point x="279" y="443"/>
      <point x="279" y="380" type="curve" smooth="yes"/>
      <point x="279" y="327"/>
      <point x="323" y="288"/>
      <point x="366" y="288" type="curve" smooth="yes"/>
      <point x="405" y="288"/>
      <point x="436" y="323"/>
      <point x="436" y="367" type="curve" smooth="yes"/>
      <point x="436" y="407"/>
      <point x="429" y="413"/>
      <point x="411" y="428" type="curve" smooth="yes"/>
      <point x="400" y="437"/>
      <point x="397" y="442"/>
      <point x="397" y="447" type="curve" smooth="yes"/>
      <point x="397" y="454"/>
      <point x="407" y="462"/>
      <point x="419" y="469" type="curve" smooth="yes"/>
      <point x="424" y="472"/>
      <point x="430" y="474"/>
      <point x="452" y="474" type="curve" smooth="yes"/>
      <point x="535" y="474"/>
      <point x="582" y="415"/>
      <point x="582" y="284" type="curve" smooth="yes"/>
      <point x="582" y="153"/>
      <point x="550" y="99"/>
      <point x="485" y="99" type="curve" smooth="yes"/>
      <point x="414" y="99"/>
      <point x="396" y="148"/>
      <point x="383" y="192" type="curve" smooth="yes"/>
      <point x="378" y="209"/>
      <point x="363" y="209"/>
      <point x="352" y="209" type="curve" smooth="yes"/>
      <point x="343" y="209"/>
      <point x="339" y="200"/>
      <point x="333" y="184" type="curve" smooth="yes"/>
      <point x="312" y="131"/>
      <point x="236" y="45"/>
      <point x="210" y="38" type="curve" smooth="yes"/>
      <point x="206" y="37"/>
      <point x="201" y="36"/>
    </contour>
  </outline>
</glyph>
<glyph name="cClefCombining" format="2">
  <advance width="227"/>
  <unicode hex="E061"/>
  <note>
uniE061
</note>
  <outline>
    <contour>
      <point x="13" y="31" type="curve" smooth="yes"/>
      <point x="214" y="31" type="line" smooth="yes"/>
      <point x="223" y="31"/>
      <point x="227" y="35"/>
      <point x="227" y="44" type="curve" smooth="yes"/>
      <point x="227" y="472" type="line" smooth="yes"/>
      <point x="227" y="485"/>
      <point x="221" y="493"/>
      <point x="208" y="493" type="curve" smooth="yes"/>
      <point x="195" y="493"/>
      <point x="189" y="485"/>
      <point x="189" y="472" type="curve" smooth="yes"/>
      <point x="189" y="113" type="line" smooth="yes"/>
      <point x="189" y="106"/>
      <point x="186" y="103"/>
      <point x="179" y="103" type="curve" smooth="yes"/>
      <point x="13" y="103" type="line" smooth="yes"/>
      <point x="4" y="103"/>
      <point x="0" y="99"/>
      <point x="0" y="90" type="curve" smooth="yes"/>
      <point x="0" y="44" type="line" smooth="yes"/>
      <point x="0" y="35"/>
      <point x="4" y="31"/>
    </contour>
    <contour>
      <point x="214" y="-31" type="curve" smooth="yes"/>
      <point x="13" y="-31" type="line" smooth="yes"/>
      <point x="4" y="-31"/>
      <point x="0" y="-35"/>
      <point x="0" y="-44" type="curve" smooth="yes"/>
      <point x="0" y="-90" type="line" smooth="yes"/>
      <point x="0" y="-99"/>
      <point x="4" y="-103"/>
      <point x="13" y="-103" type="curve" smooth="yes"/>
      <point x="179" y="-103" type="line" smooth="yes"/>
      <point x="186" y="-103"/>
      <point x="189" y="-106"/>
      <point x="189" y="-113" type="curve" smooth="yes"/>
      <point x="189" y="-472" type="line" smooth="yes"/>
      <point x="189" y="-485"/>
      <point x="195" y="-493"/>
      <point x="208" y="-493" type="curve" smooth="yes"/>
      <point x="221" y="-493"/>
      <point x="227" y="-485"/>
      <point x="227" y="-472" type="curve" smooth="yes"/>
      <point x="227" y="-44" type="line" smooth="yes"/>
      <point x="227" y="-35"/>
      <point x="223" y="-31"/>
    </contour>
  </outline>
</glyph>
<glyph name="fClef" format="2">
  <advance width="702"/>
  <unicode hex="E062"/>
  <note>
uniE062
</note>
  <outline>
    <contour>
      <point x="287" y="258" type="curve" smooth="yes"/>
      <point x="113" y="258"/>
      <point x="36" y="105"/>
      <point x="36" y="39" type="curve" smooth="yes"/>
      <point x="36" y="-41"/>
      <point x="88" y="-103"/>
      <point x="159" y="-103" type="curve" smooth="yes"/>
      <point x="222" y="-103"/>
      <point x="254" y="-66"/>
      <point x="254" y="-4" type="curve" smooth="yes"/>
      <point x="254" y="50"/>
      <point x="212" y="93"/>
      <point x="173" y="93" type="curve" smooth="yes"/>
      <point x="146" y="93"/>
      <point x="132" y="93"/>
      <point x="119" y="93" type="curve" smooth="yes"/>
      <point x="106" y="93"/>
      <point x="103" y="101"/>
      <point x="103" y="111" type="curve" smooth="yes"/>
      <point x="103" y="131"/>
      <point x="158" y="226"/>
      <point x="260" y="226" type="curve" smooth="yes"/>
      <point x="376" y="226"/>
      <point x="431" y="120"/>
      <point x="431" y="-37" type="curve" smooth="yes"/>
      <point x="431" y="-150"/>
      <point x="399" y="-261"/>
      <point x="327" y="-367" type="curve" smooth="yes"/>
      <point x="265" y="-459"/>
      <point x="139" y="-531"/>
      <point x="15" y="-602" type="curve" smooth="yes"/>
      <point x="6" y="-607"/>
      <point x="0" y="-612"/>
      <point x="0" y="-620" type="curve" smooth="yes"/>
      <point x="0" y="-626"/>
      <point x="4" y="-632"/>
      <point x="13" y="-632" type="curve" smooth="yes"/>
      <point x="18" y="-632"/>
      <point x="24" y="-630"/>
      <point x="30" y="-627" type="curve" smooth="yes"/>
      <point x="166" y="-562"/>
      <point x="284" y="-503"/>
      <point x="403" y="-376" type="curve" smooth="yes"/>
      <point x="500" y="-273"/>
      <point x="544" y="-137"/>
      <point x="543" y="-25" type="curve" smooth="yes"/>
      <point x="542" y="69"/>
      <point x="450" y="258"/>
    </contour>
    <contour>
      <point x="646" y="-71" type="curve" smooth="yes"/>
      <point x="615" y="-71"/>
      <point x="592" y="-94"/>
      <point x="592" y="-125" type="curve" smooth="yes"/>
      <point x="592" y="-156"/>
      <point x="615" y="-179"/>
      <point x="646" y="-179" type="curve" smooth="yes"/>
      <point x="677" y="-179"/>
      <point x="700" y="-156"/>
      <point x="700" y="-125" type="curve" smooth="yes"/>
      <point x="700" y="-94"/>
      <point x="677" y="-71"/>
    </contour>
    <contour>
      <point x="647" y="150" type="curve" smooth="yes"/>
      <point x="616" y="150"/>
      <point x="592" y="126"/>
      <point x="592" y="95" type="curve" smooth="yes"/>
      <point x="592" y="64"/>
      <point x="616" y="40"/>
      <point x="647" y="40" type="curve" smooth="yes"/>
      <point x="678" y="40"/>
      <point x="702" y="64"/>
      <point x="702" y="95" type="curve" smooth="yes"/>
      <point x="702" y="126"/>
      <point x="678" y="150"/>
    </contour>
  </outline>
</glyph>
<glyph name="fClefArrowUp" format="2">
  <advance width="702"/>
  <unicode hex="E067"/>
  <note>
uniE062
</note>
  <outline>
    <contour>
      <point x="287" y="258" type="curve" smooth="yes"/>
      <point x="113" y="258"/>
      <point x="36" y="105"/>
      <point x="36" y="39" type="curve" smooth="yes"/>
      <point x="36" y="-41"/>
      <point x="88" y="-103"/>
      <point x="159" y="-103" type="curve" smooth="yes"/>
      <point x="222" y="-103"/>
      <point x="254" y="-66"/>
      <point x="254" y="-4" type="curve" smooth="yes"/>
      <point x="254" y="50"/>
      <point x="212" y="93"/>
      <point x="173" y="93" type="curve" smooth="yes"/>
      <point x="146" y="93"/>
      <point x="132" y="93"/>
      <point x="119" y="93" type="curve" smooth="yes"/>
      <point x="106" y="93"/>
      <point x="103" y="101"/>
      <point x="103" y="111" type="curve" smooth="yes"/>
      <point x="103" y="131"/>
      <point x="158" y="226"/>
      <point x="260" y="226" type="curve" smooth="yes"/>
      <point x="376" y="226"/>
      <point x="431" y="120"/>
      <point x="431" y="-37" type="curve" smooth="yes"/>
      <point x="431" y="-150"/>
      <point x="399" y="-261"/>
      <point x="327" y="-367" type="curve" smooth="yes"/>
      <point x="265" y="-459"/>
      <point x="139" y="-531"/>
      <point x="15" y="-602" type="curve" smooth="yes"/>
      <point x="6" y="-607"/>
      <point x="0" y="-612"/>
      <point x="0" y="-620" type="curve" smooth="yes"/>
      <point x="0" y="-626"/>
      <point x="4" y="-632"/>
      <point x="13" y="-632" type="curve" smooth="yes"/>
      <point x="18" y="-632"/>
      <point x="24" y="-630"/>
      <point x="30" y="-627" type="curve" smooth="yes"/>
      <point x="166" y="-562"/>
      <point x="284" y="-503"/>
      <point x="403" y="-376" type="curve" smooth="yes"/>
      <point x="500" y="-273"/>
      <point x="544" y="-137"/>
      <point x="543" y="-25" type="curve" smooth="yes"/>
      <point x="542" y="69"/>
      <point x="450" y="258"/>
    </contour>
    <contour>
      <point x="646" y="-71" type="curve" smooth="yes"/>
      <point x="615" y="-71"/>
      <point x="592" y="-94"/>
      <point x="592" y="-125" type="curve" smooth="yes"/>
      <point x="592" y="-156"/>
      <point x="615" y="-179"/>
      <point x="646" y="-179" type="curve" smooth="yes"/>
      <point x="677" y="-179"/>
      <point x="700" y="-156"/>
      <point x="700" y="-125" type="curve" smooth="yes"/>
      <point x="700" y="-94"/>
      <point x="677" y="-71"/>
    </contour>
    <contour>
      <point x="647" y="150" type="curve" smooth="yes"/>
      <point x="616" y="150"/>
      <point x="592" y="126"/>
      <point x="592" y="95" type="curve" smooth="yes"/>
      <point x="592" y="64"/>
      <point x="616" y="40"/>
      <point x="647" y="40" type="curve" smooth="yes"/>
      <point x="678" y="40"/>
      <point x="702" y="64"/>
      <point x="702" y="95" type="curve" smooth="yes"/>
      <point x="702" y="126"/>
      <point x="678" y="150"/>
    </contour>
    <contour>
      <point x="274" y="242" type="curve"/>
      <point x="308" y="242" type="line"/>
      <point x="308" y="333"/>
      <point x="308" y="326"/>
      <point x="308" y="332" type="curve" smooth="yes"/>
      <point x="308" y="342"/>
      <point x="312" y="350"/>
      <point x="317" y="348" type="curve" smooth="yes"/>
      <point x="388" y="316" type="line" smooth="yes"/>
      <point x="395" y="313"/>
      <point x="399" y="322"/>
      <point x="396" y="330" type="curve" smooth="yes"/>
      <point x="293" y="585" type="line" smooth="yes"/>
      <point x="291" y="590"/>
      <point x="287" y="593"/>
      <point x="286" y="593" type="curve" smooth="yes"/>
      <point x="284" y="594"/>
      <point x="283" y="591"/>
      <point x="281" y="586" type="curve" smooth="yes"/>
      <point x="193" y="332" type="line" smooth="yes"/>
      <point x="190" y="324"/>
      <point x="194" y="315"/>
      <point x="201" y="318" type="curve"/>
      <point x="265" y="347" type="line" smooth="yes"/>
      <point x="268" y="348"/>
      <point x="274" y="343"/>
      <point x="274" y="333" type="curve" smooth="yes"/>
      <point x="274" y="290"/>
      <point x="274" y="321"/>
    </contour>
  </outline>
</glyph>
<glyph name="fClefArrowDown" format="2">
  <advance width="702"/>
  <unicode hex="E068"/>
  <note>
uniE062
</note>
  <outline>
    <contour>
      <point x="287" y="258" type="curve" smooth="yes"/>
      <point x="113" y="258"/>
      <point x="36" y="105"/>
      <point x="36" y="39" type="curve" smooth="yes"/>
      <point x="36" y="-41"/>
      <point x="88" y="-103"/>
      <point x="159" y="-103" type="curve" smooth="yes"/>
      <point x="222" y="-103"/>
      <point x="254" y="-66"/>
      <point x="254" y="-4" type="curve" smooth="yes"/>
      <point x="254" y="50"/>
      <point x="212" y="93"/>
      <point x="173" y="93" type="curve" smooth="yes"/>
      <point x="146" y="93"/>
      <point x="132" y="93"/>
      <point x="119" y="93" type="curve" smooth="yes"/>
      <point x="106" y="93"/>
      <point x="103" y="101"/>
      <point x="103" y="111" type="curve" smooth="yes"/>
      <point x="103" y="131"/>
      <point x="158" y="226"/>
      <point x="260" y="226" type="curve" smooth="yes"/>
      <point x="376" y="226"/>
      <point x="431" y="120"/>
      <point x="431" y="-37" type="curve" smooth="yes"/>
      <point x="431" y="-150"/>
      <point x="399" y="-261"/>
      <point x="327" y="-367" type="curve" smooth="yes"/>
      <point x="265" y="-459"/>
      <point x="139" y="-531"/>
      <point x="15" y="-602" type="curve" smooth="yes"/>
      <point x="6" y="-607"/>
      <point x="0" y="-612"/>
      <point x="0" y="-620" type="curve" smooth="yes"/>
      <point x="0" y="-626"/>
      <point x="4" y="-632"/>
      <point x="13" y="-632" type="curve" smooth="yes"/>
      <point x="18" y="-632"/>
      <point x="24" y="-630"/>
      <point x="30" y="-627" type="curve" smooth="yes"/>
      <point x="166" y="-562"/>
      <point x="284" y="-503"/>
      <point x="403" y="-376" type="curve" smooth="yes"/>
      <point x="500" y="-273"/>
      <point x="544" y="-137"/>
      <point x="543" y="-25" type="curve" smooth="yes"/>
      <point x="542" y="69"/>
      <point x="450" y="258"/>
    </contour>
    <contour>
      <point x="646" y="-71" type="curve" smooth="yes"/>
      <point x="615" y="-71"/>
      <point x="592" y="-94"/>
      <point x="592" y="-125" type="curve" smooth="yes"/>
      <point x="592" y="-156"/>
      <point x="615" y="-179"/>
      <point x="646" y="-179" type="curve" smooth="yes"/>
      <point x="677" y="-179"/>
      <point x="700" y="-156"/>
      <point x="700" y="-125" type="curve" smooth="yes"/>
      <point x="700" y="-94"/>
      <point x="677" y="-71"/>
    </contour>
    <contour>
      <point x="647" y="150" type="curve" smooth="yes"/>
      <point x="616" y="150"/>
      <point x="592" y="126"/>
      <point x="592" y="95" type="curve" smooth="yes"/>
      <point x="592" y="64"/>
      <point x="616" y="40"/>
      <point x="647" y="40" type="curve" smooth="yes"/>
      <point x="678" y="40"/>
      <point x="702" y="64"/>
      <point x="702" y="95" type="curve" smooth="yes"/>
      <point x="702" y="126"/>
      <point x="678" y="150"/>
    </contour>
    <contour>
      <point x="274" y="-437" type="line"/>
      <point x="274" y="-516"/>
      <point x="274" y="-545"/>
      <point x="274" y="-588" type="curve" smooth="yes"/>
      <point x="274" y="-598"/>
      <point x="268" y="-603"/>
      <point x="265" y="-602" type="curve" smooth="yes"/>
      <point x="201" y="-573" type="line"/>
      <point x="194" y="-570"/>
      <point x="190" y="-579"/>
      <point x="193" y="-587" type="curve" smooth="yes"/>
      <point x="281" y="-841" type="line" smooth="yes"/>
      <point x="283" y="-846"/>
      <point x="284" y="-849"/>
      <point x="286" y="-848" type="curve" smooth="yes"/>
      <point x="287" y="-848"/>
      <point x="291" y="-845"/>
      <point x="293" y="-840" type="curve" smooth="yes"/>
      <point x="396" y="-585" type="line" smooth="yes"/>
      <point x="399" y="-577"/>
      <point x="395" y="-568"/>
      <point x="388" y="-571" type="curve" smooth="yes"/>
      <point x="317" y="-603" type="line" smooth="yes"/>
      <point x="312" y="-605"/>
      <point x="308" y="-597"/>
      <point x="308" y="-587" type="curve" smooth="yes"/>
      <point x="308" y="-581"/>
      <point x="308" y="-528"/>
      <point x="308" y="-437" type="curve"/>
    </contour>
  </outline>
</glyph>
<glyph name="unpitchedPercussionClef1" format="2">
  <advance width="362"/>
  <unicode hex="E069"/>
  <note>
uniE069
</note>
  <outline>
    <contour>
      <point x="140" y="-235" type="curve" smooth="yes"/>
      <point x="140" y="235" type="line" smooth="yes"/>
      <point x="140" y="243"/>
      <point x="134" y="250"/>
      <point x="126" y="250" type="curve" smooth="yes"/>
      <point x="14" y="250" type="line" smooth="yes"/>
      <point x="6" y="250"/>
      <point x="0" y="243"/>
      <point x="0" y="235" type="curve" smooth="yes"/>
      <point x="0" y="-235" type="line" smooth="yes"/>
      <point x="0" y="-243"/>
      <point x="6" y="-250"/>
      <point x="14" y="-250" type="curve" smooth="yes"/>
      <point x="126" y="-250" type="line" smooth="yes"/>
      <point x="134" y="-250"/>
      <point x="140" y="-243"/>
    </contour>
    <contour>
      <point x="362" y="-235" type="curve" smooth="yes"/>
      <point x="362" y="235" type="line" smooth="yes"/>
      <point x="362" y="243"/>
      <point x="356" y="250"/>
      <point x="348" y="250" type="curve" smooth="yes"/>
      <point x="236" y="250" type="line" smooth="yes"/>
      <point x="228" y="250"/>
      <point x="222" y="243"/>
      <point x="222" y="235" type="curve" smooth="yes"/>
      <point x="222" y="-235" type="line" smooth="yes"/>
      <point x="222" y="-243"/>
      <point x="228" y="-250"/>
      <point x="236" y="-250" type="curve" smooth="yes"/>
      <point x="348" y="-250" type="line" smooth="yes"/>
      <point x="356" y="-250"/>
      <point x="362" y="-243"/>
    </contour>
  </outline>
</glyph>
<glyph name="unpitchedPercussionClef2" format="2">
  <advance width="304"/>
  <unicode hex="E06A"/>
  <note>
uniE06A
</note>
  <outline>
    <contour>
      <point x="304" y="-450" type="curve" smooth="yes"/>
      <point x="304" y="446" type="line" smooth="yes"/>
      <point x="304" y="454"/>
      <point x="297" y="461"/>
      <point x="288" y="461" type="curve" smooth="yes"/>
      <point x="16" y="461" type="line" smooth="yes"/>
      <point x="7" y="461"/>
      <point x="0" y="454"/>
      <point x="0" y="446" type="curve" smooth="yes"/>
      <point x="0" y="-450" type="line" smooth="yes"/>
      <point x="0" y="-458"/>
      <point x="7" y="-465"/>
      <point x="16" y="-465" type="curve" smooth="yes"/>
      <point x="288" y="-465" type="line" smooth="yes"/>
      <point x="297" y="-465"/>
      <point x="304" y="-458"/>
    </contour>
    <contour>
      <point x="268" y="364" type="curve" smooth="yes"/>
      <point x="268" y="-368" type="line" smooth="yes"/>
      <point x="268" y="-376"/>
      <point x="261" y="-383"/>
      <point x="253" y="-383" type="curve" smooth="yes"/>
      <point x="51" y="-383" type="line" smooth="yes"/>
      <point x="43" y="-383"/>
      <point x="36" y="-376"/>
      <point x="36" y="-368" type="curve" smooth="yes"/>
      <point x="36" y="364" type="line" smooth="yes"/>
      <point x="36" y="372"/>
      <point x="43" y="379"/>
      <point x="51" y="379" type="curve" smooth="yes"/>
      <point x="253" y="379" type="line" smooth="yes"/>
      <point x="261" y="379"/>
      <point x="268" y="372"/>
    </contour>
  </outline>
</glyph>
<glyph name="clef8" format="2">
  <advance width="233"/>
  <unicode hex="E07D"/>
  <note>
uniE07D
</note>
  <outline>
    <contour>
      <point x="91" y="0" type="curve" smooth="yes"/>
      <point x="154" y="0"/>
      <point x="195" y="20"/>
      <point x="195" y="78" type="curve" smooth="yes"/>
      <point x="195" y="91"/>
      <point x="190" y="101"/>
      <point x="182" y="110" type="curve" smooth="yes"/>
      <point x="181" y="111"/>
      <point x="176" y="116"/>
      <point x="176" y="118" type="curve" smooth="yes"/>
      <point x="176" y="120"/>
      <point x="179" y="121"/>
      <point x="184" y="125" type="curve"/>
      <point x="223" y="149"/>
      <point x="233" y="164"/>
      <point x="233" y="183" type="curve" smooth="yes"/>
      <point x="233" y="221"/>
      <point x="186" y="247"/>
      <point x="145" y="247" type="curve" smooth="yes"/>
      <point x="98" y="247"/>
      <point x="52" y="214"/>
      <point x="52" y="179" type="curve" smooth="yes"/>
      <point x="52" y="158"/>
      <point x="55" y="149"/>
      <point x="59" y="140" type="curve" smooth="yes"/>
      <point x="60" y="137"/>
      <point x="63" y="133"/>
      <point x="63" y="132" type="curve" smooth="yes"/>
      <point x="63" y="128"/>
      <point x="60" y="127"/>
      <point x="56" y="125" type="curve" smooth="yes"/>
      <point x="21" y="108"/>
      <point x="0" y="87"/>
      <point x="0" y="62" type="curve" smooth="yes"/>
      <point x="0" y="27"/>
      <point x="35" y="0"/>
    </contour>
    <contour>
      <point x="93" y="18" type="curve" smooth="yes"/>
      <point x="49" y="18"/>
      <point x="35" y="32"/>
      <point x="35" y="57" type="curve" smooth="yes"/>
      <point x="35" y="77"/>
      <point x="58" y="99"/>
      <point x="79" y="112" type="curve" smooth="yes"/>
      <point x="82" y="114"/>
      <point x="83" y="114"/>
      <point x="84" y="114" type="curve" smooth="yes"/>
      <point x="89" y="114"/>
      <point x="91" y="114"/>
      <point x="96" y="109" type="curve"/>
      <point x="130" y="83"/>
      <point x="147" y="67"/>
      <point x="147" y="57" type="curve" smooth="yes"/>
      <point x="147" y="30"/>
      <point x="117" y="18"/>
    </contour>
    <contour>
      <point x="163" y="149" type="curve" smooth="yes"/>
      <point x="150" y="148"/>
      <point x="139" y="149"/>
      <point x="132" y="154" type="curve" smooth="yes"/>
      <point x="119" y="166"/>
      <point x="108" y="177"/>
      <point x="109" y="185" type="curve" smooth="yes"/>
      <point x="111" y="209"/>
      <point x="128" y="224"/>
      <point x="152" y="224" type="curve" smooth="yes"/>
      <point x="177" y="224"/>
      <point x="200" y="208"/>
      <point x="200" y="191" type="curve" smooth="yes"/>
      <point x="200" y="179"/>
      <point x="175" y="150"/>
    </contour>
  </outline>
</glyph>
<glyph name="timeSig0" format="2">
  <advance width="350"/>
  <unicode hex="E080"/>
  <note>
uniE080
</note>
  <outline>
    <contour>
      <point x="330" y="0" type="curve" smooth="yes"/>
      <point x="330" y="139"/>
      <point x="264" y="251"/>
      <point x="175" y="251" type="curve" smooth="yes"/>
      <point x="86" y="251"/>
      <point x="20" y="139"/>
      <point x="20" y="0" type="curve" smooth="yes"/>
      <point x="20" y="-138"/>
      <point x="96" y="-250"/>
      <point x="175" y="-250" type="curve" smooth="yes"/>
      <point x="264" y="-250"/>
      <point x="330" y="-138"/>
    </contour>
    <contour>
      <point x="175" y="220" type="curve" smooth="yes"/>
      <point x="223" y="220"/>
      <point x="250" y="125"/>
      <point x="250" y="7" type="curve" smooth="yes"/>
      <point x="250" y="-130"/>
      <point x="236" y="-205"/>
      <point x="175" y="-205" type="curve" smooth="yes"/>
      <point x="113" y="-205"/>
      <point x="100" y="-110"/>
      <point x="100" y="7" type="curve" smooth="yes"/>
      <point x="100" y="125"/>
      <point x="126" y="220"/>
    </contour>
  </outline>
</glyph>
<glyph name="timeSig1" format="2">
  <advance width="331"/>
  <unicode hex="E081"/>
  <outline>
    <contour>
      <point x="143" y="195" type="curve" smooth="yes"/>
      <point x="115" y="149"/>
      <point x="26" y="143"/>
      <point x="26" y="134" type="curve" smooth="yes"/>
      <point x="26" y="129"/>
      <point x="33" y="119"/>
      <point x="41" y="120" type="curve" smooth="yes"/>
      <point x="81" y="127"/>
      <point x="94" y="130"/>
      <point x="112" y="135" type="curve" smooth="yes"/>
      <point x="120" y="137"/>
      <point x="123" y="137"/>
      <point x="129" y="139" type="curve" smooth="yes"/>
      <point x="133" y="140"/>
      <point x="134" y="137"/>
      <point x="134" y="131" type="curve" smooth="yes"/>
      <point x="134" y="-206" type="line" smooth="yes"/>
      <point x="134" y="-219"/>
      <point x="58" y="-218"/>
      <point x="37" y="-218" type="curve" smooth="yes"/>
      <point x="30" y="-218"/>
      <point x="20" y="-221"/>
      <point x="20" y="-230" type="curve" smooth="yes"/>
      <point x="20" y="-241"/>
      <point x="29" y="-246"/>
      <point x="42" y="-246" type="curve" smooth="yes"/>
      <point x="299" y="-246" type="line" smooth="yes"/>
      <point x="311" y="-246"/>
      <point x="311" y="-233"/>
      <point x="311" y="-233" type="curve" smooth="yes"/>
      <point x="311" y="-226"/>
      <point x="306" y="-218"/>
      <point x="291" y="-218" type="curve" smooth="yes"/>
      <point x="277" y="-218"/>
      <point x="219" y="-217"/>
      <point x="219" y="-206" type="curve" smooth="yes"/>
      <point x="219" y="219" type="line" smooth="yes"/>
      <point x="219" y="232"/>
      <point x="215" y="235"/>
      <point x="201" y="236" type="curve" smooth="yes"/>
      <point x="200" y="236"/>
      <point x="161" y="236"/>
      <point x="158" y="233" type="curve" smooth="yes"/>
      <point x="154" y="229"/>
      <point x="148" y="204"/>
    </contour>
  </outline>
</glyph>
<glyph name="timeSig2" format="2">
  <advance width="419"/>
  <unicode hex="E082"/>
  <note>
uniE082
</note>
  <outline>
    <contour>
      <point x="399" y="-107" type="curve"/>
      <point x="399" y="-96"/>
      <point x="386" y="-93"/>
      <point x="380" y="-93" type="curve" smooth="yes"/>
      <point x="372" y="-93"/>
      <point x="370" y="-97"/>
      <point x="368" y="-102" type="curve"/>
      <point x="368" y="-103"/>
      <point x="368" y="-104"/>
      <point x="368" y="-105" type="curve"/>
      <point x="359" y="-127"/>
      <point x="314" y="-178"/>
      <point x="295" y="-178" type="curve" smooth="yes"/>
      <point x="280" y="-178"/>
      <point x="272" y="-165"/>
      <point x="262" y="-156" type="curve" smooth="yes"/>
      <point x="247" y="-144"/>
      <point x="198" y="-115"/>
      <point x="180" y="-111" type="curve" smooth="yes"/>
      <point x="165" y="-107"/>
      <point x="149" y="-106"/>
      <point x="138" y="-103" type="curve"/>
      <point x="171" y="-70"/>
      <point x="237" y="-49"/>
      <point x="256" y="-45" type="curve" smooth="yes"/>
      <point x="269" y="-41"/>
      <point x="326" y="-22"/>
      <point x="356" y="2" type="curve" smooth="yes"/>
      <point x="376" y="19"/>
      <point x="394" y="46"/>
      <point x="394" y="87" type="curve" smooth="yes"/>
      <point x="394" y="129"/>
      <point x="376" y="161"/>
      <point x="353" y="181" type="curve" smooth="yes"/>
      <point x="309" y="221"/>
      <point x="220" y="229"/>
      <point x="200" y="229" type="curve" smooth="yes"/>
      <point x="176" y="229"/>
      <point x="147" y="228"/>
      <point x="125" y="221" type="curve" smooth="yes"/>
      <point x="96" y="212"/>
      <point x="82" y="202"/>
      <point x="62" y="175" type="curve" smooth="yes"/>
      <point x="48" y="156"/>
      <point x="37" y="132"/>
      <point x="37" y="108" type="curve" smooth="yes"/>
      <point x="37" y="95"/>
      <point x="40" y="82"/>
      <point x="46" y="68" type="curve" smooth="yes"/>
      <point x="58" y="40"/>
      <point x="85" y="17"/>
      <point x="117" y="17" type="curve" smooth="yes"/>
      <point x="171" y="17"/>
      <point x="178" y="76"/>
      <point x="178" y="99" type="curve" smooth="yes"/>
      <point x="178" y="135"/>
      <point x="136" y="148"/>
      <point x="136" y="166" type="curve"/>
      <point x="137" y="178"/>
      <point x="153" y="202"/>
      <point x="187" y="202" type="curve" smooth="yes"/>
      <point x="282" y="202"/>
      <point x="295" y="133"/>
      <point x="295" y="107" type="curve" smooth="yes"/>
      <point x="295" y="72"/>
      <point x="290" y="34"/>
      <point x="266" y="13" type="curve" smooth="yes"/>
      <point x="217" y="-31"/>
      <point x="159" y="-38"/>
      <point x="116" y="-66" type="curve" smooth="yes"/>
      <point x="68" y="-97"/>
      <point x="35" y="-148"/>
      <point x="20" y="-207" type="curve"/>
      <point x="20" y="-208"/>
      <point x="20" y="-210"/>
      <point x="20" y="-212" type="curve" smooth="yes"/>
      <point x="20" y="-223"/>
      <point x="24" y="-235"/>
      <point x="35" y="-241" type="curve" smooth="yes"/>
      <point x="47" y="-248"/>
      <point x="57" y="-244"/>
      <point x="59" y="-243" type="curve" smooth="yes"/>
      <point x="78" y="-237"/>
      <point x="63" y="-160"/>
      <point x="124" y="-160" type="curve" smooth="yes"/>
      <point x="158" y="-160"/>
      <point x="204" y="-248"/>
      <point x="282" y="-248" type="curve" smooth="yes"/>
      <point x="320" y="-248"/>
      <point x="385" y="-231"/>
    </contour>
  </outline>
</glyph>
<glyph name="timeSig3" format="2">
  <advance width="359"/>
  <unicode hex="E083"/>
  <note>
uniE083
</note>
  <outline>
    <contour>
      <point x="225" y="242" type="curve" smooth="yes"/>
      <point x="200" y="245"/>
      <point x="186" y="245"/>
      <point x="181" y="245" type="curve" smooth="yes"/>
      <point x="102" y="245"/>
      <point x="45" y="216"/>
      <point x="45" y="167" type="curve" smooth="yes"/>
      <point x="45" y="141"/>
      <point x="71" y="118"/>
      <point x="90" y="118" type="curve" smooth="yes"/>
      <point x="121" y="118"/>
      <point x="137" y="133"/>
      <point x="137" y="146" type="curve" smooth="yes"/>
      <point x="137" y="164"/>
      <point x="131" y="171"/>
      <point x="127" y="173" type="curve" smooth="yes"/>
      <point x="122" y="175"/>
      <point x="110" y="182"/>
      <point x="120" y="192" type="curve" smooth="yes"/>
      <point x="123" y="195" type="line" smooth="yes"/>
      <point x="137" y="209"/>
      <point x="152" y="220"/>
      <point x="191" y="220" type="curve" smooth="yes"/>
      <point x="250" y="220"/>
      <point x="252" y="161"/>
      <point x="252" y="138" type="curve" smooth="yes"/>
      <point x="252" y="92" type="line" smooth="yes"/>
      <point x="252" y="34"/>
      <point x="204" y="37"/>
      <point x="146" y="36" type="curve" smooth="yes"/>
      <point x="106" y="35"/>
      <point x="103" y="28"/>
      <point x="103" y="18" type="curve" smooth="yes"/>
      <point x="103" y="7"/>
      <point x="119" y="2"/>
      <point x="126" y="2" type="curve" smooth="yes"/>
      <point x="233" y="2"/>
      <point x="258" y="-79"/>
      <point x="258" y="-111" type="curve" smooth="yes"/>
      <point x="258" y="-159"/>
      <point x="253" y="-196"/>
      <point x="213" y="-205" type="curve" smooth="yes"/>
      <point x="196" y="-209"/>
      <point x="151" y="-204"/>
      <point x="150" y="-204" type="curve" smooth="yes"/>
      <point x="131" y="-203"/>
      <point x="108" y="-194"/>
      <point x="107" y="-180" type="curve" smooth="yes"/>
      <point x="107" y="-176" type="line" smooth="yes"/>
      <point x="107" y="-153"/>
      <point x="126" y="-148"/>
      <point x="127" y="-122" type="curve" smooth="yes"/>
      <point x="127" y="-112"/>
      <point x="126" y="-101"/>
      <point x="119" y="-90" type="curve" smooth="yes"/>
      <point x="109" y="-74"/>
      <point x="95" y="-71"/>
      <point x="80" y="-70" type="curve" smooth="yes"/>
      <point x="77" y="-70"/>
      <point x="74" y="-70"/>
      <point x="70" y="-71" type="curve" smooth="yes"/>
      <point x="54" y="-74"/>
      <point x="46" y="-78"/>
      <point x="34" y="-88" type="curve" smooth="yes"/>
      <point x="19" y="-100"/>
      <point x="19" y="-121"/>
      <point x="21" y="-136" type="curve"/>
      <point x="22" y="-188"/>
      <point x="84" y="-233"/>
      <point x="174" y="-235" type="curve" smooth="yes"/>
      <point x="183" y="-235" type="line" smooth="yes"/>
      <point x="274" y="-235"/>
      <point x="339" y="-182"/>
      <point x="339" y="-101" type="curve" smooth="yes"/>
      <point x="339" y="-94" type="line" smooth="yes"/>
      <point x="339" y="-81"/>
      <point x="335" y="-68"/>
      <point x="331" y="-56" type="curve" smooth="yes"/>
      <point x="327" y="-44"/>
      <point x="322" y="-37"/>
      <point x="314" y="-29" type="curve" smooth="yes"/>
      <point x="302" y="-17"/>
      <point x="298" y="-14"/>
      <point x="278" y="3" type="curve"/>
      <point x="273" y="8"/>
      <point x="264" y="17"/>
      <point x="261" y="22" type="curve" smooth="yes"/>
      <point x="260" y="24"/>
      <point x="260" y="25"/>
      <point x="260" y="27" type="curve" smooth="yes"/>
      <point x="260" y="30"/>
      <point x="262" y="33"/>
      <point x="265" y="35" type="curve" smooth="yes"/>
      <point x="274" y="41"/>
      <point x="284" y="42"/>
      <point x="293" y="46" type="curve" smooth="yes"/>
      <point x="307" y="53"/>
      <point x="314" y="59"/>
      <point x="322" y="70" type="curve" smooth="yes"/>
      <point x="334" y="85"/>
      <point x="336" y="106"/>
      <point x="336" y="127" type="curve" smooth="yes"/>
      <point x="336" y="187"/>
      <point x="264" y="237"/>
    </contour>
  </outline>
</glyph>
<glyph name="timeSig4" format="2">
  <advance width="415"/>
  <unicode hex="E084"/>
  <note>
uniE084
</note>
  <outline>
    <contour>
      <point x="380" y="-84" type="curve" smooth="yes"/>
      <point x="307" y="-84" type="line"/>
      <point x="307" y="53" type="line" smooth="yes"/>
      <point x="307" y="61"/>
      <point x="306" y="70"/>
      <point x="295" y="70" type="curve" smooth="yes"/>
      <point x="286" y="70"/>
      <point x="282" y="67"/>
      <point x="275" y="61" type="curve" smooth="yes"/>
      <point x="217" y="6" type="line" smooth="yes"/>
      <point x="212" y="2"/>
      <point x="208" y="-5"/>
      <point x="208" y="-17" type="curve" smooth="yes"/>
      <point x="208" y="-84" type="line"/>
      <point x="72" y="-84" type="line"/>
      <point x="132" y="-16"/>
      <point x="248" y="167"/>
      <point x="301" y="222" type="curve"/>
      <point x="303" y="224"/>
      <point x="303" y="225"/>
      <point x="303" y="227" type="curve" smooth="yes"/>
      <point x="303" y="235"/>
      <point x="296" y="241"/>
      <point x="288" y="241" type="curve" smooth="yes"/>
      <point x="279" y="241"/>
      <point x="252" y="239"/>
      <point x="234" y="239" type="curve" smooth="yes"/>
      <point x="216" y="239"/>
      <point x="189" y="241"/>
      <point x="181" y="241" type="curve" smooth="yes"/>
      <point x="172" y="241"/>
      <point x="167" y="238"/>
      <point x="167" y="222" type="curve" smooth="yes"/>
      <point x="167" y="122"/>
      <point x="60" y="-41"/>
      <point x="30" y="-83" type="curve" smooth="yes"/>
      <point x="24" y="-91" type="line"/>
      <point x="24" y="-92"/>
      <point x="23" y="-93"/>
      <point x="23" y="-94" type="curve"/>
      <point x="21" y="-98"/>
      <point x="20" y="-102"/>
      <point x="20" y="-105" type="curve" smooth="yes"/>
      <point x="20" y="-115"/>
      <point x="28" y="-122"/>
      <point x="40" y="-122" type="curve" smooth="yes"/>
      <point x="208" y="-122" type="line"/>
      <point x="208" y="-185" type="line" smooth="yes"/>
      <point x="208" y="-212"/>
      <point x="186" y="-220"/>
      <point x="168" y="-220" type="curve" smooth="yes"/>
      <point x="152" y="-220"/>
      <point x="145" y="-229"/>
      <point x="145" y="-239" type="curve" smooth="yes"/>
      <point x="145" y="-249"/>
      <point x="149" y="-260"/>
      <point x="164" y="-260" type="curve" smooth="yes"/>
      <point x="340" y="-260" type="line" smooth="yes"/>
      <point x="350" y="-260"/>
      <point x="360" y="-253"/>
      <point x="360" y="-239" type="curve" smooth="yes"/>
      <point x="360" y="-225"/>
      <point x="348" y="-219"/>
      <point x="338" y="-219" type="curve" smooth="yes"/>
      <point x="328" y="-219"/>
      <point x="307" y="-213"/>
      <point x="307" y="-181" type="curve" smooth="yes"/>
      <point x="307" y="-122" type="line"/>
      <point x="380" y="-122" type="line" smooth="yes"/>
      <point x="390" y="-122"/>
      <point x="395" y="-115"/>
      <point x="395" y="-103" type="curve" smooth="yes"/>
      <point x="395" y="-91"/>
      <point x="391" y="-84"/>
    </contour>
  </outline>
</glyph>
<glyph name="timeSig5" format="2">
  <advance width="333"/>
  <unicode hex="E085"/>
  <note>
uniE085
</note>
  <outline>
    <contour>
      <point x="84" y="63" type="curve" smooth="yes"/>
      <point x="84" y="67" type="line"/>
      <point x="84" y="67"/>
      <point x="83" y="149"/>
      <point x="84" y="158" type="curve" smooth="yes"/>
      <point x="85" y="166"/>
      <point x="91" y="171"/>
      <point x="101" y="171" type="curve" smooth="yes"/>
      <point x="105" y="171" type="line"/>
      <point x="115" y="169"/>
      <point x="167" y="161"/>
      <point x="203" y="161" type="curve" smooth="yes"/>
      <point x="233" y="161"/>
      <point x="303" y="214"/>
      <point x="303" y="231" type="curve" smooth="yes"/>
      <point x="303" y="244"/>
      <point x="295" y="249"/>
      <point x="283" y="246" type="curve" smooth="yes"/>
      <point x="270" y="243"/>
      <point x="245" y="203"/>
      <point x="200" y="203" type="curve" smooth="yes"/>
      <point x="172" y="203"/>
      <point x="166" y="228"/>
      <point x="144" y="237" type="curve" smooth="yes"/>
      <point x="124" y="245"/>
      <point x="101" y="246"/>
      <point x="81" y="246" type="curve" smooth="yes"/>
      <point x="62" y="246"/>
      <point x="56" y="237"/>
      <point x="56" y="229" type="curve" smooth="yes"/>
      <point x="56" y="2" type="line"/>
      <point x="56" y="0" type="line" smooth="yes"/>
      <point x="56" y="-13"/>
      <point x="60" y="-15"/>
      <point x="71" y="-15" type="curve" smooth="yes"/>
      <point x="81" y="-15"/>
      <point x="85" y="-2"/>
      <point x="85" y="14" type="curve" smooth="yes"/>
      <point x="85" y="27"/>
      <point x="121" y="44"/>
      <point x="158" y="44" type="curve" smooth="yes"/>
      <point x="194" y="44"/>
      <point x="231" y="25"/>
      <point x="231" y="-89" type="curve" smooth="yes"/>
      <point x="231" y="-201"/>
      <point x="178" y="-223"/>
      <point x="151" y="-223" type="curve" smooth="yes"/>
      <point x="143" y="-223"/>
      <point x="116" y="-220"/>
      <point x="109" y="-218" type="curve" smooth="yes"/>
      <point x="104" y="-217"/>
      <point x="72" y="-203"/>
      <point x="72" y="-196" type="curve" smooth="yes"/>
      <point x="72" y="-189"/>
      <point x="92" y="-187"/>
      <point x="104" y="-178" type="curve" smooth="yes"/>
      <point x="116" y="-170"/>
      <point x="123" y="-137"/>
      <point x="119" y="-121" type="curve" smooth="yes"/>
      <point x="114" y="-97"/>
      <point x="88" y="-91"/>
      <point x="75" y="-91" type="curve" smooth="yes"/>
      <point x="50" y="-91"/>
      <point x="24" y="-104"/>
      <point x="21" y="-140" type="curve" smooth="yes"/>
      <point x="20" y="-146"/>
      <point x="20" y="-152"/>
      <point x="20" y="-158" type="curve" smooth="yes"/>
      <point x="20" y="-212"/>
      <point x="63" y="-256"/>
      <point x="162" y="-256" type="curve" smooth="yes"/>
      <point x="225" y="-256"/>
      <point x="313" y="-180"/>
      <point x="313" y="-89" type="curve" smooth="yes"/>
      <point x="313" y="4"/>
      <point x="233" y="76"/>
      <point x="201" y="78" type="curve" smooth="yes"/>
      <point x="150" y="81"/>
      <point x="128" y="77"/>
      <point x="95" y="57" type="curve" smooth="yes"/>
      <point x="92" y="56"/>
      <point x="89" y="56"/>
      <point x="88" y="56" type="curve" smooth="yes"/>
      <point x="84" y="56"/>
      <point x="84" y="60"/>
    </contour>
  </outline>
</glyph>
<glyph name="timeSig6" format="2">
  <advance width="370"/>
  <unicode hex="E086"/>
  <note>
uniE086
</note>
  <outline>
    <contour>
      <point x="213" y="-241" type="curve" smooth="yes"/>
      <point x="263" y="-241"/>
      <point x="303" y="-215"/>
      <point x="321" y="-192" type="curve" smooth="yes"/>
      <point x="335" y="-174"/>
      <point x="351" y="-132"/>
      <point x="350" y="-83" type="curve" smooth="yes"/>
      <point x="349" y="-12"/>
      <point x="312" y="20"/>
      <point x="296" y="32" type="curve" smooth="yes"/>
      <point x="270" y="52"/>
      <point x="251" y="60"/>
      <point x="216" y="60" type="curve" smooth="yes"/>
      <point x="169" y="60"/>
      <point x="152" y="49"/>
      <point x="126" y="30" type="curve"/>
      <point x="124" y="29"/>
      <point x="115" y="25"/>
      <point x="112" y="28" type="curve" smooth="yes"/>
      <point x="109" y="31"/>
      <point x="112" y="97"/>
      <point x="115" y="112" type="curve" smooth="yes"/>
      <point x="125" y="162"/>
      <point x="165" y="220"/>
      <point x="213" y="220" type="curve" smooth="yes"/>
      <point x="232" y="220"/>
      <point x="262" y="218"/>
      <point x="262" y="208" type="curve" smooth="yes"/>
      <point x="262" y="194"/>
      <point x="261" y="190"/>
      <point x="256" y="180" type="curve" smooth="yes"/>
      <point x="252" y="171"/>
      <point x="251" y="165"/>
      <point x="251" y="155" type="curve" smooth="yes"/>
      <point x="251" y="141"/>
      <point x="254" y="129"/>
      <point x="260" y="121" type="curve" smooth="yes"/>
      <point x="266" y="112"/>
      <point x="275" y="108"/>
      <point x="289" y="107" type="curve" smooth="yes"/>
      <point x="302" y="106"/>
      <point x="318" y="107"/>
      <point x="326" y="114" type="curve" smooth="yes"/>
      <point x="334" y="121"/>
      <point x="335" y="147"/>
      <point x="334" y="162" type="curve" smooth="yes"/>
      <point x="332" y="185"/>
      <point x="328" y="197"/>
      <point x="319" y="210" type="curve" smooth="yes"/>
      <point x="310" y="222"/>
      <point x="303" y="227"/>
      <point x="292" y="233" type="curve" smooth="yes"/>
      <point x="270" y="243"/>
      <point x="246" y="246"/>
      <point x="223" y="246" type="curve" smooth="yes"/>
      <point x="154" y="245"/>
      <point x="105" y="192"/>
      <point x="74" y="147" type="curve" smooth="yes"/>
      <point x="32" y="87"/>
      <point x="20" y="32"/>
      <point x="20" y="4" type="curve" smooth="yes"/>
      <point x="20" y="-31"/>
      <point x="20" y="-59"/>
      <point x="45" y="-120" type="curve" smooth="yes"/>
      <point x="62" y="-162"/>
      <point x="78" y="-188"/>
      <point x="117" y="-217" type="curve" smooth="yes"/>
      <point x="138" y="-233"/>
      <point x="169" y="-241"/>
    </contour>
    <contour>
      <point x="197" y="-219" type="curve" smooth="yes"/>
      <point x="167" y="-219"/>
      <point x="113" y="-189"/>
      <point x="113" y="-108" type="curve" smooth="yes"/>
      <point x="113" y="-22"/>
      <point x="185" y="4"/>
      <point x="213" y="2" type="curve" smooth="yes"/>
      <point x="247" y="0"/>
      <point x="262" y="-13"/>
      <point x="278" y="-38" type="curve" smooth="yes"/>
      <point x="289" y="-55"/>
      <point x="286" y="-129"/>
      <point x="281" y="-149" type="curve" smooth="yes"/>
      <point x="273" y="-182"/>
      <point x="250" y="-219"/>
    </contour>
  </outline>
</glyph>
<glyph name="timeSig7" format="2">
  <advance width="441"/>
  <unicode hex="E087"/>
  <note>
uniE087
</note>
  <outline>
    <contour>
      <point x="376" y="200" type="curve" smooth="yes"/>
      <point x="376" y="204" type="line" smooth="yes"/>
      <point x="376" y="231"/>
      <point x="376" y="244"/>
      <point x="363" y="244" type="curve" smooth="yes"/>
      <point x="362" y="244"/>
      <point x="350" y="240"/>
      <point x="347" y="233" type="curve" smooth="yes"/>
      <point x="341" y="221"/>
      <point x="330" y="164"/>
      <point x="311" y="164" type="curve" smooth="yes"/>
      <point x="291" y="164"/>
      <point x="255" y="249"/>
      <point x="191" y="249" type="curve" smooth="yes"/>
      <point x="146" y="249"/>
      <point x="133" y="227"/>
      <point x="123" y="213" type="curve" smooth="yes"/>
      <point x="112" y="198"/>
      <point x="109" y="194"/>
      <point x="103" y="193" type="curve" smooth="yes"/>
      <point x="97" y="193"/>
      <point x="90" y="224"/>
      <point x="86" y="234" type="curve" smooth="yes"/>
      <point x="85" y="238"/>
      <point x="80" y="241"/>
      <point x="76" y="241" type="curve" smooth="yes"/>
      <point x="72" y="241"/>
      <point x="67" y="238"/>
      <point x="67" y="229" type="curve" smooth="yes"/>
      <point x="60" y="49" type="line"/>
      <point x="59" y="49"/>
      <point x="60" y="33"/>
      <point x="74" y="33" type="curve" smooth="yes"/>
      <point x="80" y="33"/>
      <point x="85" y="42"/>
      <point x="88" y="53" type="curve" smooth="yes"/>
      <point x="96" y="78"/>
      <point x="109" y="168"/>
      <point x="144" y="168" type="curve" smooth="yes"/>
      <point x="175" y="168"/>
      <point x="234" y="145"/>
      <point x="279" y="145" type="curve" smooth="yes"/>
      <point x="301" y="145"/>
      <point x="303" y="145"/>
      <point x="309" y="144" type="curve" smooth="yes"/>
      <point x="312" y="144"/>
      <point x="316" y="142"/>
      <point x="318" y="141" type="curve" smooth="yes"/>
      <point x="321" y="140"/>
      <point x="322" y="136"/>
      <point x="322" y="130" type="curve"/>
      <point x="322" y="102"/>
      <point x="233" y="3"/>
      <point x="196" y="-78" type="curve" smooth="yes"/>
      <point x="174" y="-126"/>
      <point x="149" y="-180"/>
      <point x="149" y="-219" type="curve" smooth="yes"/>
      <point x="149" y="-240"/>
      <point x="149" y="-250"/>
      <point x="163" y="-250" type="curve" smooth="yes"/>
      <point x="177" y="-250"/>
      <point x="188" y="-251"/>
      <point x="208" y="-251" type="curve" smooth="yes"/>
      <point x="227" y="-251"/>
      <point x="244" y="-250"/>
      <point x="251" y="-250" type="curve" smooth="yes"/>
      <point x="259" y="-250"/>
      <point x="265" y="-202"/>
      <point x="265" y="-173" type="curve" smooth="yes"/>
      <point x="265" y="24"/>
      <point x="376" y="127"/>
    </contour>
  </outline>
</glyph>
<glyph name="timeSig8" format="2">
  <advance width="362"/>
  <unicode hex="E088"/>
  <note>
uniE088
</note>
  <outline>
    <contour>
      <point x="178" y="-249" type="curve" smooth="yes"/>
      <point x="252" y="-249"/>
      <point x="331" y="-197"/>
      <point x="341" y="-118" type="curve" smooth="yes"/>
      <point x="348" y="-65"/>
      <point x="307" y="-27"/>
      <point x="268" y="4" type="curve"/>
      <point x="311" y="47"/>
      <point x="330" y="91"/>
      <point x="330" y="143" type="curve" smooth="yes"/>
      <point x="330" y="184"/>
      <point x="284" y="254"/>
      <point x="194" y="254" type="curve" smooth="yes"/>
      <point x="75" y="254"/>
      <point x="31" y="179"/>
      <point x="31" y="118" type="curve" smooth="yes"/>
      <point x="30" y="43"/>
      <point x="50" y="7"/>
      <point x="95" y="-18" type="curve"/>
      <point x="48" y="-51"/>
      <point x="20" y="-69"/>
      <point x="20" y="-123" type="curve" smooth="yes"/>
      <point x="20" y="-178"/>
      <point x="78" y="-249"/>
    </contour>
    <contour>
      <point x="174" y="-207" type="curve" smooth="yes"/>
      <point x="103" y="-206"/>
      <point x="69" y="-152"/>
      <point x="69" y="-118" type="curve" smooth="yes"/>
      <point x="69" y="-71"/>
      <point x="129" y="-31"/>
      <point x="149" y="-37" type="curve" smooth="yes"/>
      <point x="197" y="-51"/>
      <point x="272" y="-73"/>
      <point x="290" y="-118" type="curve" smooth="yes"/>
      <point x="305" y="-155"/>
      <point x="246" y="-208"/>
    </contour>
    <contour>
      <point x="219" y="35" type="curve"/>
      <point x="150" y="32"/>
      <point x="99" y="79"/>
      <point x="83" y="115" type="curve" smooth="yes"/>
      <point x="70" y="145"/>
      <point x="86" y="180"/>
      <point x="98" y="196" type="curve" smooth="yes"/>
      <point x="110" y="212"/>
      <point x="137" y="223"/>
      <point x="196" y="221" type="curve" smooth="yes"/>
      <point x="257" y="219"/>
      <point x="294" y="182"/>
      <point x="293" y="131" type="curve" smooth="yes"/>
      <point x="292" y="101"/>
      <point x="256" y="45"/>
    </contour>
  </outline>
</glyph>
<glyph name="timeSig9" format="2">
  <advance width="350"/>
  <unicode hex="E089"/>
  <note>
uniE089
</note>
  <outline>
    <contour>
      <point x="139" y="-90" type="curve" smooth="yes"/>
      <point x="127" y="-84"/>
      <point x="103" y="-85"/>
      <point x="94" y="-89" type="curve" smooth="yes"/>
      <point x="67" y="-101"/>
      <point x="51" y="-127"/>
      <point x="50" y="-155" type="curve" smooth="yes"/>
      <point x="50" y="-159"/>
      <point x="50" y="-162"/>
      <point x="51" y="-166" type="curve" smooth="yes"/>
      <point x="56" y="-199"/>
      <point x="69" y="-215"/>
      <point x="82" y="-224" type="curve" smooth="yes"/>
      <point x="104" y="-240"/>
      <point x="127" y="-252"/>
      <point x="152" y="-252" type="curve" smooth="yes"/>
      <point x="225" y="-251"/>
      <point x="264" y="-215"/>
      <point x="298" y="-148" type="curve" smooth="yes"/>
      <point x="319" y="-106"/>
      <point x="330" y="-51"/>
      <point x="330" y="-4" type="curve" smooth="yes"/>
      <point x="330" y="0" type="line" smooth="yes"/>
      <point x="329" y="46"/>
      <point x="324" y="97"/>
      <point x="308" y="138" type="curve" smooth="yes"/>
      <point x="289" y="184"/>
      <point x="272" y="212"/>
      <point x="234" y="234" type="curve" smooth="yes"/>
      <point x="211" y="248"/>
      <point x="192" y="252"/>
      <point x="168" y="251" type="curve" smooth="yes"/>
      <point x="124" y="249"/>
      <point x="110" y="241"/>
      <point x="75" y="212" type="curve" smooth="yes"/>
      <point x="41" y="184"/>
      <point x="20" y="142"/>
      <point x="20" y="97" type="curve" smooth="yes"/>
      <point x="20" y="41"/>
      <point x="48" y="7"/>
      <point x="79" y="-17" type="curve" smooth="yes"/>
      <point x="105" y="-37"/>
      <point x="122" y="-48"/>
      <point x="152" y="-48" type="curve" smooth="yes"/>
      <point x="183" y="-48"/>
      <point x="201" y="-36"/>
      <point x="226" y="-13" type="curve" smooth="yes"/>
      <point x="228" y="-11"/>
      <point x="230" y="-11"/>
      <point x="232" y="-11" type="curve" smooth="yes"/>
      <point x="238" y="-11"/>
      <point x="245" y="-39"/>
      <point x="245" y="-55" type="curve" smooth="yes"/>
      <point x="243" y="-190"/>
      <point x="222" y="-219"/>
      <point x="201" y="-219" type="curve" smooth="yes"/>
      <point x="182" y="-219"/>
      <point x="127" y="-216"/>
      <point x="127" y="-206" type="curve" smooth="yes"/>
      <point x="127" y="-196"/>
      <point x="141" y="-182"/>
      <point x="153" y="-172" type="curve" smooth="yes"/>
      <point x="160" y="-165"/>
      <point x="166" y="-156"/>
      <point x="167" y="-146" type="curve" smooth="yes"/>
      <point x="168" y="-126"/>
      <point x="162" y="-108"/>
      <point x="154" y="-101" type="curve" smooth="yes"/>
      <point x="148" y="-95"/>
      <point x="145" y="-93"/>
    </contour>
    <contour>
      <point x="173" y="-20" type="curve" smooth="yes"/>
      <point x="134" y="-20"/>
      <point x="109" y="49"/>
      <point x="109" y="111" type="curve" smooth="yes"/>
      <point x="109" y="173"/>
      <point x="129" y="229"/>
      <point x="176" y="229" type="curve" smooth="yes"/>
      <point x="207" y="229"/>
      <point x="236" y="154"/>
      <point x="236" y="92" type="curve" smooth="yes"/>
      <point x="236" y="30"/>
      <point x="204" y="-20"/>
    </contour>
  </outline>
</glyph>
<glyph name="timeSigCommon" format="2">
  <advance width="437"/>
  <unicode hex="E08A"/>
  <note>
uniE08A
</note>
  <outline>
    <contour>
      <point x="234" y="251" type="curve" smooth="yes"/>
      <point x="204" y="251"/>
      <point x="163" y="243"/>
      <point x="136" y="231" type="curve" smooth="yes"/>
      <point x="47" y="192"/>
      <point x="0" y="85"/>
      <point x="0" y="-10" type="curve" smooth="yes"/>
      <point x="0" y="-21"/>
      <point x="0" y="-31"/>
      <point x="2" y="-39" type="curve" smooth="yes"/>
      <point x="13" y="-94"/>
      <point x="35" y="-144"/>
      <point x="68" y="-184" type="curve" smooth="yes"/>
      <point x="106" y="-230"/>
      <point x="167" y="-249"/>
      <point x="227" y="-249" type="curve" smooth="yes"/>
      <point x="402" y="-249"/>
      <point x="437" y="-53"/>
      <point x="437" y="-24" type="curve" smooth="yes"/>
      <point x="437" y="-8"/>
      <point x="419" y="-8"/>
      <point x="415" y="-8" type="curve" smooth="yes"/>
      <point x="405" y="-8"/>
      <point x="398" y="-9"/>
      <point x="398" y="-26" type="curve" smooth="yes"/>
      <point x="398" y="-155"/>
      <point x="278" y="-221"/>
      <point x="226" y="-221" type="curve" smooth="yes"/>
      <point x="145" y="-221"/>
      <point x="129" y="-137"/>
      <point x="129" y="28" type="curve" smooth="yes"/>
      <point x="129" y="193"/>
      <point x="205" y="227"/>
      <point x="259" y="227" type="curve" smooth="yes"/>
      <point x="311" y="227"/>
      <point x="334" y="207"/>
      <point x="334" y="197" type="curve" smooth="yes"/>
      <point x="334" y="176"/>
      <point x="329" y="170"/>
      <point x="314" y="167" type="curve" smooth="yes"/>
      <point x="291" y="163"/>
      <point x="266" y="127"/>
      <point x="271" y="97" type="curve"/>
      <point x="277" y="61"/>
      <point x="306" y="43"/>
      <point x="334" y="43" type="curve"/>
      <point x="334" y="43"/>
      <point x="409" y="37"/>
      <point x="409" y="120" type="curve" smooth="yes"/>
      <point x="409" y="251"/>
      <point x="283" y="251"/>
    </contour>
  </outline>
</glyph>
<glyph name="uniE08B" format="2">
  <advance width="437"/>
  <unicode hex="E08B"/>
  <note>
uniE08B
</note>
  <outline>
    <contour>
      <point x="202" y="-344" type="curve"/>
      <point x="202" y="-344" type="line"/>
      <point x="215" y="-344"/>
      <point x="221" y="-337"/>
      <point x="221" y="-321" type="curve" smooth="yes"/>
      <point x="221" y="323" type="line" smooth="yes"/>
      <point x="221" y="339"/>
      <point x="215" y="346"/>
      <point x="202" y="346" type="curve"/>
      <point x="202" y="346" type="line"/>
      <point x="190" y="346"/>
      <point x="182" y="339"/>
      <point x="182" y="323" type="curve" smooth="yes"/>
      <point x="182" y="-321" type="line" smooth="yes"/>
      <point x="182" y="-337"/>
      <point x="190" y="-344"/>
    </contour>
    <component base="timeSigCommon"/>
  </outline>
</glyph>
<glyph name="timeSigFractionalSlash" format="2">
  <advance width="368"/>
  <unicode hex="E08E"/>
  <note>
uniE08E
</note>
  <outline>
    <contour>
      <point x="338" y="173" type="curve" smooth="yes"/>
      <point x="5" y="-160" type="line"/>
      <point x="2" y="-164"/>
      <point x="0" y="-168"/>
      <point x="0" y="-172" type="curve" smooth="yes"/>
      <point x="0" y="-174"/>
      <point x="0" y="-176"/>
      <point x="1" y="-177" type="curve" smooth="yes"/>
      <point x="13" y="-188" type="line" smooth="yes"/>
      <point x="14" y="-189"/>
      <point x="16" y="-190"/>
      <point x="18" y="-190" type="curve" smooth="yes"/>
      <point x="22" y="-190"/>
      <point x="26" y="-188"/>
      <point x="29" y="-184" type="curve"/>
      <point x="362" y="149" type="line"/>
      <point x="366" y="152"/>
      <point x="368" y="157"/>
      <point x="368" y="161" type="curve" smooth="yes"/>
      <point x="368" y="163"/>
      <point x="367" y="165"/>
      <point x="366" y="166" type="curve" smooth="yes"/>
      <point x="355" y="177" type="line" smooth="yes"/>
      <point x="354" y="178"/>
      <point x="352" y="179"/>
      <point x="350" y="179" type="curve" smooth="yes"/>
      <point x="346" y="179"/>
      <point x="342" y="177"/>
    </contour>
  </outline>
</glyph>
<glyph name="timeSigParensLeftSmall" format="2">
  <advance width="123"/>
  <unicode hex="E092"/>
  <note>
uniE092
</note>
  <outline>
    <contour>
      <point x="122" y="208" type="curve" smooth="yes"/>
      <point x="118" y="230" type="line" smooth="yes"/>
      <point x="118" y="233"/>
      <point x="113" y="234"/>
      <point x="109" y="232" type="curve"/>
      <point x="37" y="189"/>
      <point x="0" y="72"/>
      <point x="0" y="-9" type="curve" smooth="yes"/>
      <point x="0" y="-76"/>
      <point x="5" y="-154"/>
      <point x="76" y="-238" type="curve"/>
      <point x="78" y="-241"/>
      <point x="80" y="-239"/>
      <point x="80" y="-238" type="curve" smooth="yes"/>
      <point x="80" y="-222" type="line" smooth="yes"/>
      <point x="80" y="-221"/>
      <point x="80" y="-220"/>
      <point x="78" y="-218" type="curve" smooth="yes"/>
      <point x="61" y="-182"/>
      <point x="42" y="-137"/>
      <point x="42" y="-13" type="curve" smooth="yes"/>
      <point x="42" y="100"/>
      <point x="77" y="157"/>
      <point x="121" y="201" type="curve" smooth="yes"/>
      <point x="124" y="204"/>
      <point x="122" y="205"/>
    </contour>
  </outline>
</glyph>
<glyph name="timeSigParensRightSmall" format="2">
  <advance width="106"/>
  <unicode hex="E093"/>
  <note>
uniE093
</note>
  <outline>
    <contour>
      <point x="16" y="179" type="line" smooth="yes"/>
      <point x="16" y="176"/>
      <point x="17" y="174"/>
      <point x="19" y="172" type="curve" smooth="yes"/>
      <point x="61" y="130"/>
      <point x="72" y="66"/>
      <point x="61" y="-47" type="curve" smooth="yes"/>
      <point x="47" y="-171"/>
      <point x="24" y="-204"/>
      <point x="4" y="-238" type="curve" smooth="yes"/>
      <point x="3" y="-239"/>
      <point x="3" y="-240"/>
      <point x="3" y="-242" type="curve" smooth="yes"/>
      <point x="0" y="-258" type="line" smooth="yes"/>
      <point x="0" y="-259"/>
      <point x="1" y="-260"/>
      <point x="4" y="-258" type="curve"/>
      <point x="82" y="-182"/>
      <point x="97" y="-105"/>
      <point x="104" y="-38" type="curve" smooth="yes"/>
      <point x="113" y="43"/>
      <point x="88" y="163"/>
      <point x="21" y="214" type="curve"/>
      <point x="17" y="216"/>
      <point x="12" y="215"/>
      <point x="12" y="212" type="curve" smooth="yes"/>
    </contour>
  </outline>
</glyph>
<glyph name="timeSigParensLeft" format="2">
  <advance width="208"/>
  <unicode hex="E094"/>
  <note>
uniE094
</note>
  <outline>
    <contour>
      <point x="206" y="432" type="curve" smooth="yes"/>
      <point x="200" y="474" type="line" smooth="yes"/>
      <point x="200" y="480"/>
      <point x="191" y="482"/>
      <point x="184" y="479" type="curve"/>
      <point x="63" y="396"/>
      <point x="0" y="171"/>
      <point x="0" y="16" type="curve" smooth="yes"/>
      <point x="0" y="-113"/>
      <point x="9" y="-262"/>
      <point x="129" y="-424" type="curve"/>
      <point x="132" y="-429"/>
      <point x="136" y="-426"/>
      <point x="136" y="-424" type="curve" smooth="yes"/>
      <point x="136" y="-393" type="line" smooth="yes"/>
      <point x="136" y="-391"/>
      <point x="136" y="-389"/>
      <point x="132" y="-385" type="curve" smooth="yes"/>
      <point x="103" y="-316"/>
      <point x="72" y="-230"/>
      <point x="72" y="9" type="curve" smooth="yes"/>
      <point x="72" y="225"/>
      <point x="131" y="335"/>
      <point x="205" y="419" type="curve" smooth="yes"/>
      <point x="210" y="425"/>
      <point x="206" y="427"/>
    </contour>
  </outline>
</glyph>
<glyph name="timeSigParensRight" format="2">
  <advance width="162"/>
  <unicode hex="E095"/>
  <note>
uniE095
</note>
  <outline>
    <contour>
      <point x="24" y="383" type="line" smooth="yes"/>
      <point x="24" y="377"/>
      <point x="26" y="374"/>
      <point x="30" y="370" type="curve" smooth="yes"/>
      <point x="94" y="291"/>
      <point x="110" y="173"/>
      <point x="94" y="-38" type="curve" smooth="yes"/>
      <point x="73" y="-269"/>
      <point x="37" y="-331"/>
      <point x="6" y="-394" type="curve" smooth="yes"/>
      <point x="4" y="-397"/>
      <point x="4" y="-399"/>
      <point x="4" y="-402" type="curve" smooth="yes"/>
      <point x="0" y="-432" type="line" smooth="yes"/>
      <point x="0" y="-434"/>
      <point x="1" y="-436"/>
      <point x="6" y="-432" type="curve"/>
      <point x="126" y="-290"/>
      <point x="149" y="-147"/>
      <point x="159" y="-22" type="curve" smooth="yes"/>
      <point x="173" y="130"/>
      <point x="136" y="353"/>
      <point x="33" y="448" type="curve"/>
      <point x="26" y="452"/>
      <point x="17" y="450"/>
      <point x="17" y="444" type="curve" smooth="yes"/>
    </contour>
  </outline>
</glyph>
<glyph name="noteheadDoubleWhole" format="2">
  <advance width="559"/>
  <unicode hex="E0A0"/>
  <note>
uniE0A0
</note>
  <anchor x="98" y="-200" name="noteheadOrigin"/>
  <outline>
    <contour>
      <point x="22" y="155" type="curve" smooth="yes"/>
      <point x="9" y="155" type="line" smooth="yes"/>
      <point x="3" y="155"/>
      <point x="0" y="151"/>
      <point x="0" y="147" type="curve" smooth="yes"/>
      <point x="0" y="-148" type="line" smooth="yes"/>
      <point x="0" y="-152"/>
      <point x="3" y="-155"/>
      <point x="9" y="-155" type="curve" smooth="yes"/>
      <point x="22" y="-155" type="line" smooth="yes"/>
      <point x="27" y="-155"/>
      <point x="31" y="-152"/>
      <point x="31" y="-148" type="curve" smooth="yes"/>
      <point x="31" y="147" type="line" smooth="yes"/>
      <point x="31" y="151"/>
      <point x="27" y="155"/>
    </contour>
    <contour>
      <point x="74" y="155" type="curve" smooth="yes"/>
      <point x="62" y="155" type="line" smooth="yes"/>
      <point x="56" y="155"/>
      <point x="52" y="151"/>
      <point x="52" y="147" type="curve" smooth="yes"/>
      <point x="52" y="-148" type="line" smooth="yes"/>
      <point x="52" y="-152"/>
      <point x="56" y="-155"/>
      <point x="62" y="-155" type="curve" smooth="yes"/>
      <point x="74" y="-155" type="line" smooth="yes"/>
      <point x="79" y="-155"/>
      <point x="84" y="-152"/>
      <point x="84" y="-148" type="curve" smooth="yes"/>
      <point x="84" y="147" type="line" smooth="yes"/>
      <point x="84" y="151"/>
      <point x="79" y="155"/>
    </contour>
    <contour>
      <point x="497" y="155" type="curve" smooth="yes"/>
      <point x="484" y="155" type="line" smooth="yes"/>
      <point x="479" y="155"/>
      <point x="474" y="151"/>
      <point x="474" y="147" type="curve" smooth="yes"/>
      <point x="474" y="-148" type="line" smooth="yes"/>
      <point x="474" y="-152"/>
      <point x="479" y="-155"/>
      <point x="484" y="-155" type="curve" smooth="yes"/>
      <point x="497" y="-155" type="line" smooth="yes"/>
      <point x="502" y="-155"/>
      <point x="507" y="-152"/>
      <point x="507" y="-148" type="curve" smooth="yes"/>
      <point x="507" y="147" type="line" smooth="yes"/>
      <point x="507" y="151"/>
      <point x="502" y="155"/>
    </contour>
    <contour>
      <point x="549" y="155" type="curve" smooth="yes"/>
      <point x="536" y="155" type="line" smooth="yes"/>
      <point x="532" y="155"/>
      <point x="526" y="151"/>
      <point x="526" y="147" type="curve" smooth="yes"/>
      <point x="526" y="-148" type="line" smooth="yes"/>
      <point x="526" y="-152"/>
      <point x="532" y="-155"/>
      <point x="536" y="-155" type="curve" smooth="yes"/>
      <point x="549" y="-155" type="line" smooth="yes"/>
      <point x="555" y="-155"/>
      <point x="559" y="-152"/>
      <point x="559" y="-148" type="curve" smooth="yes"/>
      <point x="559" y="147" type="line" smooth="yes"/>
      <point x="559" y="151"/>
      <point x="555" y="155"/>
    </contour>
    <component base="noteheadWhole" xOffset="98"/>
  </outline>
</glyph>
<glyph name="noteheadWhole" format="2">
  <advance width="359"/>
  <unicode hex="E0A2"/>
  <note>
uniE0A2
</note>
  <outline>
    <contour>
      <point x="191" y="125" type="curve" smooth="yes"/>
      <point x="58" y="125"/>
      <point x="0" y="69"/>
      <point x="0" y="2" type="curve" smooth="yes"/>
      <point x="0" y="-56"/>
      <point x="42" y="-125"/>
      <point x="171" y="-125" type="curve" smooth="yes"/>
      <point x="335" y="-125"/>
      <point x="362" y="-46"/>
      <point x="359" y="5" type="curve" smooth="yes"/>
      <point x="355" y="74"/>
      <point x="274" y="125"/>
    </contour>
    <contour>
      <point x="98" y="36"/>
      <point x="95" y="60"/>
      <point x="122" y="80" type="curve" smooth="yes"/>
      <point x="138" y="92"/>
      <point x="170" y="96"/>
      <point x="206" y="82" type="curve" smooth="yes"/>
      <point x="237" y="69"/>
      <point x="257" y="4"/>
      <point x="264" y="-14" type="curve" smooth="yes"/>
      <point x="270" y="-29"/>
      <point x="270" y="-52"/>
      <point x="267" y="-59" type="curve" smooth="yes"/>
      <point x="261" y="-71"/>
      <point x="250" y="-79"/>
      <point x="234" y="-86" type="curve" smooth="yes"/>
      <point x="221" y="-91"/>
      <point x="195" y="-95"/>
      <point x="182" y="-90" type="curve" smooth="yes"/>
      <point x="167" y="-85"/>
      <point x="161" y="-81"/>
      <point x="149" y="-73" type="curve" smooth="yes"/>
      <point x="142" y="-68"/>
      <point x="135" y="-56"/>
      <point x="130" y="-49" type="curve" smooth="yes"/>
      <point x="118" y="-31"/>
      <point x="110" y="-7"/>
      <point x="103" y="19" type="curve" smooth="yes"/>
    </contour>
  </outline>
</glyph>
<glyph name="noteheadHalf" format="2">
  <advance width="293"/>
  <unicode hex="E0A3"/>
  <note>
uniE0A3
</note>
  <anchor x="0" y="-42" name="stemDownNW"/>
  <anchor x="293" y="47" name="stemUpSE"/>
  <outline>
    <contour>
      <point x="95" y="-125" type="curve" smooth="yes"/>
      <point x="240" y="-125"/>
      <point x="293" y="9"/>
      <point x="293" y="42" type="curve" smooth="yes"/>
      <point x="293" y="103"/>
      <point x="252" y="125"/>
      <point x="194" y="125" type="curve" smooth="yes"/>
      <point x="65" y="125"/>
      <point x="0" y="10"/>
      <point x="0" y="-42" type="curve" smooth="yes"/>
      <point x="0" y="-95"/>
      <point x="40" y="-125"/>
    </contour>
    <contour>
      <point x="168" y="-49" type="curve" smooth="yes"/>
      <point x="127" y="-75"/>
      <point x="108" y="-87"/>
      <point x="79" y="-87" type="curve" smooth="yes"/>
      <point x="60" y="-88"/>
      <point x="49" y="-74"/>
      <point x="43" y="-64" type="curve" smooth="yes"/>
      <point x="40" y="-58"/>
      <point x="39" y="-51"/>
      <point x="39" y="-45" type="curve" smooth="yes"/>
      <point x="38" y="-25"/>
      <point x="62" y="1"/>
      <point x="114" y="38" type="curve" smooth="yes"/>
      <point x="158" y="68"/>
      <point x="195" y="89"/>
      <point x="213" y="89" type="curve" smooth="yes"/>
      <point x="230" y="89"/>
      <point x="245" y="80"/>
      <point x="251" y="69" type="curve" smooth="yes"/>
      <point x="254" y="64"/>
      <point x="258" y="55"/>
      <point x="258" y="48" type="curve" smooth="yes"/>
      <point x="259" y="30"/>
      <point x="235" y="-3"/>
    </contour>
  </outline>
</glyph>
<glyph name="noteheadBlack" format="2">
  <advance width="295"/>
  <unicode hex="E0A4"/>
  <note>
uniE0A4
</note>
  <anchor x="0" y="-32" name="stemDownNW"/>
  <anchor x="295" y="45" name="stemUpSE"/>
  <outline>
    <contour>
      <point x="108" y="-125" type="curve" smooth="yes"/>
      <point x="217" y="-125"/>
      <point x="295" y="-33"/>
      <point x="295" y="42" type="curve" smooth="yes"/>
      <point x="295" y="104"/>
      <point x="255" y="129"/>
      <point x="187" y="129" type="curve" smooth="yes"/>
      <point x="64" y="129"/>
      <point x="0" y="34"/>
      <point x="0" y="-32" type="curve" smooth="yes"/>
      <point x="0" y="-74"/>
      <point x="46" y="-125"/>
    </contour>
  </outline>
</glyph>
<glyph name="noteheadXDoubleWhole" format="2">
  <advance width="546"/>
  <unicode hex="E0A6"/>
  <note>
uniE0A6
</note>
  <outline>
    <contour>
      <point x="30" y="-149" type="curve" smooth="yes"/>
      <point x="30" y="148" type="line" smooth="yes"/>
      <point x="30" y="151"/>
      <point x="27" y="155"/>
      <point x="21" y="155" type="curve" smooth="yes"/>
      <point x="9" y="155" type="line" smooth="yes"/>
      <point x="4" y="155"/>
      <point x="0" y="151"/>
      <point x="0" y="148" type="curve" smooth="yes"/>
      <point x="0" y="-149" type="line" smooth="yes"/>
      <point x="0" y="-152"/>
      <point x="4" y="-155"/>
      <point x="9" y="-155" type="curve" smooth="yes"/>
      <point x="21" y="-155" type="line" smooth="yes"/>
      <point x="27" y="-155"/>
      <point x="30" y="-152"/>
    </contour>
    <contour>
      <point x="546" y="-149" type="curve" smooth="yes"/>
      <point x="546" y="148" type="line" smooth="yes"/>
      <point x="546" y="151"/>
      <point x="542" y="155"/>
      <point x="536" y="155" type="curve" smooth="yes"/>
      <point x="524" y="155" type="line" smooth="yes"/>
      <point x="519" y="155"/>
      <point x="514" y="151"/>
      <point x="514" y="148" type="curve" smooth="yes"/>
      <point x="514" y="-149" type="line" smooth="yes"/>
      <point x="514" y="-152"/>
      <point x="519" y="-155"/>
      <point x="524" y="-155" type="curve" smooth="yes"/>
      <point x="536" y="-155" type="line" smooth="yes"/>
      <point x="542" y="-155"/>
      <point x="546" y="-152"/>
    </contour>
    <component base="noteheadXWhole" xOffset="85"/>
    <contour>
      <point x="489" y="-149" type="curve" smooth="yes"/>
      <point x="489" y="148" type="line" smooth="yes"/>
      <point x="489" y="151"/>
      <point x="485" y="155"/>
      <point x="479" y="155" type="curve" smooth="yes"/>
      <point x="467" y="155" type="line" smooth="yes"/>
      <point x="462" y="155"/>
      <point x="457" y="151"/>
      <point x="457" y="148" type="curve" smooth="yes"/>
      <point x="457" y="-149" type="line" smooth="yes"/>
      <point x="457" y="-152"/>
      <point x="462" y="-155"/>
      <point x="467" y="-155" type="curve" smooth="yes"/>
      <point x="479" y="-155" type="line" smooth="yes"/>
      <point x="485" y="-155"/>
      <point x="489" y="-152"/>
    </contour>
    <contour>
      <point x="87" y="-149" type="curve" smooth="yes"/>
      <point x="87" y="148" type="line" smooth="yes"/>
      <point x="87" y="151"/>
      <point x="84" y="155"/>
      <point x="78" y="155" type="curve" smooth="yes"/>
      <point x="66" y="155" type="line" smooth="yes"/>
      <point x="61" y="155"/>
      <point x="57" y="151"/>
      <point x="57" y="148" type="curve" smooth="yes"/>
      <point x="57" y="-149" type="line" smooth="yes"/>
      <point x="57" y="-152"/>
      <point x="61" y="-155"/>
      <point x="66" y="-155" type="curve" smooth="yes"/>
      <point x="78" y="-155" type="line" smooth="yes"/>
      <point x="84" y="-155"/>
      <point x="87" y="-152"/>
    </contour>
  </outline>
</glyph>
<glyph name="noteheadXWhole" format="2">
  <advance width="377"/>
  <unicode hex="E0A7"/>
  <note>
uniE0A7
</note>
  <outline>
    <contour>
      <point x="124" y="-119" type="curve" smooth="yes"/>
      <point x="189" y="-56" type="line"/>
      <point x="253" y="-119" type="line" smooth="yes"/>
      <point x="257" y="-123"/>
      <point x="262" y="-125"/>
      <point x="267" y="-125" type="curve" smooth="yes"/>
      <point x="355" y="-125" type="line" smooth="yes"/>
      <point x="367" y="-125"/>
      <point x="377" y="-114"/>
      <point x="377" y="-103" type="curve" smooth="yes"/>
      <point x="377" y="-97"/>
      <point x="374" y="-91"/>
      <point x="369" y="-86" type="curve" smooth="yes"/>
      <point x="276" y="0" type="line"/>
      <point x="369" y="86" type="line" smooth="yes"/>
      <point x="374" y="91"/>
      <point x="376" y="97"/>
      <point x="376" y="103" type="curve" smooth="yes"/>
      <point x="376" y="114"/>
      <point x="367" y="125"/>
      <point x="356" y="125" type="curve" smooth="yes"/>
      <point x="267" y="125" type="line" smooth="yes"/>
      <point x="262" y="125"/>
      <point x="257" y="123"/>
      <point x="253" y="119" type="curve" smooth="yes"/>
      <point x="189" y="55" type="line"/>
      <point x="124" y="119" type="line" smooth="yes"/>
      <point x="120" y="123"/>
      <point x="115" y="125"/>
      <point x="110" y="125" type="curve" smooth="yes"/>
      <point x="21" y="125" type="line" smooth="yes"/>
      <point x="11" y="125"/>
      <point x="0" y="114"/>
      <point x="0" y="103" type="curve" smooth="yes"/>
      <point x="0" y="97"/>
      <point x="3" y="91"/>
      <point x="8" y="86" type="curve" smooth="yes"/>
      <point x="102" y="0" type="line"/>
      <point x="8" y="-86" type="line" smooth="yes"/>
      <point x="3" y="-91"/>
      <point x="1" y="-97"/>
      <point x="1" y="-103" type="curve" smooth="yes"/>
      <point x="1" y="-114"/>
      <point x="10" y="-125"/>
      <point x="22" y="-125" type="curve" smooth="yes"/>
      <point x="110" y="-125" type="line" smooth="yes"/>
      <point x="115" y="-125"/>
      <point x="120" y="-123"/>
    </contour>
    <contour>
      <point x="308" y="-103" type="curve" smooth="yes"/>
      <point x="278" y="-103" type="line" smooth="yes"/>
      <point x="274" y="-103"/>
      <point x="271" y="-101"/>
      <point x="268" y="-99" type="curve" smooth="yes"/>
      <point x="195" y="-38" type="line" smooth="yes"/>
      <point x="192" y="-35"/>
      <point x="186" y="-35"/>
      <point x="183" y="-38" type="curve" smooth="yes"/>
      <point x="109" y="-99" type="line" smooth="yes"/>
      <point x="106" y="-101"/>
      <point x="103" y="-103"/>
      <point x="99" y="-103" type="curve" smooth="yes"/>
      <point x="70" y="-103" type="line" smooth="yes"/>
      <point x="63" y="-103"/>
      <point x="61" y="-98"/>
      <point x="66" y="-93" type="curve" smooth="yes"/>
      <point x="163" y="-6" type="line" smooth="yes"/>
      <point x="167" y="-3"/>
      <point x="167" y="3"/>
      <point x="163" y="6" type="curve" smooth="yes"/>
      <point x="66" y="93" type="line" smooth="yes"/>
      <point x="61" y="98"/>
      <point x="63" y="103"/>
      <point x="70" y="103" type="curve" smooth="yes"/>
      <point x="99" y="103" type="line" smooth="yes"/>
      <point x="103" y="103"/>
      <point x="106" y="101"/>
      <point x="109" y="99" type="curve" smooth="yes"/>
      <point x="183" y="38" type="line" smooth="yes"/>
      <point x="186" y="35"/>
      <point x="192" y="35"/>
      <point x="195" y="38" type="curve" smooth="yes"/>
      <point x="268" y="99" type="line" smooth="yes"/>
      <point x="271" y="101"/>
      <point x="274" y="103"/>
      <point x="278" y="103" type="curve" smooth="yes"/>
      <point x="308" y="103" type="line" smooth="yes"/>
      <point x="315" y="103"/>
      <point x="317" y="98"/>
      <point x="312" y="93" type="curve" smooth="yes"/>
      <point x="215" y="6" type="line" smooth="yes"/>
      <point x="211" y="3"/>
      <point x="211" y="-3"/>
      <point x="215" y="-6" type="curve" smooth="yes"/>
      <point x="312" y="-93" type="line" smooth="yes"/>
      <point x="317" y="-98"/>
      <point x="315" y="-103"/>
    </contour>
  </outline>
</glyph>
<glyph name="noteheadXHalf" format="2">
  <advance width="334"/>
  <unicode hex="E0A8"/>
  <note>
uniE0A8
</note>
  <anchor x="0" y="-103" name="stemDownNW"/>
  <anchor x="334" y="103" name="stemUpSE"/>
  <outline>
    <contour>
      <point x="311" y="125" type="curve" smooth="yes"/>
      <point x="205" y="125" type="line" smooth="yes"/>
      <point x="199" y="125"/>
      <point x="191" y="124"/>
      <point x="188" y="118" type="curve" smooth="yes"/>
      <point x="155" y="58" type="line"/>
      <point x="80" y="119" type="line"/>
      <point x="76" y="123"/>
      <point x="72" y="125"/>
      <point x="66" y="125" type="curve" smooth="yes"/>
      <point x="25" y="125" type="line" smooth="yes"/>
      <point x="13" y="125"/>
      <point x="3" y="114"/>
      <point x="3" y="103" type="curve" smooth="yes"/>
      <point x="3" y="97"/>
      <point x="5" y="92"/>
      <point x="10" y="86" type="curve"/>
      <point x="107" y="5" type="line"/>
      <point x="5" y="-88" type="line" smooth="yes"/>
      <point x="2" y="-91"/>
      <point x="0" y="-96"/>
      <point x="0" y="-103" type="curve" smooth="yes"/>
      <point x="0" y="-115"/>
      <point x="10" y="-125"/>
      <point x="22" y="-125" type="curve" smooth="yes"/>
      <point x="128" y="-125" type="line" smooth="yes"/>
      <point x="134" y="-125"/>
      <point x="142" y="-124"/>
      <point x="145" y="-118" type="curve" smooth="yes"/>
      <point x="178" y="-59" type="line"/>
      <point x="252" y="-119" type="line"/>
      <point x="257" y="-122"/>
      <point x="262" y="-125"/>
      <point x="267" y="-125" type="curve" smooth="yes"/>
      <point x="309" y="-125" type="line" smooth="yes"/>
      <point x="320" y="-125"/>
      <point x="332" y="-113"/>
      <point x="332" y="-102" type="curve" smooth="yes"/>
      <point x="332" y="-96"/>
      <point x="329" y="-91"/>
      <point x="323" y="-87" type="curve"/>
      <point x="227" y="-5" type="line"/>
      <point x="329" y="88" type="line"/>
      <point x="333" y="91"/>
      <point x="334" y="96"/>
      <point x="334" y="103" type="curve" smooth="yes"/>
      <point x="334" y="115"/>
      <point x="325" y="125"/>
    </contour>
    <contour>
      <point x="136" y="8" type="curve" smooth="yes"/>
      <point x="30" y="98" type="line" smooth="yes"/>
      <point x="25" y="103"/>
      <point x="26" y="108"/>
      <point x="33" y="108" type="curve" smooth="yes"/>
      <point x="55" y="108" type="line" smooth="yes"/>
      <point x="59" y="108"/>
      <point x="62" y="106"/>
      <point x="65" y="104" type="curve" smooth="yes"/>
      <point x="156" y="29" type="line" smooth="yes"/>
      <point x="160" y="25"/>
      <point x="164" y="26"/>
      <point x="167" y="30" type="curve" smooth="yes"/>
      <point x="231" y="104" type="line" smooth="yes"/>
      <point x="233" y="107"/>
      <point x="237" y="108"/>
      <point x="241" y="108" type="curve" smooth="yes"/>
      <point x="278" y="108" type="line" smooth="yes"/>
      <point x="285" y="108"/>
      <point x="286" y="103"/>
      <point x="282" y="98" type="curve" smooth="yes"/>
      <point x="196" y="2" type="line" smooth="yes"/>
      <point x="193" y="-2"/>
      <point x="193" y="-5"/>
      <point x="197" y="-9" type="curve" smooth="yes"/>
      <point x="304" y="-98" type="line" smooth="yes"/>
      <point x="309" y="-103"/>
      <point x="308" y="-108"/>
      <point x="301" y="-108" type="curve" smooth="yes"/>
      <point x="278" y="-108" type="line" smooth="yes"/>
      <point x="274" y="-108"/>
      <point x="271" y="-106"/>
      <point x="268" y="-104" type="curve" smooth="yes"/>
      <point x="178" y="-30" type="line" smooth="yes"/>
      <point x="174" y="-26"/>
      <point x="170" y="-27"/>
      <point x="167" y="-31" type="curve" smooth="yes"/>
      <point x="103" y="-104" type="line" smooth="yes"/>
      <point x="101" y="-107"/>
      <point x="97" y="-108"/>
      <point x="93" y="-108" type="curve" smooth="yes"/>
      <point x="56" y="-108" type="line" smooth="yes"/>
      <point x="49" y="-108"/>
      <point x="48" y="-103"/>
      <point x="52" y="-98" type="curve" smooth="yes"/>
      <point x="137" y="-3" type="line" smooth="yes"/>
      <point x="140" y="1"/>
      <point x="140" y="4"/>
    </contour>
  </outline>
</glyph>
<glyph name="noteheadXBlack" format="2">
  <advance width="290"/>
  <unicode hex="E0A9"/>
  <note>
uniE0A9
</note>
  <anchor x="0" y="-110" name="stemDownNW"/>
  <anchor x="290" y="111" name="stemUpSE"/>
  <outline>
    <contour>
      <point x="285" y="-99" type="curve" smooth="yes"/>
      <point x="163" y="0" type="line"/>
      <point x="285" y="100" type="line" smooth="yes"/>
      <point x="288" y="102"/>
      <point x="290" y="107"/>
      <point x="290" y="111" type="curve" smooth="yes"/>
      <point x="290" y="119"/>
      <point x="283" y="122"/>
      <point x="277" y="122" type="curve" smooth="yes"/>
      <point x="275" y="122"/>
      <point x="272" y="121"/>
      <point x="270" y="120" type="curve"/>
      <point x="144" y="15" type="line"/>
      <point x="20" y="120" type="line"/>
      <point x="18" y="121"/>
      <point x="15" y="122"/>
      <point x="12" y="122" type="curve" smooth="yes"/>
      <point x="5" y="122"/>
      <point x="0" y="118"/>
      <point x="0" y="112" type="curve" smooth="yes"/>
      <point x="0" y="108"/>
      <point x="2" y="103"/>
      <point x="5" y="100" type="curve" smooth="yes"/>
      <point x="127" y="0" type="line"/>
      <point x="5" y="-99" type="line" smooth="yes"/>
      <point x="1" y="-102"/>
      <point x="0" y="-106"/>
      <point x="0" y="-110" type="curve" smooth="yes"/>
      <point x="0" y="-118"/>
      <point x="5" y="-122"/>
      <point x="13" y="-122" type="curve" smooth="yes"/>
      <point x="16" y="-122"/>
      <point x="18" y="-121"/>
      <point x="20" y="-119" type="curve" smooth="yes"/>
      <point x="144" y="-14" type="line"/>
      <point x="270" y="-119" type="line" smooth="yes"/>
      <point x="272" y="-121"/>
      <point x="275" y="-122"/>
      <point x="277" y="-122" type="curve" smooth="yes"/>
      <point x="285" y="-122"/>
      <point x="290" y="-117"/>
      <point x="290" y="-111" type="curve" smooth="yes"/>
      <point x="290" y="-106"/>
      <point x="288" y="-102"/>
    </contour>
  </outline>
</glyph>
<glyph name="noteheadSlashedBlack1" format="2">
  <advance width="295"/>
  <unicode hex="E0CF"/>
  <note>
uniE0CF
</note>
  <anchor x="0" y="-33" name="stemDownNW"/>
  <anchor x="295" y="45" name="stemUpSE"/>
  <outline>
    <component base="noteheadBlack"/>
    <contour>
      <point x="345" y="157" type="curve" smooth="yes"/>
      <point x="-59" y="-138" type="line" smooth="yes"/>
      <point x="-69" y="-146"/>
      <point x="-71" y="-154"/>
      <point x="-67" y="-162" type="curve" smooth="yes"/>
      <point x="-67" y="-162" type="line" smooth="yes"/>
      <point x="-62" y="-170"/>
      <point x="-53" y="-170"/>
      <point x="-42" y="-162" type="curve" smooth="yes"/>
      <point x="362" y="133" type="line" smooth="yes"/>
      <point x="372" y="141"/>
      <point x="374" y="149"/>
      <point x="370" y="157" type="curve" smooth="yes"/>
      <point x="370" y="157" type="line" smooth="yes"/>
      <point x="365" y="165"/>
      <point x="356" y="165"/>
    </contour>
  </outline>
</glyph>
<glyph name="noteheadSlashedBlack2" format="2">
  <advance width="295"/>
  <unicode hex="E0D0"/>
  <note>
uniE0D0
</note>
  <anchor x="0" y="-33" name="stemDownNW"/>
  <anchor x="295" y="45" name="stemUpSE"/>
  <outline>
    <component base="noteheadBlack"/>
    <contour>
      <point x="-42" y="157" type="line" smooth="yes"/>
      <point x="-53" y="165"/>
      <point x="-62" y="165"/>
      <point x="-67" y="157" type="curve" smooth="yes"/>
      <point x="-67" y="157" type="line" smooth="yes"/>
      <point x="-71" y="149"/>
      <point x="-69" y="141"/>
      <point x="-59" y="133" type="curve" smooth="yes"/>
      <point x="345" y="-162" type="line" smooth="yes"/>
      <point x="356" y="-170"/>
      <point x="365" y="-170"/>
      <point x="370" y="-162" type="curve" smooth="yes"/>
      <point x="370" y="-162" type="line" smooth="yes"/>
      <point x="374" y="-154"/>
      <point x="372" y="-146"/>
      <point x="362" y="-138" type="curve" smooth="yes"/>
    </contour>
  </outline>
</glyph>
<glyph name="noteheadSlashedHalf1" format="2">
  <advance width="293"/>
  <unicode hex="E0D1"/>
  <note>
uniE0D1
</note>
  <anchor x="0" y="-42" name="stemDownNW"/>
  <anchor x="293" y="47" name="stemUpSE"/>
  <outline>
    <contour>
      <point x="348" y="154" type="curve" smooth="yes"/>
      <point x="-61" y="-134" type="line" smooth="yes"/>
      <point x="-71" y="-142"/>
      <point x="-74" y="-150"/>
      <point x="-70" y="-158" type="curve" smooth="yes"/>
      <point x="-70" y="-158" type="line" smooth="yes"/>
      <point x="-65" y="-166"/>
      <point x="-56" y="-166"/>
      <point x="-45" y="-159" type="curve" smooth="yes"/>
      <point x="364" y="129" type="line" smooth="yes"/>
      <point x="374" y="137"/>
      <point x="377" y="145"/>
      <point x="373" y="153" type="curve" smooth="yes"/>
      <point x="373" y="153" type="line" smooth="yes"/>
      <point x="368" y="161"/>
      <point x="359" y="161"/>
    </contour>
    <component base="noteheadHalf"/>
  </outline>
</glyph>
<glyph name="noteheadSlashedHalf2" format="2">
  <advance width="293"/>
  <unicode hex="E0D2"/>
  <note>
uniE0D2
</note>
  <anchor x="0" y="-42" name="stemDownNW"/>
  <anchor x="293" y="47" name="stemUpSE"/>
  <outline>
    <contour>
      <point x="-45" y="154" type="line" smooth="yes"/>
      <point x="-56" y="161"/>
      <point x="-65" y="161"/>
      <point x="-70" y="153" type="curve" smooth="yes"/>
      <point x="-70" y="153" type="line" smooth="yes"/>
      <point x="-74" y="145"/>
      <point x="-71" y="137"/>
      <point x="-61" y="129" type="curve" smooth="yes"/>
      <point x="348" y="-159" type="line" smooth="yes"/>
      <point x="359" y="-166"/>
      <point x="368" y="-166"/>
      <point x="373" y="-158" type="curve" smooth="yes"/>
      <point x="373" y="-158" type="line" smooth="yes"/>
      <point x="377" y="-150"/>
      <point x="374" y="-142"/>
      <point x="364" y="-134" type="curve" smooth="yes"/>
    </contour>
    <component base="noteheadHalf"/>
  </outline>
</glyph>
<glyph name="noteheadSlashedWhole1" format="2">
  <advance width="359"/>
  <unicode hex="E0D3"/>
  <note>
uniE0D3
</note>
  <outline>
    <contour>
      <point x="358" y="148" type="curve" smooth="yes"/>
      <point x="-51" y="-140" type="line" smooth="yes"/>
      <point x="-61" y="-148"/>
      <point x="-64" y="-156"/>
      <point x="-60" y="-164" type="curve" smooth="yes"/>
      <point x="-60" y="-164" type="line" smooth="yes"/>
      <point x="-55" y="-172"/>
      <point x="-46" y="-172"/>
      <point x="-35" y="-165" type="curve" smooth="yes"/>
      <point x="374" y="123" type="line" smooth="yes"/>
      <point x="384" y="131"/>
      <point x="387" y="139"/>
      <point x="383" y="147" type="curve" smooth="yes"/>
      <point x="383" y="147" type="line" smooth="yes"/>
      <point x="378" y="155"/>
      <point x="369" y="155"/>
    </contour>
    <component base="noteheadWhole"/>
  </outline>
</glyph>
<glyph name="noteheadSlashedWhole2" format="2">
  <advance width="359"/>
  <unicode hex="E0D4"/>
  <note>
uniE0D4
</note>
  <outline>
    <contour>
      <point x="-5" y="148" type="line" smooth="yes"/>
      <point x="-16" y="155"/>
      <point x="-25" y="155"/>
      <point x="-30" y="147" type="curve" smooth="yes"/>
      <point x="-30" y="147" type="line" smooth="yes"/>
      <point x="-34" y="139"/>
      <point x="-31" y="131"/>
      <point x="-21" y="123" type="curve" smooth="yes"/>
      <point x="388" y="-165" type="line" smooth="yes"/>
      <point x="399" y="-172"/>
      <point x="408" y="-172"/>
      <point x="413" y="-164" type="curve" smooth="yes"/>
      <point x="413" y="-164" type="line" smooth="yes"/>
      <point x="417" y="-156"/>
      <point x="414" y="-148"/>
      <point x="404" y="-140" type="curve" smooth="yes"/>
    </contour>
    <component base="noteheadWhole"/>
  </outline>
</glyph>
<glyph name="noteheadSlashedDoubleWhole2" format="2">
  <advance width="636"/>
  <unicode hex="E0D6"/>
  <note>
uniE0D6
</note>
  <anchor x="138" y="-200" name="noteheadOrigin"/>
  <outline>
    <contour>
      <point x="74" y="155" type="curve" smooth="yes"/>
      <point x="61" y="155" type="line" smooth="yes"/>
      <point x="56" y="155"/>
      <point x="52" y="151"/>
      <point x="52" y="147" type="curve" smooth="yes"/>
      <point x="52" y="-149" type="line" smooth="yes"/>
      <point x="52" y="-152"/>
      <point x="56" y="-155"/>
      <point x="61" y="-155" type="curve" smooth="yes"/>
      <point x="74" y="-155" type="line" smooth="yes"/>
      <point x="79" y="-155"/>
      <point x="83" y="-152"/>
      <point x="83" y="-149" type="curve" smooth="yes"/>
      <point x="83" y="147" type="line" smooth="yes"/>
      <point x="83" y="151"/>
      <point x="79" y="155"/>
    </contour>
    <contour>
      <point x="22" y="155" type="curve" smooth="yes"/>
      <point x="9" y="155" type="line" smooth="yes"/>
      <point x="4" y="155"/>
      <point x="0" y="151"/>
      <point x="0" y="147" type="curve" smooth="yes"/>
      <point x="0" y="-149" type="line" smooth="yes"/>
      <point x="0" y="-152"/>
      <point x="4" y="-155"/>
      <point x="9" y="-155" type="curve" smooth="yes"/>
      <point x="22" y="-155" type="line" smooth="yes"/>
      <point x="27" y="-155"/>
      <point x="31" y="-152"/>
      <point x="31" y="-149" type="curve" smooth="yes"/>
      <point x="31" y="147" type="line" smooth="yes"/>
      <point x="31" y="151"/>
      <point x="27" y="155"/>
    </contour>
    <contour>
      <point x="626" y="155" type="curve" smooth="yes"/>
      <point x="613" y="155" type="line" smooth="yes"/>
      <point x="609" y="155"/>
      <point x="603" y="151"/>
      <point x="603" y="147" type="curve" smooth="yes"/>
      <point x="603" y="-149" type="line" smooth="yes"/>
      <point x="603" y="-152"/>
      <point x="609" y="-155"/>
      <point x="613" y="-155" type="curve" smooth="yes"/>
      <point x="626" y="-155" type="line" smooth="yes"/>
      <point x="631" y="-155"/>
      <point x="636" y="-152"/>
      <point x="636" y="-149" type="curve" smooth="yes"/>
      <point x="636" y="147" type="line" smooth="yes"/>
      <point x="636" y="151"/>
      <point x="631" y="155"/>
    </contour>
    <contour>
      <point x="575" y="155" type="curve" smooth="yes"/>
      <point x="561" y="155" type="line" smooth="yes"/>
      <point x="556" y="155"/>
      <point x="552" y="151"/>
      <point x="552" y="147" type="curve" smooth="yes"/>
      <point x="552" y="-149" type="line" smooth="yes"/>
      <point x="552" y="-152"/>
      <point x="556" y="-155"/>
      <point x="561" y="-155" type="curve" smooth="yes"/>
      <point x="575" y="-155" type="line" smooth="yes"/>
      <point x="579" y="-155"/>
      <point x="584" y="-152"/>
      <point x="584" y="-149" type="curve" smooth="yes"/>
      <point x="584" y="147" type="line" smooth="yes"/>
      <point x="584" y="151"/>
      <point x="579" y="155"/>
    </contour>
    <component base="noteheadSlashedWhole2" xOffset="130"/>
  </outline>
</glyph>
<glyph name="noteheadDiamondWhole" format="2">
  <advance width="310"/>
  <unicode hex="E0D8"/>
  <note>
uniE0DB
</note>
  <anchor x="15" y="1" name="stemDownNW"/>
  <anchor x="295" y="1" name="stemUpSE"/>
  <outline>
    <contour>
      <point x="160" y="-125" type="curve" smooth="yes"/>
      <point x="308" y="-4" type="line" smooth="yes"/>
      <point x="309" y="-3"/>
      <point x="310" y="-1"/>
      <point x="310" y="1" type="curve" smooth="yes"/>
      <point x="310" y="3"/>
      <point x="309" y="5"/>
      <point x="308" y="6" type="curve" smooth="yes"/>
      <point x="161" y="125" type="line" smooth="yes"/>
      <point x="160" y="126"/>
      <point x="158" y="127"/>
      <point x="155" y="127" type="curve" smooth="yes"/>
      <point x="153" y="127"/>
      <point x="150" y="126"/>
      <point x="149" y="125" type="curve" smooth="yes"/>
      <point x="2" y="6" type="line" smooth="yes"/>
      <point x="0" y="4"/>
      <point x="0" y="3"/>
      <point x="0" y="1" type="curve" smooth="yes"/>
      <point x="0" y="-1"/>
      <point x="1" y="-3"/>
      <point x="3" y="-5" type="curve" smooth="yes"/>
      <point x="150" y="-125" type="line" smooth="yes"/>
      <point x="152" y="-127"/>
      <point x="153" y="-127"/>
      <point x="155" y="-127" type="curve" smooth="yes"/>
      <point x="156" y="-127"/>
      <point x="158" y="-127"/>
    </contour>
    <contour>
      <point x="219" y="-8" type="curve" smooth="yes"/>
      <point x="224" y="-20"/>
      <point x="228" y="-39"/>
      <point x="208" y="-57" type="curve" smooth="yes"/>
      <point x="196" y="-67"/>
      <point x="171" y="-72"/>
      <point x="143" y="-63" type="curve" smooth="yes"/>
      <point x="118" y="-56"/>
      <point x="97" y="-6"/>
      <point x="91" y="7" type="curve" smooth="yes"/>
      <point x="85" y="19"/>
      <point x="84" y="37"/>
      <point x="85" y="42" type="curve" smooth="yes"/>
      <point x="89" y="52"/>
      <point x="98" y="59"/>
      <point x="109" y="65" type="curve" smooth="yes"/>
      <point x="119" y="70"/>
      <point x="133" y="74"/>
      <point x="150" y="72" type="curve" smooth="yes"/>
      <point x="168" y="70"/>
      <point x="178" y="64"/>
      <point x="193" y="43" type="curve" smooth="yes"/>
      <point x="203" y="29"/>
      <point x="211" y="12"/>
    </contour>
  </outline>
</glyph>
<glyph name="noteheadDiamondHalf" format="2">
  <advance width="280"/>
  <unicode hex="E0D9"/>
  <note>
uniE0DB
</note>
  <anchor x="0" y="1" name="stemDownNW"/>
  <anchor x="280" y="1" name="stemUpSE"/>
  <outline>
    <contour>
      <point x="145" y="-125" type="curve" smooth="yes"/>
      <point x="278" y="-4" type="line" smooth="yes"/>
      <point x="279" y="-3"/>
      <point x="280" y="-1"/>
      <point x="280" y="1" type="curve" smooth="yes"/>
      <point x="280" y="3"/>
      <point x="279" y="5"/>
      <point x="278" y="6" type="curve" smooth="yes"/>
      <point x="146" y="125" type="line" smooth="yes"/>
      <point x="145" y="126"/>
      <point x="143" y="127"/>
      <point x="140" y="127" type="curve" smooth="yes"/>
      <point x="138" y="127"/>
      <point x="135" y="126"/>
      <point x="134" y="125" type="curve" smooth="yes"/>
      <point x="2" y="6" type="line" smooth="yes"/>
      <point x="0" y="4"/>
      <point x="0" y="3"/>
      <point x="0" y="1" type="curve" smooth="yes"/>
      <point x="0" y="-1"/>
      <point x="1" y="-3"/>
      <point x="3" y="-5" type="curve" smooth="yes"/>
      <point x="135" y="-125" type="line" smooth="yes"/>
      <point x="137" y="-127"/>
      <point x="138" y="-127"/>
      <point x="140" y="-127" type="curve" smooth="yes"/>
      <point x="141" y="-127"/>
      <point x="143" y="-127"/>
    </contour>
    <contour>
      <point x="149" y="-28" type="curve" smooth="yes"/>
      <point x="122" y="-44"/>
      <point x="110" y="-51"/>
      <point x="91" y="-51" type="curve" smooth="yes"/>
      <point x="78" y="-51"/>
      <point x="72" y="-42"/>
      <point x="68" y="-35" type="curve" smooth="yes"/>
      <point x="66" y="-32"/>
      <point x="66" y="-28"/>
      <point x="66" y="-23" type="curve" smooth="yes"/>
      <point x="66" y="-10"/>
      <point x="80" y="6"/>
      <point x="115" y="29" type="curve" smooth="yes"/>
      <point x="143" y="48"/>
      <point x="167" y="61"/>
      <point x="179" y="61" type="curve" smooth="yes"/>
      <point x="191" y="61"/>
      <point x="199" y="54"/>
      <point x="203" y="48" type="curve" smooth="yes"/>
      <point x="205" y="44"/>
      <point x="207" y="39"/>
      <point x="207" y="34" type="curve" smooth="yes"/>
      <point x="207" y="23"/>
      <point x="193" y="1"/>
    </contour>
  </outline>
</glyph>
<glyph name="noteheadDiamondBlack" format="2">
  <advance width="280"/>
  <unicode hex="E0DB"/>
  <note>
uniE0DB
</note>
  <anchor x="0" y="1" name="stemDownNW"/>
  <anchor x="280" y="1" name="stemUpSE"/>
  <outline>
    <contour>
      <point x="145" y="-125" type="curve" smooth="yes"/>
      <point x="278" y="-4" type="line" smooth="yes"/>
      <point x="279" y="-3"/>
      <point x="280" y="-1"/>
      <point x="280" y="1" type="curve" smooth="yes"/>
      <point x="280" y="3"/>
      <point x="279" y="5"/>
      <point x="278" y="6" type="curve" smooth="yes"/>
      <point x="146" y="125" type="line" smooth="yes"/>
      <point x="145" y="126"/>
      <point x="143" y="127"/>
      <point x="140" y="127" type="curve" smooth="yes"/>
      <point x="138" y="127"/>
      <point x="135" y="126"/>
      <point x="134" y="125" type="curve" smooth="yes"/>
      <point x="2" y="6" type="line" smooth="yes"/>
      <point x="0" y="4"/>
      <point x="0" y="3"/>
      <point x="0" y="1" type="curve" smooth="yes"/>
      <point x="0" y="-1"/>
      <point x="1" y="-3"/>
      <point x="3" y="-5" type="curve" smooth="yes"/>
      <point x="135" y="-125" type="line" smooth="yes"/>
      <point x="137" y="-127"/>
      <point x="138" y="-127"/>
      <point x="140" y="-127" type="curve" smooth="yes"/>
      <point x="141" y="-127"/>
      <point x="143" y="-127"/>
    </contour>
  </outline>
</glyph>
<glyph name="noteheadDiamondWhite" format="2">
  <advance width="280"/>
  <unicode hex="E0DD"/>
  <note>
uniE0DD
</note>
  <anchor x="0" y="1" name="stemDownNW"/>
  <anchor x="280" y="1" name="stemUpSE"/>
  <outline>
    <contour>
      <point x="140" y="-127" type="curve" smooth="yes"/>
      <point x="141" y="-127"/>
      <point x="143" y="-127"/>
      <point x="145" y="-125" type="curve" smooth="yes"/>
      <point x="278" y="-4" type="line" smooth="yes"/>
      <point x="279" y="-3"/>
      <point x="280" y="-1"/>
      <point x="280" y="1" type="curve" smooth="yes"/>
      <point x="280" y="3"/>
      <point x="279" y="5"/>
      <point x="278" y="6" type="curve" smooth="yes"/>
      <point x="146" y="125" type="line" smooth="yes"/>
      <point x="145" y="126"/>
      <point x="143" y="127"/>
      <point x="140" y="127" type="curve" smooth="yes"/>
      <point x="138" y="127"/>
      <point x="135" y="126"/>
      <point x="134" y="125" type="curve" smooth="yes"/>
      <point x="2" y="6" type="line" smooth="yes"/>
      <point x="0" y="4"/>
      <point x="0" y="3"/>
      <point x="0" y="1" type="curve" smooth="yes"/>
      <point x="0" y="-1"/>
      <point x="1" y="-3"/>
      <point x="3" y="-5" type="curve" smooth="yes"/>
      <point x="135" y="-125" type="line" smooth="yes"/>
      <point x="137" y="-127"/>
      <point x="138" y="-127"/>
    </contour>
    <contour>
      <point x="140" y="-95" type="curve" smooth="yes"/>
      <point x="139" y="-95"/>
      <point x="138" y="-95"/>
      <point x="136" y="-93" type="curve" smooth="yes"/>
      <point x="38" y="-4" type="line" smooth="yes"/>
      <point x="36" y="-2"/>
      <point x="36" y="-1"/>
      <point x="36" y="1" type="curve" smooth="yes"/>
      <point x="36" y="2"/>
      <point x="36" y="3"/>
      <point x="37" y="4" type="curve" smooth="yes"/>
      <point x="136" y="93" type="line" smooth="yes"/>
      <point x="136" y="94"/>
      <point x="139" y="95"/>
      <point x="140" y="95" type="curve" smooth="yes"/>
      <point x="142" y="95"/>
      <point x="144" y="94"/>
      <point x="144" y="93" type="curve" smooth="yes"/>
      <point x="243" y="4" type="line" smooth="yes"/>
      <point x="244" y="4"/>
      <point x="244" y="2"/>
      <point x="244" y="1" type="curve" smooth="yes"/>
      <point x="244" y="-1"/>
      <point x="244" y="-2"/>
      <point x="243" y="-3" type="curve" smooth="yes"/>
      <point x="144" y="-93" type="line" smooth="yes"/>
      <point x="142" y="-95"/>
      <point x="141" y="-95"/>
    </contour>
  </outline>
</glyph>
<glyph name="noteheadCircledBlack" format="2">
  <advance width="295"/>
  <unicode hex="E0E4"/>
  <note>
uniE0E4
</note>
  <anchor x="0" y="-33" name="stemDownNW"/>
  <anchor x="295" y="45" name="stemUpSE"/>
  <outline>
    <contour>
      <point x="152" y="-168" type="curve" smooth="yes"/>
      <point x="246" y="-168"/>
      <point x="323" y="-91"/>
      <point x="323" y="3" type="curve" smooth="yes"/>
      <point x="323" y="97"/>
      <point x="246" y="174"/>
      <point x="152" y="174" type="curve" smooth="yes"/>
      <point x="58" y="174"/>
      <point x="-19" y="97"/>
      <point x="-19" y="3" type="curve" smooth="yes"/>
      <point x="-19" y="-91"/>
      <point x="58" y="-168"/>
    </contour>
    <contour>
      <point x="152" y="-153" type="curve" smooth="yes"/>
      <point x="66" y="-153"/>
      <point x="-4" y="-83"/>
      <point x="-4" y="3" type="curve" smooth="yes"/>
      <point x="-4" y="89"/>
      <point x="66" y="159"/>
      <point x="152" y="159" type="curve" smooth="yes"/>
      <point x="238" y="159"/>
      <point x="308" y="89"/>
      <point x="308" y="3" type="curve" smooth="yes"/>
      <point x="308" y="-83"/>
      <point x="238" y="-153"/>
    </contour>
    <component base="noteheadBlack" yOffset="2"/>
  </outline>
</glyph>
<glyph name="noteheadCircledHalf" format="2">
  <advance width="293"/>
  <unicode hex="E0E5"/>
  <note>
uniE0E5
</note>
  <anchor x="0" y="-42" name="stemDownNW"/>
  <anchor x="293" y="47" name="stemUpSE"/>
  <outline>
    <component base="noteheadHalf"/>
    <contour>
      <point x="150" y="-169" type="curve" smooth="yes"/>
      <point x="244" y="-169"/>
      <point x="321" y="-92"/>
      <point x="321" y="2" type="curve" smooth="yes"/>
      <point x="321" y="96"/>
      <point x="244" y="173"/>
      <point x="150" y="173" type="curve" smooth="yes"/>
      <point x="56" y="173"/>
      <point x="-21" y="96"/>
      <point x="-21" y="2" type="curve" smooth="yes"/>
      <point x="-21" y="-92"/>
      <point x="56" y="-169"/>
    </contour>
    <contour>
      <point x="150" y="-154" type="curve" smooth="yes"/>
      <point x="64" y="-154"/>
      <point x="-6" y="-84"/>
      <point x="-6" y="2" type="curve" smooth="yes"/>
      <point x="-6" y="88"/>
      <point x="64" y="158"/>
      <point x="150" y="158" type="curve" smooth="yes"/>
      <point x="236" y="158"/>
      <point x="306" y="88"/>
      <point x="306" y="2" type="curve" smooth="yes"/>
      <point x="306" y="-84"/>
      <point x="236" y="-154"/>
    </contour>
  </outline>
</glyph>
<glyph name="noteheadCircledWhole" format="2">
  <advance width="437"/>
  <unicode hex="E0E6"/>
  <note>
uniE0E6
</note>
  <outline>
    <component base="noteheadWhole" xOffset="40"/>
    <contour>
      <point x="221" y="-190" type="curve" smooth="yes"/>
      <point x="327" y="-190"/>
      <point x="414" y="-103"/>
      <point x="414" y="3" type="curve" smooth="yes"/>
      <point x="414" y="109"/>
      <point x="327" y="196"/>
      <point x="221" y="196" type="curve" smooth="yes"/>
      <point x="115" y="196"/>
      <point x="28" y="109"/>
      <point x="28" y="3" type="curve" smooth="yes"/>
      <point x="28" y="-103"/>
      <point x="115" y="-190"/>
    </contour>
    <contour>
      <point x="221" y="-173" type="curve" smooth="yes"/>
      <point x="124" y="-173"/>
      <point x="45" y="-94"/>
      <point x="45" y="3" type="curve" smooth="yes"/>
      <point x="45" y="100"/>
      <point x="124" y="179"/>
      <point x="221" y="179" type="curve" smooth="yes"/>
      <point x="318" y="179"/>
      <point x="397" y="100"/>
      <point x="397" y="3" type="curve" smooth="yes"/>
      <point x="397" y="-94"/>
      <point x="318" y="-173"/>
    </contour>
  </outline>
</glyph>
<glyph name="noteheadCircledDoubleWhole" format="2">
  <advance width="559"/>
  <unicode hex="E0E7"/>
  <note>
uniE0E7
</note>
  <anchor x="98" y="-200" name="noteheadOrigin"/>
  <outline>
    <component base="noteheadDoubleWhole"/>
    <contour>
      <point x="279" y="-190" type="curve" smooth="yes"/>
      <point x="385" y="-190"/>
      <point x="472" y="-103"/>
      <point x="472" y="3" type="curve" smooth="yes"/>
      <point x="472" y="109"/>
      <point x="385" y="196"/>
      <point x="279" y="196" type="curve" smooth="yes"/>
      <point x="173" y="196"/>
      <point x="86" y="109"/>
      <point x="86" y="3" type="curve" smooth="yes"/>
      <point x="86" y="-103"/>
      <point x="173" y="-190"/>
    </contour>
    <contour>
      <point x="279" y="-173" type="curve" smooth="yes"/>
      <point x="182" y="-173"/>
      <point x="103" y="-94"/>
      <point x="103" y="3" type="curve" smooth="yes"/>
      <point x="103" y="100"/>
      <point x="182" y="179"/>
      <point x="279" y="179" type="curve" smooth="yes"/>
      <point x="376" y="179"/>
      <point x="455" y="100"/>
      <point x="455" y="3" type="curve" smooth="yes"/>
      <point x="455" y="-94"/>
      <point x="376" y="-173"/>
    </contour>
  </outline>
</glyph>
<glyph name="noteheadWholeFilled" format="2">
  <advance width="359"/>
  <unicode hex="E0FA"/>
  <note>
uniE0A2
</note>
  <outline>
    <contour>
      <point x="191" y="125" type="curve" smooth="yes"/>
      <point x="58" y="125"/>
      <point x="0" y="69"/>
      <point x="0" y="2" type="curve" smooth="yes"/>
      <point x="0" y="-56"/>
      <point x="42" y="-125"/>
      <point x="171" y="-125" type="curve" smooth="yes"/>
      <point x="335" y="-125"/>
      <point x="362" y="-46"/>
      <point x="359" y="5" type="curve" smooth="yes"/>
      <point x="355" y="74"/>
      <point x="274" y="125"/>
    </contour>
  </outline>
</glyph>
<glyph name="noteheadHalfFilled" format="2">
  <advance width="293"/>
  <unicode hex="E0FB"/>
  <note>
uniE0A3
</note>
  <anchor x="0" y="-42" name="stemDownNW"/>
  <anchor x="293" y="47" name="stemUpSE"/>
  <outline>
    <contour>
      <point x="95" y="-125" type="curve" smooth="yes"/>
      <point x="240" y="-125"/>
      <point x="293" y="9"/>
      <point x="293" y="42" type="curve" smooth="yes"/>
      <point x="293" y="103"/>
      <point x="252" y="125"/>
      <point x="194" y="125" type="curve" smooth="yes"/>
      <point x="65" y="125"/>
      <point x="0" y="10"/>
      <point x="0" y="-42" type="curve" smooth="yes"/>
      <point x="0" y="-95"/>
      <point x="40" y="-125"/>
    </contour>
  </outline>
</glyph>
<glyph name="noteheadSlashVerticalEnds" format="2">
  <advance width="347"/>
  <unicode hex="E100"/>
  <note>
uniE100
</note>
  <anchor x="0" y="-205" name="stemDownNW"/>
  <anchor x="347" y="180" name="stemUpSE"/>
  <outline>
    <contour>
      <point x="0" y="-161" type="curve" smooth="yes"/>
      <point x="0" y="-218" type="line" smooth="yes"/>
      <point x="0" y="-224"/>
      <point x="3" y="-226"/>
      <point x="8" y="-220" type="curve" smooth="yes"/>
      <point x="345" y="163" type="line" smooth="yes"/>
      <point x="346" y="165"/>
      <point x="347" y="166"/>
      <point x="347" y="169" type="curve" smooth="yes"/>
      <point x="347" y="226" type="line"/>
      <point x="347" y="232"/>
      <point x="344" y="234"/>
      <point x="339" y="228" type="curve"/>
      <point x="2" y="-155" type="line" smooth="yes"/>
      <point x="1" y="-156"/>
      <point x="0" y="-158"/>
    </contour>
  </outline>
</glyph>
<glyph name="noteheadSlashHorizontalEnds" format="2">
  <advance width="458"/>
  <unicode hex="E101"/>
  <note>
uniE101
</note>
  <anchor x="18" y="-225" name="stemDownNW"/>
  <anchor x="440" y="227" name="stemUpSE"/>
  <outline>
    <contour>
      <point x="440" y="227" type="curve" smooth="yes"/>
      <point x="395" y="227" type="line" smooth="yes"/>
      <point x="390" y="227"/>
      <point x="386" y="225"/>
      <point x="383" y="221" type="curve" smooth="yes"/>
      <point x="13" y="-211" type="line" smooth="yes"/>
      <point x="6" y="-219"/>
      <point x="8" y="-225"/>
      <point x="18" y="-225" type="curve" smooth="yes"/>
      <point x="63" y="-225" type="line" smooth="yes"/>
      <point x="68" y="-225"/>
      <point x="72" y="-223"/>
      <point x="75" y="-219" type="curve" smooth="yes"/>
      <point x="445" y="213" type="line" smooth="yes"/>
      <point x="452" y="221"/>
      <point x="450" y="227"/>
    </contour>
  </outline>
</glyph>
<glyph name="noteheadSlashWhiteWhole" format="2">
  <advance width="980"/>
  <unicode hex="E102"/>
  <note>
uniE102
</note>
  <outline>
    <contour>
      <point x="23" y="-250" type="curve" smooth="yes"/>
      <point x="543" y="-250" type="line" smooth="yes"/>
      <point x="548" y="-250"/>
      <point x="552" y="-248"/>
      <point x="555" y="-244" type="curve" smooth="yes"/>
      <point x="968" y="238" type="line" smooth="yes"/>
      <point x="973" y="244"/>
      <point x="971" y="250"/>
      <point x="963" y="250" type="curve" smooth="yes"/>
      <point x="444" y="250" type="line" smooth="yes"/>
      <point x="439" y="250"/>
      <point x="435" y="248"/>
      <point x="432" y="244" type="curve" smooth="yes"/>
      <point x="18" y="-238" type="line" smooth="yes"/>
      <point x="13" y="-244"/>
      <point x="15" y="-250"/>
    </contour>
    <contour>
      <point x="130" y="-222" type="line" smooth="yes"/>
      <point x="122" y="-222"/>
      <point x="119" y="-214"/>
      <point x="124" y="-208" type="curve" smooth="yes"/>
      <point x="479" y="214" type="line" smooth="yes"/>
      <point x="482" y="218"/>
      <point x="486" y="222"/>
      <point x="491" y="222" type="curve" smooth="yes"/>
      <point x="850" y="222" type="line" smooth="yes"/>
      <point x="858" y="222"/>
      <point x="861" y="214"/>
      <point x="856" y="208" type="curve" smooth="yes"/>
      <point x="501" y="-214" type="line" smooth="yes"/>
      <point x="498" y="-218"/>
      <point x="494" y="-222"/>
      <point x="489" y="-222" type="curve" smooth="yes"/>
    </contour>
  </outline>
</glyph>
<glyph name="noteheadSlashDiamondWhite" format="2">
  <advance width="468"/>
  <unicode hex="E104"/>
  <note>
uniE104
</note>
  <anchor x="3" y="-7" name="stemDownNW"/>
  <anchor x="465" y="7" name="stemUpSE"/>
  <outline>
    <contour>
      <point x="241" y="-231" type="curve" smooth="yes"/>
      <point x="465" y="-7" type="line" smooth="yes"/>
      <point x="469" y="-3"/>
      <point x="469" y="3"/>
      <point x="465" y="7" type="curve" smooth="yes"/>
      <point x="241" y="231" type="line" smooth="yes"/>
      <point x="237" y="235"/>
      <point x="231" y="235"/>
      <point x="227" y="231" type="curve" smooth="yes"/>
      <point x="3" y="7" type="line" smooth="yes"/>
      <point x="-1" y="3"/>
      <point x="-1" y="-3"/>
      <point x="3" y="-7" type="curve" smooth="yes"/>
      <point x="227" y="-231" type="line" smooth="yes"/>
      <point x="231" y="-235"/>
      <point x="237" y="-235"/>
    </contour>
    <contour>
      <point x="73" y="9" type="curve" smooth="yes"/>
      <point x="226" y="160" type="line" smooth="yes"/>
      <point x="231" y="164"/>
      <point x="237" y="164"/>
      <point x="242" y="160" type="curve" smooth="yes"/>
      <point x="395" y="9" type="line" smooth="yes"/>
      <point x="399" y="4"/>
      <point x="399" y="-2"/>
      <point x="395" y="-7" type="curve" smooth="yes"/>
      <point x="242" y="-160" type="line" smooth="yes"/>
      <point x="237" y="-164"/>
      <point x="231" y="-164"/>
      <point x="226" y="-160" type="curve" smooth="yes"/>
      <point x="73" y="-7" type="line" smooth="yes"/>
      <point x="69" y="-2"/>
      <point x="69" y="4"/>
    </contour>
  </outline>
</glyph>
<glyph name="noteheadSlashVerticalEndsSmall" format="2">
  <advance width="175"/>
  <unicode hex="E105"/>
  <note>
uniE105
</note>
  <anchor x="0" y="-121" name="stemDownNW"/>
  <anchor x="175" y="71" name="stemUpSE"/>
  <outline>
    <contour>
      <point x="175" y="68" type="curve" smooth="yes"/>
      <point x="175" y="108" type="line" smooth="yes"/>
      <point x="175" y="118"/>
      <point x="169" y="120"/>
      <point x="162" y="112" type="curve" smooth="yes"/>
      <point x="2" y="-66" type="line" smooth="yes"/>
      <point x="1" y="-67"/>
      <point x="0" y="-70"/>
      <point x="0" y="-72" type="curve" smooth="yes"/>
      <point x="0" y="-124" type="line" smooth="yes"/>
      <point x="0" y="-129"/>
      <point x="3" y="-131"/>
      <point x="8" y="-126" type="curve" smooth="yes"/>
      <point x="170" y="56" type="line" smooth="yes"/>
      <point x="173" y="60"/>
      <point x="175" y="63"/>
    </contour>
  </outline>
</glyph>
<glyph name="noteheadSlashX" format="2">
  <advance width="440"/>
  <unicode hex="E106"/>
  <note>
uniE106
</note>
  <anchor x="9" y="-225" name="stemDownNW"/>
  <anchor x="431" y="227" name="stemUpSE"/>
  <outline>
    <contour>
      <point x="431" y="227" type="curve" smooth="yes"/>
      <point x="386" y="227" type="line" smooth="yes"/>
      <point x="381" y="227"/>
      <point x="377" y="225"/>
      <point x="374" y="221" type="curve" smooth="yes"/>
      <point x="220" y="41" type="line"/>
      <point x="66" y="221" type="line" smooth="yes"/>
      <point x="63" y="225"/>
      <point x="59" y="227"/>
      <point x="54" y="227" type="curve" smooth="yes"/>
      <point x="9" y="227" type="line" smooth="yes"/>
      <point x="-1" y="227"/>
      <point x="-3" y="221"/>
      <point x="4" y="213" type="curve" smooth="yes"/>
      <point x="186" y="1" type="line"/>
      <point x="4" y="-211" type="line" smooth="yes"/>
      <point x="-3" y="-219"/>
      <point x="-1" y="-225"/>
      <point x="9" y="-225" type="curve" smooth="yes"/>
      <point x="54" y="-225" type="line" smooth="yes"/>
      <point x="59" y="-225"/>
      <point x="63" y="-223"/>
      <point x="66" y="-219" type="curve" smooth="yes"/>
      <point x="220" y="-39" type="line"/>
      <point x="374" y="-219" type="line" smooth="yes"/>
      <point x="377" y="-223"/>
      <point x="381" y="-225"/>
      <point x="386" y="-225" type="curve" smooth="yes"/>
      <point x="431" y="-225" type="line" smooth="yes"/>
      <point x="441" y="-225"/>
      <point x="443" y="-219"/>
      <point x="436" y="-211" type="curve" smooth="yes"/>
      <point x="254" y="1" type="line"/>
      <point x="436" y="213" type="line" smooth="yes"/>
      <point x="443" y="221"/>
      <point x="441" y="227"/>
    </contour>
  </outline>
</glyph>
<glyph name="noteheadSlashVerticalEndsMuted" format="2">
  <advance width="347"/>
  <unicode hex="E107"/>
  <note>
uniE107
</note>
  <anchor x="0" y="-205" name="stemDownNW"/>
  <anchor x="347" y="180" name="stemUpSE"/>
  <outline>
    <contour>
      <point x="327" y="-218" type="curve" smooth="yes"/>
      <point x="334" y="-214" type="line" smooth="yes"/>
      <point x="338" y="-212"/>
      <point x="338" y="-208"/>
      <point x="335" y="-203" type="curve" smooth="yes"/>
      <point x="194" y="-8" type="line"/>
      <point x="345" y="163" type="line"/>
      <point x="346" y="165"/>
      <point x="347" y="166"/>
      <point x="347" y="169" type="curve" smooth="yes"/>
      <point x="347" y="226" type="line" smooth="yes"/>
      <point x="347" y="232"/>
      <point x="344" y="234"/>
      <point x="339" y="228" type="curve" smooth="yes"/>
      <point x="166" y="31" type="line"/>
      <point x="33" y="214" type="line" smooth="yes"/>
      <point x="30" y="218"/>
      <point x="25" y="219"/>
      <point x="21" y="216" type="curve" smooth="yes"/>
      <point x="14" y="211" type="line" smooth="yes"/>
      <point x="10" y="208"/>
      <point x="9" y="205"/>
      <point x="12" y="200" type="curve" smooth="yes"/>
      <point x="149" y="12" type="line"/>
      <point x="2" y="-155" type="line" smooth="yes"/>
      <point x="1" y="-156"/>
      <point x="0" y="-158"/>
      <point x="0" y="-161" type="curve" smooth="yes"/>
      <point x="0" y="-218" type="line" smooth="yes"/>
      <point x="0" y="-224"/>
      <point x="3" y="-226"/>
      <point x="8" y="-220" type="curve" smooth="yes"/>
      <point x="178" y="-27" type="line"/>
      <point x="315" y="-216" type="line" smooth="yes"/>
      <point x="318" y="-220"/>
      <point x="323" y="-220"/>
    </contour>
  </outline>
</glyph>
<glyph name="noteheadSlashHorizontalEndsMuted" format="2">
  <advance width="440"/>
  <unicode hex="E108"/>
  <note>
uniE108
</note>
  <anchor x="9" y="-225" name="stemDownNW"/>
  <anchor x="431" y="227" name="stemUpSE"/>
  <outline>
    <contour>
      <point x="377" y="-219" type="curve" smooth="yes"/>
      <point x="58" y="220" type="line" smooth="yes"/>
      <point x="55" y="224"/>
      <point x="50" y="224"/>
      <point x="46" y="222" type="curve" smooth="yes"/>
      <point x="40" y="219" type="line" smooth="yes"/>
      <point x="36" y="217"/>
      <point x="35" y="212"/>
      <point x="38" y="207" type="curve" smooth="yes"/>
      <point x="357" y="-232" type="line" smooth="yes"/>
      <point x="360" y="-236"/>
      <point x="365" y="-236"/>
      <point x="369" y="-234" type="curve" smooth="yes"/>
      <point x="375" y="-231" type="line" smooth="yes"/>
      <point x="379" y="-229"/>
      <point x="380" y="-224"/>
    </contour>
    <contour>
      <point x="431" y="227" type="curve" smooth="yes"/>
      <point x="386" y="227" type="line" smooth="yes"/>
      <point x="381" y="227"/>
      <point x="377" y="225"/>
      <point x="374" y="221" type="curve" smooth="yes"/>
      <point x="4" y="-211" type="line" smooth="yes"/>
      <point x="-3" y="-219"/>
      <point x="-1" y="-225"/>
      <point x="9" y="-225" type="curve" smooth="yes"/>
      <point x="54" y="-225" type="line" smooth="yes"/>
      <point x="59" y="-225"/>
      <point x="63" y="-223"/>
      <point x="66" y="-219" type="curve" smooth="yes"/>
      <point x="436" y="213" type="line" smooth="yes"/>
      <point x="443" y="221"/>
      <point x="441" y="227"/>
    </contour>
  </outline>
</glyph>
<glyph name="noteheadSlashWhiteMuted" format="2">
  <advance width="752"/>
  <unicode hex="E109"/>
  <note>
uniE109
</note>
  <anchor x="8" y="-250" name="stemDownNW"/>
  <anchor x="744" y="250" name="stemUpSE"/>
  <outline>
    <contour>
      <point x="8" y="-250" type="curve" smooth="yes"/>
      <point x="324" y="-250" type="line" smooth="yes"/>
      <point x="329" y="-250"/>
      <point x="333" y="-248"/>
      <point x="336" y="-244" type="curve" smooth="yes"/>
      <point x="445" y="-117" type="line"/>
      <point x="533" y="-238" type="line" smooth="yes"/>
      <point x="537" y="-244"/>
      <point x="541" y="-244"/>
      <point x="546" y="-240" type="curve"/>
      <point x="555" y="-235" type="line"/>
      <point x="559" y="-231"/>
      <point x="560" y="-227"/>
      <point x="557" y="-221" type="curve"/>
      <point x="464" y="-94" type="line"/>
      <point x="749" y="238" type="line" smooth="yes"/>
      <point x="754" y="244"/>
      <point x="752" y="250"/>
      <point x="744" y="250" type="curve" smooth="yes"/>
      <point x="429" y="250" type="line" smooth="yes"/>
      <point x="424" y="250"/>
      <point x="420" y="248"/>
      <point x="417" y="244" type="curve" smooth="yes"/>
      <point x="309" y="118" type="line"/>
      <point x="221" y="238" type="line" smooth="yes"/>
      <point x="217" y="244"/>
      <point x="213" y="244"/>
      <point x="208" y="240" type="curve"/>
      <point x="199" y="235" type="line"/>
      <point x="195" y="231"/>
      <point x="194" y="227"/>
      <point x="197" y="221" type="curve"/>
      <point x="289" y="95" type="line"/>
      <point x="3" y="-238" type="line" smooth="yes"/>
      <point x="-2" y="-244"/>
      <point x="0" y="-250"/>
    </contour>
    <contour>
      <point x="115" y="-222" type="line" smooth="yes"/>
      <point x="107" y="-222"/>
      <point x="104" y="-214"/>
      <point x="109" y="-208" type="curve" smooth="yes"/>
      <point x="324" y="48" type="line"/>
      <point x="407" y="-66" type="line"/>
      <point x="282" y="-214" type="line" smooth="yes"/>
      <point x="279" y="-218"/>
      <point x="275" y="-222"/>
      <point x="270" y="-222" type="curve" smooth="yes"/>
    </contour>
    <contour>
      <point x="426" y="-42" type="line"/>
      <point x="343" y="71" type="line"/>
      <point x="464" y="214" type="line" smooth="yes"/>
      <point x="467" y="218"/>
      <point x="471" y="222"/>
      <point x="476" y="222" type="curve" smooth="yes"/>
      <point x="631" y="222" type="line" smooth="yes"/>
      <point x="639" y="222"/>
      <point x="642" y="214"/>
      <point x="637" y="208" type="curve" smooth="yes"/>
    </contour>
  </outline>
</glyph>
<glyph name="noteheadSlashWhiteDoubleWhole" format="2">
  <advance width="1141"/>
  <unicode hex="E10A"/>
  <note>
uniE10A
</note>
  <outline>
    <contour>
      <point x="22" y="250" type="curve" smooth="yes"/>
      <point x="9" y="250" type="line" smooth="yes"/>
      <point x="3" y="250"/>
      <point x="0" y="246"/>
      <point x="0" y="242" type="curve" smooth="yes"/>
      <point x="0" y="-243" type="line" smooth="yes"/>
      <point x="0" y="-247"/>
      <point x="3" y="-250"/>
      <point x="9" y="-250" type="curve" smooth="yes"/>
      <point x="22" y="-250" type="line" smooth="yes"/>
      <point x="27" y="-250"/>
      <point x="31" y="-247"/>
      <point x="31" y="-243" type="curve" smooth="yes"/>
      <point x="31" y="242" type="line" smooth="yes"/>
      <point x="31" y="246"/>
      <point x="27" y="250"/>
    </contour>
    <contour>
      <point x="79" y="250" type="curve" smooth="yes"/>
      <point x="67" y="250" type="line" smooth="yes"/>
      <point x="61" y="250"/>
      <point x="57" y="246"/>
      <point x="57" y="242" type="curve" smooth="yes"/>
      <point x="57" y="-243" type="line" smooth="yes"/>
      <point x="57" y="-247"/>
      <point x="61" y="-250"/>
      <point x="67" y="-250" type="curve" smooth="yes"/>
      <point x="79" y="-250" type="line" smooth="yes"/>
      <point x="84" y="-250"/>
      <point x="89" y="-247"/>
      <point x="89" y="-243" type="curve" smooth="yes"/>
      <point x="89" y="242" type="line" smooth="yes"/>
      <point x="89" y="246"/>
      <point x="84" y="250"/>
    </contour>
    <contour>
      <point x="1074" y="250" type="curve" smooth="yes"/>
      <point x="1061" y="250" type="line" smooth="yes"/>
      <point x="1055" y="250"/>
      <point x="1052" y="246"/>
      <point x="1052" y="242" type="curve" smooth="yes"/>
      <point x="1052" y="-243" type="line" smooth="yes"/>
      <point x="1052" y="-247"/>
      <point x="1055" y="-250"/>
      <point x="1061" y="-250" type="curve" smooth="yes"/>
      <point x="1074" y="-250" type="line" smooth="yes"/>
      <point x="1079" y="-250"/>
      <point x="1083" y="-247"/>
      <point x="1083" y="-243" type="curve" smooth="yes"/>
      <point x="1083" y="242" type="line" smooth="yes"/>
      <point x="1083" y="246"/>
      <point x="1079" y="250"/>
    </contour>
    <contour>
      <point x="1131" y="250" type="curve" smooth="yes"/>
      <point x="1119" y="250" type="line" smooth="yes"/>
      <point x="1113" y="250"/>
      <point x="1109" y="246"/>
      <point x="1109" y="242" type="curve" smooth="yes"/>
      <point x="1109" y="-243" type="line" smooth="yes"/>
      <point x="1109" y="-247"/>
      <point x="1113" y="-250"/>
      <point x="1119" y="-250" type="curve" smooth="yes"/>
      <point x="1131" y="-250" type="line" smooth="yes"/>
      <point x="1136" y="-250"/>
      <point x="1141" y="-247"/>
      <point x="1141" y="-243" type="curve" smooth="yes"/>
      <point x="1141" y="242" type="line" smooth="yes"/>
      <point x="1141" y="246"/>
      <point x="1136" y="250"/>
    </contour>
    <contour>
      <point x="101" y="-250" type="curve" smooth="yes"/>
      <point x="621" y="-250" type="line" smooth="yes"/>
      <point x="626" y="-250"/>
      <point x="630" y="-248"/>
      <point x="633" y="-244" type="curve" smooth="yes"/>
      <point x="1046" y="238" type="line" smooth="yes"/>
      <point x="1051" y="244"/>
      <point x="1049" y="250"/>
      <point x="1041" y="250" type="curve" smooth="yes"/>
      <point x="522" y="250" type="line" smooth="yes"/>
      <point x="517" y="250"/>
      <point x="513" y="248"/>
      <point x="510" y="244" type="curve" smooth="yes"/>
      <point x="96" y="-238" type="line" smooth="yes"/>
      <point x="91" y="-244"/>
      <point x="93" y="-250"/>
    </contour>
    <contour>
      <point x="208" y="-222" type="line" smooth="yes"/>
      <point x="200" y="-222"/>
      <point x="197" y="-214"/>
      <point x="202" y="-208" type="curve" smooth="yes"/>
      <point x="557" y="214" type="line" smooth="yes"/>
      <point x="560" y="218"/>
      <point x="564" y="222"/>
      <point x="569" y="222" type="curve" smooth="yes"/>
      <point x="928" y="222" type="line" smooth="yes"/>
      <point x="936" y="222"/>
      <point x="939" y="214"/>
      <point x="934" y="208" type="curve" smooth="yes"/>
      <point x="579" y="-214" type="line" smooth="yes"/>
      <point x="576" y="-218"/>
      <point x="572" y="-222"/>
      <point x="567" y="-222" type="curve" smooth="yes"/>
    </contour>
  </outline>
</glyph>
<glyph name="note16thUp" format="2">
  <advance width="571"/>
  <unicode hex="E1D9"/>
  <note>
uniE1D9
</note>
  <outline>
    <component base="noteheadBlack" yOffset="30"/>
    <component base="flag16thUp" xOffset="265" yOffset="946"/>
    <contour>
      <point x="296" y="548" type="line"/>
      <point x="265" y="549" type="line"/>
      <point x="265" y="110" type="line"/>
      <point x="296" y="70" type="line"/>
    </contour>
  </outline>
</glyph>
<glyph name="note32ndUp" format="2">
  <advance width="563"/>
  <unicode hex="E1DB"/>
  <note>
uniE1DB
</note>
  <outline>
    <component base="noteheadBlack" xOffset="37" yOffset="31"/>
    <contour>
      <point x="331" y="501" type="line"/>
      <point x="302" y="501" type="line"/>
      <point x="302" y="136" type="line"/>
      <point x="331" y="90" type="line"/>
    </contour>
    <component base="flag32ndUp" xOffset="302" yOffset="880"/>
  </outline>
</glyph>
<glyph name="note64thUp" format="2">
  <advance width="563"/>
  <unicode hex="E1DD"/>
  <note>
uniE1DD
</note>
  <outline>
    <component base="noteheadBlack" xOffset="37" yOffset="31"/>
    <contour>
      <point x="331" y="521" type="line"/>
      <point x="302" y="522" type="line"/>
      <point x="302" y="112" type="line"/>
      <point x="331" y="87" type="line"/>
    </contour>
    <component base="flag64thUp" xOffset="302" yOffset="920"/>
  </outline>
</glyph>
<glyph name="note128thUp" format="2">
  <advance width="563"/>
  <unicode hex="E1DF"/>
  <note>
uniE1DF
</note>
  <outline>
    <component base="noteheadBlack" xOffset="37" yOffset="31"/>
    <contour>
      <point x="331" y="521" type="line"/>
      <point x="302" y="522" type="line"/>
      <point x="302" y="112" type="line"/>
      <point x="331" y="87" type="line"/>
    </contour>
    <component base="flag128thUp" xOffset="302" yOffset="906"/>
  </outline>
</glyph>
<glyph name="note256thUp" format="2">
  <advance width="566"/>
  <unicode hex="E1E1"/>
  <note>
uniE1E1
</note>
  <outline>
    <component base="noteheadBlack" xOffset="37" yOffset="31"/>
    <contour>
      <point x="331" y="521" type="line"/>
      <point x="302" y="522" type="line"/>
      <point x="302" y="112" type="line"/>
      <point x="331" y="87" type="line"/>
    </contour>
    <component base="flag256thUp" xOffset="302" yOffset="907"/>
  </outline>
</glyph>
<glyph name="augmentationDot" format="2">
  <advance width="90"/>
  <unicode hex="E1E7"/>
  <note>
uniE1E7
</note>
  <outline>
    <contour>
      <point x="90" y="7" type="curve" smooth="yes"/>
      <point x="90" y="32"/>
      <point x="70" y="52"/>
      <point x="45" y="52" type="curve" smooth="yes"/>
      <point x="20" y="52"/>
      <point x="0" y="32"/>
      <point x="0" y="7" type="curve" smooth="yes"/>
      <point x="0" y="-18"/>
      <point x="20" y="-38"/>
      <point x="45" y="-38" type="curve" smooth="yes"/>
      <point x="70" y="-38"/>
      <point x="90" y="-18"/>
    </contour>
  </outline>
</glyph>
<glyph name="tremolo1" format="2">
  <advance width="150"/>
  <unicode hex="E220"/>
  <note>
uniE220
</note>
  <outline>
    <contour>
      <point x="-141" y="-86" type="curve" smooth="yes"/>
      <point x="143" y="-27" type="line" smooth="yes"/>
      <point x="147" y="-26"/>
      <point x="150" y="-24"/>
      <point x="150" y="-19" type="curve" smooth="yes"/>
      <point x="150" y="80" type="line" smooth="yes"/>
      <point x="150" y="86"/>
      <point x="146" y="88"/>
      <point x="141" y="87" type="curve" smooth="yes"/>
      <point x="-143" y="28" type="line" smooth="yes"/>
      <point x="-147" y="27"/>
      <point x="-150" y="25"/>
      <point x="-150" y="20" type="curve" smooth="yes"/>
      <point x="-150" y="-79" type="line" smooth="yes"/>
      <point x="-150" y="-85"/>
      <point x="-146" y="-87"/>
    </contour>
  </outline>
</glyph>
<glyph name="flag8thUp" format="2">
  <advance width="264"/>
  <unicode hex="E240"/>
  <note>
uniE240
</note>
  <anchor x="0" y="-7" name="stemUpNW"/>
  <outline>
    <contour>
      <point x="303" y="-798" type="curve"/>
      <point x="303" y="-798"/>
      <point x="333" y="-699"/>
      <point x="332" y="-636" type="curve" smooth="yes"/>
      <point x="330" y="-511"/>
      <point x="270" y="-364"/>
      <point x="211" y="-291" type="curve" smooth="yes"/>
      <point x="145" y="-209"/>
      <point x="55" y="-99"/>
      <point x="40" y="-14" type="curve" smooth="yes"/>
      <point x="37" y="2"/>
      <point x="29" y="8"/>
      <point x="19" y="8" type="curve" smooth="yes"/>
      <point x="8" y="8"/>
      <point x="0" y="5"/>
      <point x="0" y="-7" type="curve" smooth="yes"/>
      <point x="0" y="-246" type="line"/>
      <point x="117" y="-248"/>
      <point x="196" y="-349"/>
      <point x="258" y="-463" type="curve" smooth="yes"/>
      <point x="276" y="-496"/>
      <point x="293" y="-579"/>
      <point x="293" y="-638" type="curve" smooth="yes"/>
      <point x="293" y="-683"/>
      <point x="293" y="-699"/>
      <point x="280" y="-762" type="curve" smooth="yes"/>
      <point x="274" y="-789"/>
      <point x="271" y="-797"/>
      <point x="271" y="-801" type="curve" smooth="yes"/>
      <point x="269" y="-817"/>
      <point x="261" y="-826"/>
      <point x="267" y="-830" type="curve" smooth="yes"/>
      <point x="273" y="-834"/>
      <point x="300" y="-817"/>
    </contour>
  </outline>
</glyph>
<glyph name="flag8thDown" format="2">
  <advance width="302"/>
  <unicode hex="E241"/>
  <note>
uniE241
</note>
  <anchor x="0" y="1" name="stemDownSW"/>
  <outline>
    <contour>
      <point x="238" y="730" type="curve" smooth="yes"/>
      <point x="267" y="668"/>
      <point x="271" y="614"/>
      <point x="273" y="586" type="curve" smooth="yes"/>
      <point x="278" y="513"/>
      <point x="271" y="484"/>
      <point x="261" y="459" type="curve" smooth="yes"/>
      <point x="233" y="390"/>
      <point x="165" y="296"/>
      <point x="0" y="226" type="curve"/>
      <point x="0" y="1" type="line" smooth="yes"/>
      <point x="0" y="-9"/>
      <point x="8" y="-14"/>
      <point x="16" y="-14" type="curve" smooth="yes"/>
      <point x="25" y="-14"/>
      <point x="40" y="-8"/>
      <point x="40" y="8" type="curve" smooth="yes"/>
      <point x="37" y="163"/>
      <point x="117" y="202"/>
      <point x="189" y="279" type="curve" smooth="yes"/>
      <point x="296" y="394"/>
      <point x="301" y="494"/>
      <point x="302" y="556" type="curve" smooth="yes"/>
      <point x="303" y="632"/>
      <point x="266" y="725"/>
      <point x="248" y="757" type="curve" smooth="yes"/>
      <point x="230" y="789"/>
      <point x="219" y="771"/>
    </contour>
  </outline>
</glyph>
<glyph name="flag16thUp" format="2">
  <advance width="278"/>
  <unicode hex="E242"/>
  <note>
uniE242
</note>
  <anchor x="0" y="47" name="stemUpNW"/>
  <outline>
    <contour>
      <point x="0" y="-403" type="line"/>
      <point x="31" y="-403" type="line"/>
      <point x="86" y="-407"/>
      <point x="181" y="-467"/>
      <point x="233" y="-540" type="curve" smooth="yes"/>
      <point x="265" y="-585"/>
      <point x="269" y="-630"/>
      <point x="270" y="-680" type="curve" smooth="yes"/>
      <point x="271" y="-730"/>
      <point x="244" y="-797"/>
      <point x="238" y="-825" type="curve" smooth="yes"/>
      <point x="237" y="-829"/>
      <point x="237" y="-831"/>
      <point x="237" y="-834" type="curve" smooth="yes"/>
      <point x="237" y="-847"/>
      <point x="235" y="-855"/>
      <point x="244" y="-857" type="curve" smooth="yes"/>
      <point x="250" y="-858"/>
      <point x="258" y="-855"/>
      <point x="265" y="-843" type="curve"/>
      <point x="267" y="-834"/>
      <point x="306" y="-726"/>
      <point x="306" y="-680" type="curve" smooth="yes"/>
      <point x="306" y="-658" type="line" smooth="yes"/>
      <point x="306" y="-618"/>
      <point x="288" y="-575"/>
      <point x="284" y="-539" type="curve"/>
      <point x="284" y="-536"/>
      <point x="284" y="-525"/>
      <point x="285" y="-521" type="curve" smooth="yes"/>
      <point x="288" y="-513"/>
      <point x="295" y="-460"/>
      <point x="295" y="-430" type="curve" smooth="yes"/>
      <point x="295" y="-418"/>
      <point x="295" y="-397"/>
      <point x="282" y="-343" type="curve" smooth="yes"/>
      <point x="269" y="-290"/>
      <point x="230" y="-256"/>
      <point x="164" y="-176" type="curve" smooth="yes"/>
      <point x="110" y="-110"/>
      <point x="81" y="-84"/>
      <point x="41" y="-3" type="curve" smooth="yes"/>
      <point x="35" y="9"/>
      <point x="31" y="39"/>
      <point x="28" y="47" type="curve" smooth="yes"/>
      <point x="26" y="53"/>
      <point x="20" y="61"/>
      <point x="15" y="61" type="curve" smooth="yes"/>
      <point x="5" y="61"/>
      <point x="0" y="55"/>
      <point x="0" y="46" type="curve" smooth="yes"/>
      <point x="0" y="-296" type="line"/>
      <point x="0" y="-296" type="line"/>
    </contour>
    <contour>
      <point x="267" y="-479" type="curve" smooth="yes"/>
      <point x="267" y="-491"/>
      <point x="267" y="-496"/>
      <point x="262" y="-504" type="curve"/>
      <point x="261" y="-507"/>
      <point x="254" y="-510"/>
      <point x="249" y="-510" type="curve" smooth="yes"/>
      <point x="246" y="-510"/>
      <point x="244" y="-509"/>
      <point x="242" y="-506" type="curve" smooth="yes"/>
      <point x="226" y="-482"/>
      <point x="198" y="-435"/>
      <point x="144" y="-396" type="curve" smooth="yes"/>
      <point x="32" y="-317"/>
      <point x="28" y="-262"/>
      <point x="33" y="-203" type="curve"/>
      <point x="33" y="-201"/>
      <point x="33" y="-200"/>
      <point x="33" y="-199" type="curve" smooth="yes"/>
      <point x="33" y="-195"/>
      <point x="39" y="-189"/>
      <point x="47" y="-189" type="curve" smooth="yes"/>
      <point x="55" y="-189" type="line" smooth="yes"/>
      <point x="116" y="-189"/>
      <point x="187" y="-254"/>
      <point x="220" y="-301" type="curve" smooth="yes"/>
      <point x="238" y="-326"/>
      <point x="267" y="-388"/>
      <point x="267" y="-440" type="curve" smooth="yes"/>
      <point x="267" y="-462"/>
      <point x="267" y="-472"/>
    </contour>
  </outline>
</glyph>
<glyph name="flag16thDown" format="2">
  <advance width="304"/>
  <unicode hex="E243"/>
  <note>
uniE243
</note>
  <anchor x="0" y="7" name="stemDownSW"/>
  <outline>
    <contour>
      <point x="0" y="475" type="line"/>
      <point x="0" y="349" type="line"/>
      <point x="0" y="349" type="line"/>
      <point x="0" y="7" type="line" smooth="yes"/>
      <point x="0" y="-2"/>
      <point x="5" y="-8"/>
      <point x="15" y="-8" type="curve" smooth="yes"/>
      <point x="20" y="-8"/>
      <point x="26" y="0"/>
      <point x="28" y="6" type="curve" smooth="yes"/>
      <point x="31" y="14"/>
      <point x="35" y="44"/>
      <point x="41" y="56" type="curve" smooth="yes"/>
      <point x="81" y="137"/>
      <point x="110" y="163"/>
      <point x="164" y="229" type="curve" smooth="yes"/>
      <point x="230" y="309"/>
      <point x="269" y="343"/>
      <point x="282" y="396" type="curve" smooth="yes"/>
      <point x="295" y="450"/>
      <point x="295" y="471"/>
      <point x="295" y="483" type="curve" smooth="yes"/>
      <point x="295" y="513"/>
      <point x="288" y="566"/>
      <point x="285" y="574" type="curve" smooth="yes"/>
      <point x="284" y="578"/>
      <point x="284" y="589"/>
      <point x="284" y="592" type="curve"/>
      <point x="286" y="631"/>
      <point x="304" y="674"/>
      <point x="304" y="714" type="curve" smooth="yes"/>
      <point x="304" y="736" type="line" smooth="yes"/>
      <point x="304" y="782"/>
      <point x="290" y="845"/>
      <point x="287" y="854" type="curve" smooth="yes"/>
      <point x="282" y="867"/>
      <point x="271" y="865"/>
      <point x="265" y="863" type="curve" smooth="yes"/>
      <point x="256" y="860"/>
      <point x="256" y="853"/>
      <point x="258" y="840" type="curve" smooth="yes"/>
      <point x="258" y="837"/>
      <point x="258" y="835"/>
      <point x="259" y="831" type="curve" smooth="yes"/>
      <point x="265" y="803"/>
      <point x="269" y="786"/>
      <point x="268" y="736" type="curve" smooth="yes"/>
      <point x="267" y="686"/>
      <point x="263" y="661"/>
      <point x="231" y="616" type="curve" smooth="yes"/>
      <point x="179" y="543"/>
      <point x="86" y="480"/>
      <point x="31" y="476" type="curve"/>
    </contour>
    <contour>
      <point x="267" y="532" type="curve" smooth="yes"/>
      <point x="267" y="525"/>
      <point x="267" y="515"/>
      <point x="267" y="493" type="curve" smooth="yes"/>
      <point x="267" y="441"/>
      <point x="238" y="379"/>
      <point x="220" y="354" type="curve" smooth="yes"/>
      <point x="187" y="307"/>
      <point x="116" y="242"/>
      <point x="55" y="242" type="curve" smooth="yes"/>
      <point x="47" y="242" type="line" smooth="yes"/>
      <point x="39" y="242"/>
      <point x="33" y="248"/>
      <point x="33" y="252" type="curve" smooth="yes"/>
      <point x="33" y="253"/>
      <point x="33" y="264"/>
      <point x="33" y="266" type="curve"/>
      <point x="28" y="325"/>
      <point x="36" y="367"/>
      <point x="144" y="459" type="curve" smooth="yes"/>
      <point x="195" y="502"/>
      <point x="226" y="535"/>
      <point x="242" y="559" type="curve" smooth="yes"/>
      <point x="244" y="562"/>
      <point x="246" y="563"/>
      <point x="249" y="563" type="curve" smooth="yes"/>
      <point x="254" y="563"/>
      <point x="261" y="560"/>
      <point x="262" y="557" type="curve"/>
      <point x="267" y="549"/>
      <point x="267" y="544"/>
    </contour>
  </outline>
</glyph>
